<svg width="1549" height="149" viewBox="0 0 1549 149" fill="none" xmlns="http://www.w3.org/2000/svg">
<path fill-rule="evenodd" clip-rule="evenodd" d="M1473 59L1473 59L1473 58.5266C1473 58.6845 1473 58.8423 1473 59ZM1548.5 0.828303L1548.5 1.02088C1547.84 1.00699 1547.17 1 1546.5 1C1505.92 0.999999 1473.02 26.7292 1473 58.4734L1473 0.828304L1548.5 0.828303Z" fill="white"/>
<path fill-rule="evenodd" clip-rule="evenodd" d="M75.4975 59L75.5003 59L75.5003 58.5266C75.5002 58.6845 75.4993 58.8423 75.4975 59ZM-5.08553e-06 0.828303L-5.0687e-06 1.02088C0.664586 1.00699 1.33138 1 2.00025 1C42.5819 0.999999 75.4819 26.7292 75.5003 58.4734L75.5003 0.828304L-5.08553e-06 0.828303Z" fill="white"/>
<path fill-rule="evenodd" clip-rule="evenodd" d="M74.6093 1C74.2083 3.55029 74 6.16504 74 8.82812V75.8281C74 103.442 96.3857 125.828 124 125.828H684.945C695.036 125.828 704.763 129.131 713.706 133.804C731.774 143.243 752.195 148.488 773.46 148.488C794.724 148.488 815.146 143.243 833.213 133.804C842.157 129.131 851.884 125.828 861.975 125.828H1424C1451.61 125.828 1474 103.442 1474 75.8281V8.82812C1474 6.16504 1473.79 3.55029 1473.39 1H74.6093Z" fill="white"/>
</svg>
