<svg width="20" height="20" viewBox="0 0 20 20" fill="none" xmlns="http://www.w3.org/2000/svg">
<path d="M9.98926 10.1958C7.79204 10.1958 5.96582 8.37117 5.96582 6.21206C5.96582 3.97828 7.79204 2.15283 9.99004 2.15283C12.2627 2.15283 14.0135 3.9775 14.0135 6.21206C14.0096 7.27221 13.5849 8.28743 12.8328 9.03459C12.0806 9.78175 11.0626 10.1997 10.0025 10.1966L9.98926 10.1958ZM9.98926 4.49939C9.05904 4.49939 8.35126 5.28106 8.35126 6.21283C8.35126 7.14306 9.05904 7.85083 9.99004 7.85083C10.9584 7.85083 11.6288 7.14306 11.6288 6.21283C11.6296 5.28028 10.9584 4.49939 9.98926 4.49939ZM11.5915 13.5107L13.8649 15.7079C14.3122 16.1909 14.3122 16.8987 13.8649 17.346C13.3812 17.829 12.6353 17.829 12.2627 17.346L9.99004 15.1114L7.79204 17.346C7.56882 17.5692 7.27015 17.6804 6.93415 17.6804C6.6736 17.6804 6.37571 17.5684 6.11437 17.346C5.66715 16.8987 5.66715 16.1909 6.11437 15.7072L8.42438 13.5099C7.59016 13.2629 6.7899 12.9131 6.04204 12.4685C5.48282 12.1706 5.3716 11.4263 5.66949 10.8671C6.04204 10.3086 6.71249 10.1601 7.30904 10.5326C8.11684 11.0256 9.04487 11.2864 9.99121 11.2864C10.9375 11.2864 11.8656 11.0256 12.6734 10.5326C13.2699 10.1601 13.9769 10.3086 14.3122 10.8671C14.6482 11.4263 14.498 12.1698 13.9762 12.4685C13.2692 12.9157 12.4494 13.2509 11.5923 13.5115L11.5915 13.5107Z" fill="white"/>
</svg>
