                      <svg width="20" height="20" viewBox="0 0 20 20" fill="none" xmlns="http://www.w3.org/2000/svg">
                        <path d="M13.5779 5.124C13.0463 4.51704 12.7533 3.73756 12.7535 2.93066H10.3502V12.5751C10.3316 13.097 10.1113 13.5914 9.73553 13.9541C9.35978 14.3168 8.85795 14.5195 8.33571 14.5196C7.23126 14.5196 6.31349 13.6173 6.31349 12.4973C6.31349 11.1596 7.6046 10.1562 8.9346 10.5684V8.11067C6.25126 7.75289 3.90237 9.83733 3.90237 12.4973C3.90237 15.0873 6.04904 16.9307 8.32793 16.9307C10.7702 16.9307 12.7535 14.9473 12.7535 12.4973V7.60511C13.728 8.30499 14.8981 8.6805 16.0979 8.67844V6.27511C16.0979 6.27511 14.6357 6.34511 13.5779 5.124Z" fill="white"/>
                        </svg>                        