<svg width="20" height="20" viewBox="0 0 20 20" fill="none" xmlns="http://www.w3.org/2000/svg">
<path d="M17.3922 14.8938H15.6181C14.9468 14.8938 14.7446 14.3502 13.5414 13.1462C12.4898 12.1327 12.0457 12.0067 11.7797 12.0067C11.4118 12.0067 11.3115 12.1078 11.3115 12.6141V14.2102C11.3115 14.6418 11.1715 14.8946 10.0437 14.8946C8.94963 14.8211 7.88864 14.4887 6.94815 13.9248C6.00767 13.3609 5.21461 12.5817 4.63429 11.6513C3.25637 9.93628 2.29762 7.92343 1.83429 5.77281C1.83429 5.50681 1.9354 5.2657 2.44251 5.2657H4.21584C4.67162 5.2657 4.83573 5.4687 5.01462 5.9377C5.87562 8.4717 7.34484 10.6759 7.9414 10.6759C8.17007 10.6759 8.26962 10.5748 8.26962 10.0047V7.39448C8.19418 6.2037 7.56184 6.10337 7.56184 5.67248C7.56984 5.5588 7.62184 5.45272 7.7068 5.37677C7.79176 5.30081 7.90298 5.26097 8.01685 5.2657H10.8044C11.1855 5.2657 11.3115 5.45548 11.3115 5.91126V9.43459C11.3115 9.81493 11.4748 9.94093 11.59 9.94093C11.8186 9.94093 11.9944 9.81493 12.4136 9.39648C13.3122 8.30058 14.0464 7.07961 14.593 5.77204C14.6489 5.61505 14.7547 5.48066 14.8941 5.38938C15.0336 5.29811 15.199 5.25494 15.3653 5.26648H17.1394C17.6714 5.26648 17.7842 5.53248 17.6714 5.91204C17.0261 7.35747 16.2277 8.72954 15.2898 10.0047C15.0985 10.2964 15.0223 10.448 15.2898 10.7903C15.4656 11.0563 16.0878 11.5758 16.5055 12.0697C17.1137 12.6764 17.6185 13.3779 18.0004 14.1464C18.1528 14.641 17.8985 14.8938 17.3922 14.8938Z" fill="white"/>
</svg>
