<svg width="20" height="20" viewBox="0 0 20 20" fill="none" xmlns="http://www.w3.org/2000/svg">
<path d="M18.5553 8.14938C18.5938 7.03611 18.3503 5.93117 17.8475 4.93716C17.5064 4.52929 17.033 4.25404 16.5097 4.15938C14.3456 3.96301 12.1725 3.88252 9.99973 3.91827C7.8349 3.8809 5.66962 3.95879 3.51306 4.1516C3.0867 4.22916 2.69213 4.42914 2.37751 4.72716C1.67751 5.37271 1.59973 6.47716 1.52195 7.41049C1.40911 9.0886 1.40911 10.7724 1.52195 12.4505C1.54445 12.9758 1.62267 13.4973 1.75528 14.006C1.84907 14.3989 2.0388 14.7623 2.30751 15.0638C2.62427 15.3776 3.02803 15.589 3.4664 15.6705C5.14322 15.8775 6.83279 15.9633 8.52195 15.9272C11.2442 15.966 13.632 15.9272 16.4553 15.7094C16.9044 15.6329 17.3196 15.4213 17.6453 15.1027C17.863 14.8849 18.0257 14.6182 18.1197 14.3249C18.3979 13.4714 18.5345 12.5781 18.5242 11.6805C18.5553 11.2449 18.5553 8.61605 18.5553 8.14938ZM8.24195 12.1472V7.33271L12.8464 9.7516C11.5553 10.4672 9.85195 11.276 8.24195 12.1472Z" fill="white"/>
</svg>
