<svg width="2334" height="2358" viewBox="0 0 2334 2358" fill="none" xmlns="http://www.w3.org/2000/svg">
<path d="M2005.01 1969.38C1953.5 2024.54 1897.04 2075.08 1836.34 2120.08C1775.64 2165.08 1710.71 2204.53 1642.5 2237.73C1608.39 2254.31 1573.49 2269.41 1537.86 2282.7C1502.26 2296.1 1465.94 2307.72 1429.11 2317.67C1355.44 2337.5 1279.58 2350.2 1202.98 2355.27C1126.39 2360.28 1049.05 2357.51 972.682 2346.71C896.307 2335.96 820.909 2317.18 748.245 2290.69C675.576 2264.23 605.649 2230.08 540.033 2189.11C474.403 2148.15 413.121 2100.34 357.401 2046.94C329.549 2020.24 303.102 1992.09 278.124 1962.74C253.228 1933.32 229.694 1902.78 207.924 1871.06C164.274 1807.7 127.222 1740.03 97.1127 1669.63C67.0568 1599.2 43.9186 1526.06 27.8024 1451.57C11.727 1377.07 2.57176 1301.23 0.460044 1225.26C-1.61044 1149.29 3.30542 1073.19 15.2579 998.184C27.2219 923.186 46.2503 849.302 72.102 777.797C85.0612 742.06 99.5795 706.855 115.931 672.483C132.153 638.048 150.143 604.428 169.619 571.66C208.638 506.164 253.949 444.258 304.856 387.133C355.792 330.049 412.322 277.672 473.689 231.378C504.357 208.214 536.25 186.612 569.15 166.6C602.096 146.672 636.01 128.248 670.867 111.734C705.701 95.1754 741.385 80.3279 777.779 67.4039C795.969 60.9246 814.325 54.8937 832.824 49.3155C837.431 47.8594 842.082 46.559 846.737 45.2682L860.694 41.3609C865.335 40.0137 870.024 38.8501 874.707 37.661L888.757 34.0903C963.832 15.5955 1040.81 4.64642 1118.17 1.16338C1195.54 -2.25623 1273.31 1.85734 1350.01 13.5765C1426.7 25.335 1502.33 44.5739 1575.32 71.2882C1648.3 98.0058 1718.67 132.041 1784.85 172.901C1817.98 193.272 1850 215.425 1880.91 239.003C1911.75 262.671 1941.49 287.767 1969.83 314.343C2083.25 420.573 2175.47 549.619 2237.99 691.575C2269.25 762.534 2293.03 836.656 2308.94 912.244C2316.93 950.032 2322.92 988.196 2326.96 1026.51C2331.06 1064.82 2333.13 1103.28 2333.33 1141.7C2333.65 1218.53 2326.29 1295.14 2311.75 1370.09C2304.44 1407.55 2295.44 1444.63 2284.61 1481.11C2273.89 1517.63 2261.32 1553.53 2247.21 1588.76C2218.95 1659.2 2184.19 1726.81 2143.56 1790.55C2102.95 1854.3 2056.46 1914.17 2005.01 1969.38ZM1999.79 1964.52C2050.79 1909.52 2096.17 1849.3 2134.71 1785.07C2173.28 1720.86 2205.01 1652.66 2229.24 1582.07C2241.38 1546.78 2251.58 1510.88 2260.03 1474.63C2268.38 1438.36 2274.99 1401.74 2279.63 1364.91C2289.01 1291.28 2290.99 1216.97 2285.91 1143.4C2275.78 996.207 2237.59 852.156 2175.09 720.283C2143.83 654.34 2106.46 591.391 2063.29 532.727C2041.72 503.381 2018.71 475.117 1994.46 447.97C1970.17 420.858 1944.62 394.874 1917.9 370.145C1891.12 345.487 1863.28 321.985 1834.32 299.977C1805.42 277.875 1775.4 257.27 1744.54 238.041C1682.74 199.685 1617.29 167.199 1549.22 141.401C1413.16 89.6232 1266.69 64.6374 1120.6 68.544C974.487 72.4028 829.154 105.275 694.71 163.958C627.483 193.315 562.951 229.162 502.354 271.02C441.751 312.868 385.093 360.725 333.449 413.743C281.898 466.834 235.355 525.017 195.211 587.5C175.097 618.713 156.658 651.029 139.798 684.171C123.065 717.374 107.847 751.383 94.5568 786.159C41.2015 925.187 16.7214 1075.55 23.399 1224.44C26.7385 1298.87 37.7456 1372.9 56.2251 1444.88C74.645 1516.87 100.447 1586.82 132.916 1653.29C165.306 1719.81 204.351 1782.84 248.895 1841.44C271.215 1870.7 294.781 1898.97 319.736 1925.93C344.609 1952.95 370.766 1978.75 397.971 2003.35C452.49 2052.44 511.318 2096.5 573.685 2134.73C636.043 2172.97 701.942 2205.35 770.317 2231.4C907.047 2283.51 1053.7 2310.49 1201.34 2309.8C1275.15 2309.46 1349.16 2302.03 1421.96 2287.34C1458.37 2280.03 1494.44 2270.8 1530.04 2259.84C1565.6 2248.79 1600.69 2236.02 1635.03 2221.36C1703.72 2192.08 1769.48 2155.48 1830.72 2112.31C1891.99 2069.16 1948.72 2019.47 1999.79 1964.52Z" fill="#447EC0"/>
<path opacity="0.2" d="M2157.44 1083.12C2157.32 1149.54 2151.39 1215.94 2139.54 1281.32C2127.7 1346.7 2109.95 1411.05 2086.46 1473.33C2074.71 1504.47 2061.58 1535.11 2046.94 1565.04C2032.39 1595.01 2016.33 1624.27 1998.98 1652.76C1964.23 1709.71 1923.93 1763.37 1878.69 1812.56C1833.42 1861.71 1783.12 1906.29 1728.73 1945.13C1674.36 1983.99 1615.91 2017.1 1554.67 2043.6C1493.43 2070.12 1429.42 2090.04 1364.12 2102.98C1298.83 2115.95 1232.25 2121.89 1165.91 2120.89C1132.74 2120.39 1099.61 2118.11 1066.7 2114.18C1033.8 2110.15 1001.1 2104.59 968.818 2097.2C904.233 2082.55 841.278 2061.17 781.097 2033.88C720.927 2006.52 663.526 1973.28 609.752 1934.95C555.996 1896.59 505.815 1853.22 459.989 1805.55C414.189 1757.85 372.71 1705.88 336.303 1650.39C299.905 1594.91 268.605 1535.9 242.994 1474.34C230.219 1443.55 218.736 1412.16 208.894 1380.21C198.935 1348.31 190.566 1315.86 183.63 1283.07C169.825 1217.49 162.083 1150.44 160.663 1083.12C159.285 1015.81 164.185 948.173 175.693 881.558C181.426 848.248 188.846 815.211 197.831 782.594C206.894 750.004 217.446 717.802 229.712 686.265C241.937 654.713 255.698 623.754 271.034 593.609C278.687 578.529 286.707 563.639 295.083 548.954C297.129 545.254 299.295 541.628 301.469 538.005L307.964 527.121C310.096 523.47 312.365 519.909 314.616 516.336L321.367 505.612C357.785 448.687 399.82 395.481 446.47 346.855C493.16 298.266 544.519 254.287 599.654 215.853C654.804 177.453 713.674 144.501 775.258 117.952C836.836 91.4114 901.06 71.1469 966.645 57.792C999.425 51.0549 1032.55 46.1293 1065.82 42.7861C1099.09 39.5433 1132.51 37.878 1165.91 38.007C1299.51 38.446 1433.14 66.2894 1555.63 120.256C1616.87 147.228 1675.25 180.72 1729.54 219.875C1756.7 239.429 1782.82 260.424 1807.81 282.683C1832.82 304.905 1856.66 328.442 1879.28 353.07C1924.48 402.38 1964.73 456.14 1999.47 513.14C2016.81 541.66 2032.87 570.94 2047.42 600.938C2062.06 630.889 2075.18 661.555 2086.93 692.707C2110.4 755.029 2128.12 819.425 2139.89 884.845C2151.67 950.266 2157.48 1016.7 2157.44 1083.12ZM2151.3 1083.12C2151.19 1017.11 2144.47 951.109 2131.11 886.623C2117.77 822.133 2097.8 759.173 2071.7 699.172C2058.67 669.16 2044.06 639.917 2028.16 611.496C2012.17 583.123 1994.87 555.571 1976.23 529.064C1939 476.005 1896.71 426.947 1850.43 382.592C1757.85 293.848 1649.43 223.946 1532.86 176.462C1474.56 152.723 1414.17 134.572 1352.64 122.665C1321.88 116.688 1290.84 112.276 1259.68 109.326C1228.51 106.423 1197.21 105.001 1165.91 105.091C1134.61 105.264 1103.33 106.811 1072.21 110C1041.08 113.086 1010.12 117.808 979.428 123.925C918.071 136.263 857.849 154.576 799.899 178.766C683.941 226.982 577.119 298.704 487.463 388.807C397.763 478.896 325.55 587.205 275.306 705.614C250.192 764.831 230.573 826.614 216.952 889.91C203.322 953.203 195.694 1018 194.244 1083.12C192.896 1148.23 197.682 1213.62 209.015 1277.94C214.638 1310.1 221.961 1341.98 230.761 1373.44C239.678 1404.86 250.02 1435.89 262.024 1466.26C309.876 1587.82 382.537 1699.36 473.944 1791.27C519.642 1837.22 569.93 1878.31 623.72 1913.6C677.48 1948.93 734.691 1978.53 794.06 2001.88C853.407 2025.32 914.898 2042.51 977.254 2053.56C1008.44 2059.03 1039.83 2063.11 1071.33 2065.51C1102.81 2068.01 1134.38 2068.95 1165.91 2068.49C1228.97 2067.42 1291.81 2060.54 1353.45 2047.78C1415.1 2035.03 1475.53 2016.38 1533.83 1992.16C1650.4 1943.76 1758.51 1873.21 1851.03 1784.25C1897.27 1739.78 1939.5 1690.62 1976.72 1637.51C1995.35 1610.97 2012.65 1583.4 2028.63 1555C2044.53 1526.56 2059.14 1497.3 2072.17 1467.27C2098.25 1407.22 2118.2 1344.22 2131.46 1279.69C2144.75 1215.16 2151.35 1149.13 2151.3 1083.12Z" fill="#447EC0"/>
<path d="M1182.74 2086.7C1672.98 2086.7 2070.4 1689.28 2070.4 1199.05C2070.4 708.807 1672.98 311.39 1182.74 311.39C692.501 311.39 295.084 708.807 295.084 1199.05C295.084 1689.28 692.501 2086.7 1182.74 2086.7Z" fill="white"/>
<path d="M1203.66 1942.37C1603.35 1942.37 1927.37 1618.36 1927.37 1218.66C1927.37 818.968 1603.35 494.951 1203.66 494.951C803.963 494.951 479.946 818.968 479.946 1218.66C479.946 1618.36 803.963 1942.37 1203.66 1942.37Z" fill="#447EC0"/>
<path d="M895.077 562.208C981.038 521.884 1074.51 497.49 1169.65 491.415C1193.43 489.908 1217.3 489.448 1241.16 490.211C1265.03 490.911 1288.89 492.787 1312.62 495.831C1360.08 501.929 1407.08 512.624 1452.66 527.911C1543.78 558.512 1629.12 607.835 1700.91 672.634C1736.82 704.992 1769.42 741.055 1797.96 780.08C1812.23 799.593 1825.54 819.803 1837.71 840.67C1849.94 861.505 1861.06 882.974 1871.1 904.916C1891.13 948.823 1906.75 994.708 1917.55 1041.63C1928.36 1088.55 1934.5 1136.46 1935.84 1184.43C1938.55 1280.38 1922.38 1376.31 1889.5 1465.89C1856.61 1555.48 1806.79 1638.76 1742.96 1709.79C1679.21 1780.86 1601.59 1839.69 1515.39 1881.81C1429.27 1924.01 1334.48 1949.52 1238.09 1955.02C1214 1956.42 1189.84 1956.62 1165.71 1955.57C1141.58 1954.56 1117.5 1952.3 1093.58 1948.84C1045.74 1941.96 998.568 1930.29 952.935 1914.19C861.682 1881.98 776.629 1831.72 704.614 1766.66C668.562 1734.2 635.838 1698.02 606.985 1658.99C592.526 1639.49 579.168 1619.19 566.758 1598.35C554.384 1577.48 542.948 1556.04 532.716 1534.05C491.677 1446.16 468.089 1350.04 464.587 1253.22C460.964 1156.39 477.744 1059.2 512.483 969.509C529.855 924.65 551.668 881.648 577.281 841.2C590.094 820.979 603.885 801.408 618.586 782.583C633.236 763.718 648.831 745.625 665.175 728.278C730.6 658.888 809.105 602.512 895.077 562.208ZM896.484 565.202C875.136 575.34 854.258 586.467 834.009 598.639C813.804 610.878 794.144 624.02 775.296 638.237C737.561 666.611 702.788 698.853 671.77 734.278C656.231 751.964 641.674 770.482 628.044 789.62C614.465 808.798 601.847 828.623 590.24 848.994C567.01 889.729 547.957 932.704 533.18 976.97C503.622 1065.53 491.339 1159.26 496.598 1251.73C499.226 1297.97 506.229 1343.93 517.68 1388.74C529.185 1433.53 544.867 1477.24 564.686 1519.03C604.187 1602.65 659.809 1678.5 727.933 1741.03C796.013 1803.6 876.508 1852.77 963.537 1884.78C1050.56 1916.84 1143.93 1931.63 1236.86 1928.43C1283.32 1926.83 1329.7 1920.76 1375.12 1910.21C1420.53 1899.62 1465 1884.62 1507.68 1865.42C1550.31 1846.13 1591.21 1822.79 1629.32 1795.42C1667.45 1768.09 1702.85 1736.85 1734.73 1702.3C1798.52 1633.24 1848.13 1550.97 1879.47 1462.28C1910.88 1373.6 1923.77 1278.62 1917.61 1185.27C1914.57 1138.59 1906.92 1092.3 1894.82 1047.29C1882.74 1002.28 1866.36 958.513 1846.13 916.653C1835.99 895.736 1824.87 875.311 1812.88 855.435C1800.83 835.591 1787.94 816.272 1774.11 797.643C1746.48 760.376 1715.34 725.721 1681.18 694.319C1612.87 631.496 1532.66 581.385 1445.5 547.759C1401.94 530.935 1356.66 518.24 1310.45 510.15C1287.35 506.097 1264.02 503.172 1240.58 501.4C1217.14 499.691 1193.58 499.088 1170.04 499.778C1146.5 500.44 1122.97 502.293 1099.58 505.409C1076.19 508.454 1052.97 512.831 1030 518.301C1007.02 523.763 984.365 530.551 962.055 538.326C939.771 546.183 917.896 555.199 896.484 565.202Z" fill="#447EC0"/>
<path d="M1184.96 1824.06C1519.32 1824.06 1790.36 1553.01 1790.36 1218.66C1790.36 884.309 1519.32 613.262 1184.96 613.262C850.612 613.262 579.565 884.309 579.565 1218.66C579.565 1553.01 850.612 1824.06 1184.96 1824.06Z" fill="white"/>
<path d="M1182.74 1731.68C1466.08 1731.68 1695.76 1502 1695.76 1218.66C1695.76 935.329 1466.08 705.642 1182.74 705.642C899.411 705.642 669.724 935.329 669.724 1218.66C669.724 1502 899.411 1731.68 1182.74 1731.68Z" fill="white"/>
<path opacity="0.3" d="M1244.49 705.178L1269.46 708.854C1277.73 710.371 1285.96 712.122 1294.22 713.715C1296.29 714.073 1298.32 714.63 1300.37 715.129L1306.49 716.65L1318.74 719.693C1319.76 719.953 1320.78 720.187 1321.8 720.468L1324.82 721.382L1330.86 723.209L1342.95 726.833C1375.02 737.085 1406.12 750.438 1435.78 766.542L1438.58 768.008C1439.52 768.503 1440.41 769.064 1441.32 769.589L1446.78 772.791L1457.71 779.2L1460.44 780.803L1463.1 782.527L1468.4 785.994L1479.01 792.926L1481.67 794.658L1484.24 796.509L1489.38 800.214L1499.68 807.631C1501.42 808.837 1503.07 810.156 1504.72 811.482L1509.68 815.435L1519.62 823.348C1545.69 844.968 1569.74 869.147 1591.19 895.538C1612.55 921.985 1631.46 950.527 1647.19 980.796L1652.87 992.255L1655.7 997.994C1656.65 999.902 1657.6 1001.81 1658.41 1003.79L1663.52 1015.52L1666.07 1021.39L1667.34 1024.33L1668.48 1027.32L1672.97 1039.31L1675.21 1045.31L1676.33 1048.31L1677.3 1051.36L1681.2 1063.56C1682.46 1067.64 1683.92 1071.67 1684.91 1075.82C1694.19 1108.7 1700.12 1142.55 1702.53 1176.63C1704.96 1210.72 1703.89 1245.04 1699.45 1278.87C1694.9 1312.68 1687.03 1346.03 1675.94 1378.22C1664.81 1410.41 1650.52 1441.44 1633.33 1470.71C1599 1529.32 1553.23 1580.8 1499.8 1622.17C1473.06 1642.83 1444.36 1660.92 1414.25 1676.21C1384.13 1691.54 1352.48 1703.76 1319.99 1713.08L1307.74 1716.34C1303.65 1717.38 1299.6 1718.63 1295.44 1719.42L1283.04 1722.07C1278.9 1722.91 1274.79 1723.96 1270.6 1724.54L1258.09 1726.62C1253.91 1727.26 1249.76 1728.13 1245.54 1728.52L1232.94 1729.98L1226.63 1730.71L1223.47 1731.06L1220.31 1731.27C1186.57 1734.07 1152.52 1733.73 1118.77 1730.05C1051.33 1722.62 985.009 1702.13 925.33 1669C865.582 1636.03 812.594 1590.79 770.182 1537.13C748.99 1510.29 730.397 1481.37 714.817 1450.88C699.254 1420.39 686.681 1388.35 677.371 1355.36C668.02 1322.39 662.071 1288.45 659.503 1254.26C656.953 1220.06 657.839 1185.62 662.034 1151.61C670.574 1083.6 692.58 1017.25 726.829 957.977C728.813 954.185 731.22 950.637 733.443 946.984L740.228 936.097L741.925 933.377L743.742 930.735L747.394 925.463L754.697 914.926L756.535 912.301L758.492 909.763L762.407 904.688L770.236 894.546C771.51 892.832 772.897 891.208 774.29 889.589L778.442 884.713L786.761 874.981C809.434 849.452 834.72 826.341 861.896 805.88C889.124 785.473 918.334 767.845 948.876 753.173L960.435 747.898L966.211 745.263C968.132 744.375 970.055 743.494 972.037 742.745L983.826 738.039L989.716 735.688L992.66 734.514L995.658 733.476L1007.64 729.316L1013.62 727.234L1016.62 726.203L1019.66 725.309L1031.81 721.732L1037.89 719.946C1038.9 719.658 1039.9 719.329 1040.93 719.074L1044.01 718.33C1076.69 709.877 1110.1 704.449 1143.71 702.278L1156.33 701.695L1162.63 701.387L1165.78 701.234C1166.84 701.207 1167.89 701.229 1168.94 701.225L1181.56 701.245L1187.87 701.255C1189.98 701.267 1192.08 701.219 1194.18 701.375C1202.58 701.836 1210.99 702.138 1219.38 702.677L1244.49 705.178ZM1244.25 707.176C1177.7 699.093 1109.53 704.587 1045.48 723.623C981.344 742.431 921.526 774.57 870.135 816.422C818.72 858.317 775.74 909.986 743.804 967.587C727.839 996.392 714.627 1026.7 704.518 1058C694.442 1089.31 687.311 1121.57 683.376 1154.23C675.503 1219.54 680.318 1286.27 697.639 1349.73C714.94 1413.19 744.91 1473.21 785.176 1525.41C825.485 1577.6 876.102 1621.81 933.291 1654.94L944.117 1660.97C947.746 1662.95 951.282 1665.11 955.031 1666.85L966.148 1672.34C969.872 1674.14 973.512 1676.12 977.345 1677.68L988.715 1682.64C992.523 1684.26 996.25 1686.08 1000.15 1687.45L1011.76 1691.86L1017.57 1694.06L1020.48 1695.15L1023.43 1696.11C1054.76 1706.89 1087.19 1714.58 1120.12 1719.11C1185.95 1728.05 1253.79 1724.09 1318.16 1706.49C1382.55 1689.05 1443.43 1658.43 1495.8 1617.05C1548.21 1575.69 1591.89 1523.57 1623.67 1465.24C1655.5 1406.91 1675.39 1342.48 1682.78 1276.82C1690.15 1211.14 1685.13 1144.26 1667.71 1080.6C1650.34 1016.96 1620.95 956.485 1581.08 903.436C1561.15 876.927 1538.65 852.257 1513.86 830.022L1504.41 821.863L1499.68 817.779C1498.11 816.409 1496.53 815.045 1494.87 813.793L1485.02 806.092L1480.1 802.238L1477.63 800.31L1475.08 798.501L1464.85 791.309L1459.72 787.714L1457.15 785.924L1454.51 784.254L1443.92 777.572L1438.62 774.228C1437.73 773.679 1436.87 773.094 1435.96 772.575L1433.23 771.036C1375.66 737.084 1310.79 715.311 1244.25 707.176Z" fill="#447EC0"/>
<path opacity="0.3" d="M825.288 1466.58C790.145 1420.4 763.693 1367.63 747.999 1311.58C746.874 1308.11 746.151 1304.55 745.238 1301.02L742.625 1290.42L741.971 1287.77L741.439 1285.1L740.392 1279.74L738.289 1269.01L737.762 1266.33L737.36 1263.63L736.555 1258.23L734.946 1247.41C734.644 1245.61 734.466 1243.8 734.294 1241.98L733.751 1236.54L732.665 1225.65C730.341 1196.55 730.82 1167.17 734.221 1138.07C737.701 1108.99 743.959 1080.17 753.172 1052.28L756.823 1041.88L758.66 1036.69C759.263 1034.95 759.873 1033.22 760.599 1031.53L764.768 1021.33L766.854 1016.23L767.898 1013.68L769.059 1011.18L773.75 1001.2L776.098 996.206L777.28 993.715L778.572 991.279L783.746 981.537C785.505 978.309 787.106 974.99 789.074 971.879C803.753 946.382 821.036 922.37 840.578 900.37C860.084 878.332 881.942 858.429 905.39 840.726C928.929 823.134 954.205 807.899 980.699 795.319C1007.21 782.768 1034.92 772.858 1063.31 765.785C1091.69 758.733 1120.71 754.375 1149.85 752.928C1178.98 751.392 1208.23 752.685 1237.08 756.73C1265.93 760.76 1294.37 767.557 1321.94 776.917C1349.52 786.264 1376.13 798.423 1401.43 812.858L1410.82 818.454C1413.92 820.351 1417.13 822.099 1420.12 824.186L1429.22 830.239C1432.23 832.287 1435.35 834.192 1438.23 836.426L1447.04 842.9C1449.95 845.089 1452.99 847.128 1455.76 849.495L1464.25 856.398L1468.49 859.851L1470.61 861.585L1472.64 863.415C1494.67 882.549 1514.94 903.767 1532.96 926.8C1568.93 972.888 1596.16 1026.12 1611.61 1082.84C1627.21 1139.51 1631.19 1199.37 1623.63 1257.78C1619.83 1286.98 1613.19 1315.83 1603.78 1343.76C1594.35 1371.69 1582.17 1398.71 1567.45 1424.28C1552.75 1449.86 1535.43 1473.94 1515.91 1496.09C1496.39 1518.22 1474.65 1538.4 1451.18 1556.28C1404.17 1591.94 1350.08 1618.32 1292.98 1632.93C1289.45 1633.99 1285.81 1634.65 1282.23 1635.48L1271.44 1637.86L1268.75 1638.45L1266.03 1638.93L1260.58 1639.85L1249.7 1641.71L1246.98 1642.15L1244.23 1642.48L1238.75 1643.12L1227.79 1644.4C1225.97 1644.64 1224.14 1644.77 1222.3 1644.88L1216.8 1645.26L1205.8 1646.01C1176.44 1647.49 1146.97 1645.85 1118 1641.48C1089.03 1637.03 1060.56 1629.7 1033.11 1619.75L1022.89 1615.82L1017.78 1613.85C1016.08 1613.21 1014.37 1612.56 1012.72 1611.79L1002.71 1607.37L997.708 1605.17L995.209 1604.06L992.762 1602.84L982.975 1597.98L978.083 1595.55L975.642 1594.33L973.257 1592.99L963.723 1587.67C960.567 1585.85 957.317 1584.21 954.272 1582.21C904.359 1552.24 860.462 1512.73 825.288 1466.58ZM826.546 1465.62C861.665 1511.56 906.113 1550.34 956.44 1578.48C1006.68 1606.79 1062.55 1624.46 1119.4 1631.06C1147.84 1634.38 1176.53 1634.82 1204.98 1632.71L1215.63 1631.69L1220.95 1631.18C1222.72 1631.02 1224.5 1630.86 1226.26 1630.57L1236.84 1629.04L1242.12 1628.27L1244.77 1627.89L1247.39 1627.39L1257.88 1625.39L1263.13 1624.39L1265.75 1623.88L1268.34 1623.25L1278.72 1620.75L1283.91 1619.5C1285.64 1619.12 1287.35 1618.62 1289.06 1618.11C1316.5 1610.61 1343.22 1600.49 1368.67 1587.85C1394.12 1575.19 1418.36 1560.13 1440.93 1542.85C1486.06 1508.28 1524.41 1465.01 1553.15 1415.98C1581.91 1366.95 1600.89 1312.18 1608.81 1255.78C1616.7 1199.37 1613.44 1141.4 1599.34 1086.09L1596.52 1075.76C1595.55 1072.33 1594.74 1068.84 1593.56 1065.47L1590.23 1055.29C1589.09 1051.91 1588.11 1048.47 1586.76 1045.16L1582.96 1035.15C1581.65 1031.82 1580.52 1028.42 1579.01 1025.18L1574.71 1015.36L1572.57 1010.44L1571.48 1007.99L1570.29 1005.59C1558.01 979.75 1543.16 955.098 1526.08 932.053C1491.83 886.046 1448.43 846.607 1398.73 817.504C1349.12 788.3 1293.52 769.196 1236.4 761.787C1207.83 758.134 1178.92 757.344 1150.25 759.403C1121.58 761.544 1093.14 766.456 1065.54 774.223C1010.28 789.667 958.449 816.194 913.375 851.195C868.298 886.225 830.019 929.742 801.2 978.921C772.382 1028.08 752.827 1082.78 744.208 1139.42C735.6 1196.02 737.884 1254.59 751.921 1310.54C765.765 1366.53 791.462 1419.65 826.546 1465.62Z" fill="white"/>
<path d="M1184.96 1589.77C1400.75 1589.77 1575.68 1414.84 1575.68 1199.05C1575.68 983.256 1400.75 808.323 1184.96 808.323C969.171 808.323 794.239 983.256 794.239 1199.05C794.239 1414.84 969.171 1589.77 1184.96 1589.77Z" fill="white"/>
<path d="M1377.42 908.74C1221.94 790.637 1005.16 815.931 893.234 965.237C781.309 1114.54 816.62 1331.32 972.104 1449.42C1127.59 1567.53 1344.37 1542.23 1456.29 1392.93C1568.22 1243.62 1532.9 1026.84 1377.42 908.74Z" fill="white"/>
<path opacity="0.3" d="M938.343 916.612C971.149 887.036 1010.05 864.175 1052.28 849.987C1094.46 835.718 1139.85 829.861 1185.11 833.052C1207.73 834.68 1230.32 838.371 1252.45 844.281C1274.58 850.177 1296.24 858.233 1317.02 868.319C1358.61 888.456 1396.53 916.854 1428.04 951.197C1459.53 985.558 1484.63 1025.87 1501.16 1069.27C1517.73 1112.64 1525.89 1158.99 1524.81 1204.8C1523.67 1250.58 1513.56 1295.81 1494.88 1336.93C1476.21 1378.05 1449.07 1414.97 1415.75 1445.05C1382.33 1475.01 1342.7 1498.1 1299.77 1512.37C1256.84 1526.69 1210.7 1532.01 1164.93 1528.4C1119.14 1524.77 1073.78 1511.84 1032.25 1490.92C990.688 1470.01 953.09 1440.93 922.093 1406.12C891.116 1371.29 866.73 1330.72 850.962 1287.37C843.058 1265.7 837.27 1243.37 833.685 1220.8C830.08 1198.23 828.754 1175.43 829.472 1152.81C830.98 1107.57 841.517 1063.15 860.118 1022.77C878.637 982.333 905.458 946.102 938.343 916.612ZM938.343 916.612C905.558 946.213 878.88 982.517 860.518 1022.96C842.128 1063.4 832.202 1107.89 831.083 1152.93C830.013 1198 838.059 1243.58 854.355 1286.23C870.624 1328.91 895.306 1368.55 926.291 1402.35C957.303 1436.13 994.587 1464.04 1035.48 1483.83C1055.92 1493.75 1077.23 1501.67 1098.99 1507.46C1120.75 1513.26 1142.97 1516.9 1165.22 1518.5C1187.47 1520.04 1209.76 1519.41 1231.66 1516.61C1253.58 1513.82 1275.08 1508.8 1295.83 1501.84C1337.36 1487.89 1375.59 1465.4 1407.87 1436.33C1440.22 1407.32 1466.59 1371.7 1484.8 1331.94C1503.1 1292.25 1513.46 1248.55 1514.95 1204.06C1516.48 1159.58 1509.42 1114.34 1493.83 1071.73C1478.33 1029.09 1454.36 989.207 1423.89 954.936C1393.39 920.689 1356.43 892.093 1315.56 871.532C1274.72 850.949 1230.1 838.238 1185.06 834.647C1140.04 831.095 1094.65 836.334 1052.43 850.402C1010.21 864.433 971.249 887.146 938.343 916.612Z" fill="white"/>
<path d="M1174.88 1501.18C1348 1501.18 1488.34 1360.84 1488.34 1187.72C1488.34 1014.61 1348 874.266 1174.88 874.266C1001.76 874.266 861.424 1014.61 861.424 1187.72C861.424 1360.84 1001.76 1501.18 1174.88 1501.18Z" fill="white"/>
<path opacity="0.3" d="M1488.34 1187.72C1488.37 1228.76 1480.35 1269.81 1464.64 1307.74C1449 1345.7 1425.87 1380.57 1396.88 1409.73C1367.92 1438.88 1333.26 1462.45 1295.28 1478.39C1257.33 1494.41 1216.15 1502.74 1174.88 1502.97C1133.62 1503.18 1092.26 1495.29 1053.97 1479.62C1015.68 1464 980.466 1440.75 951.051 1411.56C921.669 1382.34 897.998 1347.33 882.058 1309.02C866.092 1270.71 857.891 1229.22 857.832 1187.72C857.877 1146.23 866.089 1104.73 882.052 1066.43C897.972 1028.11 921.661 993.101 951.04 963.883C980.444 934.671 1015.68 911.432 1053.97 895.806C1092.25 880.138 1133.61 872.251 1174.88 872.46C1216.15 872.698 1257.33 881.031 1295.28 897.044C1333.27 912.99 1367.93 936.557 1396.89 965.72C1425.87 994.875 1449 1029.75 1464.64 1067.71C1480.35 1105.64 1488.37 1146.69 1488.34 1187.72ZM1488.34 1187.72C1488.28 1146.69 1480.17 1105.68 1464.39 1067.81C1448.64 1029.93 1425.22 995.318 1396.17 966.433C1367.09 937.563 1332.27 914.585 1294.41 899.142C1256.57 883.658 1215.69 875.864 1174.88 876.073C1134.08 876.311 1093.38 884.551 1055.86 900.381C1018.32 916.142 984.063 939.449 955.426 968.269C926.773 997.092 903.916 1031.57 888.448 1069.08C872.913 1106.58 864.999 1147.15 865.015 1187.72C864.985 1228.3 872.91 1268.87 888.442 1306.37C903.89 1343.89 926.765 1378.37 955.415 1407.19C984.041 1436.03 1018.31 1459.32 1055.86 1475.09C1093.37 1490.92 1134.07 1499.16 1174.88 1499.39C1215.69 1499.6 1256.57 1491.81 1294.42 1476.32C1332.27 1460.87 1367.1 1437.9 1396.18 1409.02C1425.23 1380.13 1448.64 1345.52 1464.39 1307.64C1480.17 1269.77 1488.28 1228.76 1488.34 1187.72Z" fill="#447EC0"/>
<path d="M902.208 1045.31C832.124 1179.75 892.008 1353.26 1035.96 1432.86C1179.92 1512.45 1353.43 1467.99 1423.51 1333.55C1493.6 1199.11 1433.71 1025.6 1289.76 946C1145.8 866.404 972.291 910.866 902.208 1045.31Z" fill="white"/>
<path d="M1036.02 1432.83C1001.87 1414.01 970.958 1388.92 945.747 1359.29C920.499 1329.69 900.945 1295.63 888.475 1259.72C876.007 1223.82 870.448 1186.08 872.597 1149.27C874.671 1112.46 884.434 1076.68 900.955 1044.55C917.499 1012.44 940.802 983.993 969.318 961.507C997.802 938.999 1031.36 922.365 1067.52 913C1103.68 903.664 1142.33 901.472 1180.57 906.699C1218.82 911.874 1256.59 924.534 1291.09 943.518C1325.52 962.625 1356.63 988.067 1381.96 1018.04C1407.32 1047.98 1426.89 1082.37 1439.32 1118.57C1451.74 1154.78 1456.8 1192.79 1454.33 1229.67C1451.89 1266.58 1441.73 1302.3 1424.89 1334.25C1408.02 1366.18 1384.45 1394.33 1355.8 1416.45C1327.19 1438.63 1293.58 1454.71 1257.63 1463.84C1221.68 1472.98 1183.31 1475 1145.41 1469.69C1107.49 1464.42 1070.12 1451.74 1036.02 1432.83ZM1036.02 1432.83C1070.18 1451.62 1107.57 1464.15 1145.43 1469.27C1183.29 1474.45 1221.55 1472.28 1257.35 1463.03C1293.16 1453.77 1326.38 1437.29 1354.58 1415.01C1382.8 1392.74 1405.87 1364.58 1422.25 1332.79C1438.6 1300.98 1448.26 1265.56 1450.31 1229.12C1452.44 1192.68 1446.93 1155.33 1434.59 1119.78C1422.24 1084.23 1402.88 1050.52 1377.89 1021.22C1352.94 991.879 1322.34 967.069 1288.54 948.417C1254.77 929.688 1217.78 917.142 1180.25 911.927C1142.72 906.662 1104.74 908.669 1069.15 917.714C1033.55 926.742 1000.28 942.669 971.964 964.623C943.603 986.52 920.277 1014.38 903.57 1046C886.889 1077.63 876.841 1112.99 874.42 1149.52C871.969 1186.04 876.985 1223.66 889.276 1259.52C901.576 1295.36 920.959 1329.4 946.064 1359.04C971.132 1388.72 1001.93 1413.89 1036.02 1432.83Z" fill="#F7FCFF"/>
</svg>
