<svg width="1440" height="1168" viewBox="0 0 1440 1168" fill="none" xmlns="http://www.w3.org/2000/svg">
<g filter="url(#filter0_d_321_1270)">
<path fill-rule="evenodd" clip-rule="evenodd" d="M80 132C80 98.8629 106.863 72 140 72H444C477.137 72 504 98.8629 504 132V300C504 322.091 521.909 340 544 340H896C918.091 340 936 322.091 936 300V132C936 98.8629 962.863 72 996 72H1300C1333.14 72 1360 98.8629 1360 132V400V552V1020C1360 1053.14 1333.14 1080 1300 1080H140C106.863 1080 80 1053.14 80 1020V555V400V132Z" fill="white"/>
</g>
<defs>
<filter id="filter0_d_321_1270" x="0" y="0" width="1440" height="1168" filterUnits="userSpaceOnUse" color-interpolation-filters="sRGB">
<feFlood flood-opacity="0" result="BackgroundImageFix"/>
<feColorMatrix in="SourceAlpha" type="matrix" values="0 0 0 0 0 0 0 0 0 0 0 0 0 0 0 0 0 0 127 0" result="hardAlpha"/>
<feOffset dy="8"/>
<feGaussianBlur stdDeviation="40"/>
<feComposite in2="hardAlpha" operator="out"/>
<feColorMatrix type="matrix" values="0 0 0 0 0.343802 0 0 0 0 0.347436 0 0 0 0 0.670833 0 0 0 0.1 0"/>
<feBlend mode="normal" in2="BackgroundImageFix" result="effect1_dropShadow_321_1270"/>
<feBlend mode="normal" in="SourceGraphic" in2="effect1_dropShadow_321_1270" result="shape"/>
</filter>
</defs>
</svg>
