<svg width="538" height="459" viewBox="0 0 538 459" fill="none" xmlns="http://www.w3.org/2000/svg">
<path d="M15.5459 205.82L40.5206 190.844C41.9901 189.962 43.4314 189.725 44.8444 190.132C46.2824 190.545 47.4982 191.58 48.492 193.237C49.4858 194.894 49.8262 196.454 49.5132 197.917C49.2002 199.38 48.3167 200.548 46.8628 201.42L40.156 205.442L56.5679 209.947C56.7429 209.991 56.9696 210.068 57.2478 210.177C57.526 210.287 57.9996 210.598 58.6685 211.111C59.3374 211.624 59.8827 212.232 60.3046 212.935C61.1671 214.374 61.4153 215.798 61.0492 217.208C60.7081 218.624 59.8184 219.763 58.3801 220.626C57.6766 221.047 56.9059 221.286 56.0681 221.343C55.2396 221.414 54.5909 221.378 54.122 221.234L53.3811 221.009L42.8728 218.16L37.4484 232.508C37.3452 232.761 37.206 233.079 37.0308 233.46C36.8651 233.857 36.4991 234.47 35.9331 235.298C35.3827 236.117 34.826 236.695 34.2632 237.033C32.8093 237.905 31.3634 238.134 29.9254 237.721C28.5124 237.314 27.309 236.282 26.3153 234.625C26.0152 234.125 25.8012 233.573 25.6732 232.97C25.5389 232.391 25.4812 231.852 25.5001 231.352C25.5283 230.867 25.5706 230.406 25.627 229.968C25.6928 229.546 25.7694 229.213 25.857 228.97L25.965 228.618L31.3894 214.27L27.4224 213.078L21.8881 216.396C20.4342 217.268 18.9882 217.498 17.5502 217.085C16.1279 216.662 14.9198 215.623 13.9261 213.965C12.9323 212.308 12.5841 210.753 12.8814 209.299C13.2038 207.852 14.0919 206.692 15.5459 205.82Z" fill="#2D2E87"/>
<path d="M35.8812 239.332C36.2589 239.016 36.8396 238.674 37.6233 238.304C38.4327 237.936 39.1372 237.656 39.7368 237.464L40.6572 237.158L64.4532 228.963C66.7605 228.199 68.8142 228.027 70.6143 228.447C72.426 228.881 74.1852 230.119 75.8917 232.161C77.6099 234.218 78.5146 236.182 78.6058 238.053C78.7227 239.927 78.1955 241.912 77.0243 244.007L64.7123 265.947C63.5855 268.124 62.5955 269.569 61.7422 270.282C60.5392 271.287 59.151 271.687 57.5776 271.481C56.0042 271.275 54.6447 270.487 53.4993 269.116C51.6291 266.878 51.6241 263.972 53.4842 260.399L55.1534 257.151L47.6142 248.128L44.1392 249.215C40.292 250.41 37.4274 249.882 35.5456 247.63C34.4001 246.259 33.866 244.781 33.9432 243.196C34.0322 241.625 34.6781 240.337 35.8812 239.332ZM56.9699 243.589L61.283 248.751L65.761 241.018L65.3928 240.578L56.9699 243.589Z" fill="#2D2E87"/>
<path d="M64.9445 273.138L83.7287 251.606C84.8552 250.314 86.1532 249.645 87.6227 249.596C89.118 249.546 90.5937 250.156 92.0498 251.426L100.498 258.796C102.558 260.593 104.18 262.492 105.363 264.491C106.571 266.489 107.305 268.435 107.563 270.33C107.833 272.211 107.712 274.028 107.198 275.781C106.685 277.534 105.805 279.125 104.558 280.554C103.312 281.983 101.855 283.07 100.188 283.817C98.5204 284.564 96.7306 284.938 94.8186 284.939C92.9185 284.926 90.8908 284.464 88.7356 283.551C86.6061 282.637 84.5111 281.281 82.4506 279.483L78.6593 276.176L74.2374 281.245C73.1229 282.522 71.818 283.186 70.3227 283.236C68.8394 283.273 67.3697 282.656 65.9137 281.386C64.4576 280.116 63.647 278.743 63.4819 277.269C63.3425 275.792 63.83 274.415 64.9445 273.138ZM85.2922 268.573L89.0835 271.88C90.1 272.767 91.1451 273.219 92.2186 273.236C93.3041 273.24 94.1824 272.857 94.8535 272.088C95.5246 271.318 95.7787 270.403 95.6159 269.342C95.4651 268.267 94.8815 267.286 93.865 266.399L90.0736 263.092L85.2922 268.573Z" fill="#2D2E87"/>
<path d="M108.177 278.263C107.817 276.825 108.096 275.382 109.015 273.936C109.934 272.49 111.116 271.632 112.562 271.363C114.033 271.088 115.583 271.469 117.214 272.505L138.007 285.719C139.638 286.756 140.641 287.998 141.017 289.446C141.392 290.895 141.125 292.334 140.216 293.765C139.307 295.196 138.117 296.049 136.646 296.324C135.176 296.598 133.625 296.218 131.994 295.181L126.802 291.881L114.482 311.267C113.573 312.697 112.383 313.55 110.912 313.825C109.466 314.095 107.928 313.711 106.297 312.675C104.667 311.638 103.659 310.404 103.273 308.971C102.913 307.532 103.188 306.098 104.097 304.667L116.417 285.282L111.201 281.967C109.57 280.931 108.562 279.696 108.177 278.263Z" fill="#2D2E87"/>
<path d="M127.849 319.595C128.048 319.145 128.418 318.581 128.957 317.903C129.52 317.215 130.028 316.652 130.481 316.215L131.171 315.534L148.889 297.659C150.621 295.954 152.387 294.891 154.187 294.472C156.004 294.06 158.129 294.392 160.563 295.469C163.014 296.554 164.694 297.915 165.603 299.554C166.537 301.183 166.942 303.196 166.818 305.593L165.478 330.716C165.43 333.166 165.181 334.9 164.731 335.917C164.097 337.351 163.028 338.323 161.526 338.834C160.024 339.346 158.456 339.24 156.823 338.517C154.155 337.337 152.866 334.733 152.954 330.705L153.015 327.054L142.263 322.296L139.626 324.807C136.704 327.581 133.902 328.374 131.218 327.186C129.584 326.463 128.451 325.374 127.82 323.918C127.205 322.47 127.215 321.029 127.849 319.595ZM148.646 314.087L154.797 316.809L155.394 307.893L154.869 307.661L148.646 314.087Z" fill="#2D2E87"/>
<path d="M181.871 341.155C181.968 340.673 182.206 340.042 182.586 339.263C182.987 338.47 183.361 337.81 183.708 337.285L184.235 336.471L197.662 315.184C198.983 313.144 200.477 311.724 202.144 310.925C203.829 310.129 205.976 309.994 208.585 310.518C211.212 311.047 213.147 312.012 214.39 313.415C215.654 314.803 216.485 316.681 216.883 319.048L221.015 343.864C221.498 346.267 221.631 348.014 221.412 349.104C221.103 350.641 220.27 351.822 218.915 352.646C217.559 353.471 216.005 353.707 214.254 353.355C211.394 352.78 209.572 350.517 208.785 346.566L208.054 342.988L196.527 340.671L194.497 343.693C192.245 347.034 189.68 348.415 186.803 347.836C185.052 347.484 183.71 346.666 182.778 345.382C181.864 344.101 181.562 342.692 181.871 341.155ZM200.982 331.275L207.576 332.6L206.228 323.767L205.665 323.654L200.982 331.275Z" fill="#2D2E87"/>
<path d="M225.949 349.296L227.119 320.198C227.188 318.486 227.78 317.151 228.895 316.192C230.028 315.216 231.561 314.767 233.491 314.845C235.422 314.922 236.914 315.493 237.965 316.557C239.017 317.621 239.509 319 239.441 320.694L239.127 328.508L251.894 317.254C252.027 317.131 252.215 316.984 252.459 316.811C252.703 316.639 253.223 316.413 254.019 316.135C254.814 315.857 255.622 315.734 256.442 315.767C258.117 315.835 259.444 316.408 260.423 317.487C261.42 318.549 261.885 319.918 261.817 321.594C261.784 322.413 261.562 323.189 261.149 323.92C260.755 324.652 260.369 325.175 259.992 325.488L259.397 325.984L251.252 333.21L260.277 345.614C260.432 345.839 260.621 346.129 260.844 346.485C261.085 346.841 261.397 347.483 261.779 348.411C262.162 349.32 262.34 350.102 262.314 350.758C262.246 352.452 261.645 353.787 260.511 354.763C259.396 355.722 257.873 356.162 255.943 356.085C255.36 356.061 254.781 355.938 254.206 355.714C253.649 355.509 253.166 355.261 252.758 354.971C252.368 354.682 252.006 354.394 251.671 354.107C251.354 353.82 251.118 353.574 250.962 353.367L250.727 353.084L241.702 340.68L238.53 343.343L238.271 349.791C238.203 351.485 237.602 352.82 236.468 353.796C235.335 354.754 233.803 355.194 231.872 355.117C229.941 355.039 228.45 354.477 227.397 353.432C226.364 352.368 225.881 350.99 225.949 349.296Z" fill="#2D2E87"/>
<path d="M268.695 349.62L265.318 321.824C265.148 320.119 265.536 318.703 266.483 317.578C267.427 316.435 268.85 315.748 270.75 315.517L281.879 314.165C287.416 313.493 291.601 313.93 294.433 315.477C297.266 317.024 298.872 319.363 299.252 322.494C299.349 323.29 299.323 324.056 299.173 324.79C299.042 325.522 298.825 326.154 298.522 326.687C298.22 327.219 297.876 327.72 297.493 328.189C297.127 328.656 296.743 329.042 296.339 329.349C295.935 329.655 295.564 329.92 295.224 330.145C294.882 330.352 294.606 330.505 294.398 330.603L294.058 330.755L294.124 331.298C294.235 331.303 294.393 331.32 294.599 331.35C294.823 331.378 295.228 331.467 295.816 331.616C296.421 331.762 297.003 331.94 297.56 332.147C298.118 332.355 298.745 332.674 299.44 333.104C300.153 333.531 300.772 334.016 301.296 334.558C301.84 335.098 302.32 335.802 302.737 336.669C303.171 337.516 303.449 338.447 303.572 339.46C303.772 341.107 303.62 342.65 303.115 344.088C302.629 345.524 301.789 346.848 300.595 348.058C299.418 349.247 297.778 350.264 295.677 351.107C293.576 351.95 291.105 352.544 288.264 352.889L275.479 354.442C273.561 354.675 271.998 354.36 270.791 353.497C269.601 352.613 268.902 351.321 268.695 349.62ZM280.466 344.251L287.116 343.443C288.328 343.295 289.243 342.89 289.861 342.228C290.494 341.545 290.758 340.769 290.652 339.9C290.547 339.032 290.106 338.351 289.33 337.858C288.572 337.362 287.586 337.188 286.374 337.335L279.724 338.143L280.466 344.251ZM278.642 329.24L283.637 328.633C284.704 328.503 285.499 328.168 286.021 327.627C286.543 327.086 286.76 326.454 286.672 325.73C286.584 325.006 286.222 324.444 285.586 324.044C284.949 323.644 284.097 323.509 283.03 323.639L278.035 324.245L278.642 329.24Z" fill="#2D2E87"/>
<path d="M307.042 345.286C306.905 344.813 306.826 344.144 306.803 343.278C306.793 342.389 306.82 341.631 306.886 341.005L306.977 340.039L309.063 314.958C309.293 312.538 309.963 310.59 311.073 309.111C312.2 307.628 314.042 306.517 316.599 305.778C319.173 305.034 321.336 304.997 323.085 305.668C324.848 306.316 326.452 307.598 327.897 309.514L343.017 329.622C344.555 331.53 345.479 333.018 345.788 334.087C346.223 335.593 346.03 337.024 345.208 338.381C344.385 339.739 343.116 340.665 341.4 341.161C338.598 341.971 335.937 340.805 333.415 337.663L331.115 334.827L319.82 338.092L319.414 341.71C318.958 345.713 317.321 348.122 314.501 348.937C312.785 349.433 311.217 349.326 309.798 348.617C308.396 347.902 307.477 346.792 307.042 345.286ZM319.435 327.7L325.897 325.832L320.624 318.618L320.072 318.778L319.435 327.7Z" fill="#2D2E87"/>
<path d="M349.935 332.224L337.656 306.423C336.919 304.876 336.821 303.418 337.362 302.051C337.911 300.659 339.057 299.548 340.802 298.717L362.06 288.6C363.805 287.77 365.382 287.584 366.792 288.044C368.211 288.479 369.288 289.47 370.025 291.018L382.304 316.819C383.033 318.35 383.122 319.811 382.573 321.203C382.033 322.57 380.891 323.669 379.146 324.5C377.401 325.33 375.819 325.528 374.401 325.092C372.975 324.641 371.897 323.649 371.169 322.118L361.298 301.379L351.2 306.185L361.07 326.924C361.799 328.455 361.889 329.917 361.34 331.308C360.783 332.684 359.632 333.787 357.888 334.617C356.143 335.447 354.561 335.645 353.143 335.21C351.733 334.75 350.664 333.755 349.935 332.224Z" fill="#2D2E87"/>
<path d="M388.674 313.196C388.392 312.793 388.1 312.185 387.798 311.373C387.5 310.535 387.281 309.81 387.14 309.196L386.913 308.253L380.764 283.848C380.199 281.484 380.201 279.423 380.773 277.665C381.359 275.897 382.742 274.249 384.921 272.722C387.116 271.184 389.149 270.449 391.022 270.517C392.899 270.559 394.832 271.253 396.82 272.597L417.637 286.725C419.711 288.032 421.067 289.141 421.705 290.052C422.604 291.336 422.885 292.753 422.547 294.303C422.209 295.853 421.308 297.141 419.845 298.166C417.456 299.84 414.56 299.598 411.157 297.442L408.063 295.504L398.434 302.251L399.222 305.805C400.087 309.74 399.317 312.55 396.914 314.234C395.451 315.259 393.933 315.666 392.36 315.454C390.803 315.233 389.574 314.48 388.674 313.196ZM394.704 292.544L400.213 288.684L392.887 283.567L392.417 283.896L394.704 292.544Z" fill="#2D2E87"/>
<path d="M424.764 287.012L404.825 266.544C403.63 265.317 403.067 263.969 403.138 262.5C403.209 261.006 403.937 259.584 405.321 258.236L413.352 250.413C415.31 248.505 417.334 247.043 419.423 246.026C421.512 244.984 423.511 244.41 425.42 244.306C427.317 244.19 429.118 244.458 430.824 245.112C432.53 245.766 434.044 246.772 435.367 248.13C436.69 249.488 437.656 251.029 438.265 252.751C438.874 254.474 439.102 256.288 438.948 258.194C438.781 260.086 438.156 262.07 437.072 264.144C435.988 266.192 434.466 268.171 432.508 270.078L428.904 273.589L433.597 278.408C434.78 279.622 435.336 280.976 435.265 282.471C435.181 283.952 434.447 285.367 433.063 286.715C431.679 288.064 430.245 288.76 428.762 288.805C427.279 288.824 425.946 288.227 424.764 287.012ZM421.863 266.362L425.467 262.851C426.434 261.91 426.969 260.905 427.073 259.836C427.165 258.754 426.854 257.848 426.142 257.117C425.43 256.386 424.538 256.058 423.467 256.134C422.383 256.197 421.358 256.7 420.392 257.641L416.788 261.151L421.863 266.362Z" fill="#2D2E87"/>
<path d="M454.547 256.97L431.133 239.656C429.755 238.637 428.983 237.397 428.816 235.936C428.646 234.45 429.135 232.93 430.284 231.376C431.433 229.822 432.743 228.909 434.214 228.637C435.685 228.365 437.102 228.732 438.465 229.74L444.753 234.39L442.615 217.506C442.589 217.327 442.572 217.089 442.567 216.79C442.561 216.491 442.667 215.934 442.883 215.119C443.1 214.305 443.453 213.568 443.94 212.908C444.938 211.56 446.157 210.784 447.6 210.581C449.038 210.353 450.432 210.737 451.78 211.734C452.44 212.222 452.956 212.842 453.33 213.594C453.714 214.332 453.929 214.944 453.976 215.433L454.053 216.203L455.455 227L470.786 226.503C471.06 226.501 471.406 226.508 471.825 226.523C472.256 226.524 472.962 226.627 473.944 226.832C474.911 227.026 475.659 227.318 476.187 227.708C477.55 228.716 478.316 229.963 478.487 231.449C478.654 232.91 478.162 234.418 477.014 235.971C476.667 236.44 476.239 236.85 475.731 237.199C475.249 237.545 474.773 237.806 474.304 237.98C473.845 238.14 473.403 238.278 472.977 238.394C472.563 238.495 472.226 238.552 471.967 238.565L471.601 238.6L456.269 239.097L456.691 243.218L461.88 247.055C463.243 248.063 464.009 249.31 464.18 250.797C464.336 252.272 463.839 253.787 462.69 255.34C461.541 256.894 460.239 257.812 458.782 258.096C457.322 258.354 455.91 257.978 454.547 256.97Z" fill="#2D2E87"/>
<path d="M477.694 225.246C477.257 225.019 476.717 224.616 476.073 224.036C475.421 223.432 474.891 222.89 474.482 222.411L473.844 221.681L457.09 202.899C455.494 201.066 454.542 199.239 454.234 197.416C453.934 195.577 454.396 193.476 455.621 191.113C456.853 188.734 458.315 187.141 460.007 186.333C461.69 185.501 463.724 185.221 466.109 185.492L491.102 188.37C493.545 188.568 495.26 188.923 496.248 189.435C497.64 190.156 498.545 191.282 498.963 192.812C499.381 194.343 499.18 195.901 498.358 197.488C497.016 200.077 494.338 201.205 490.323 200.87L486.683 200.585L481.274 211.025L483.619 213.811C486.208 216.897 486.827 219.743 485.477 222.349C484.655 223.935 483.499 224.999 482.007 225.54C480.524 226.065 479.086 225.967 477.694 225.246ZM473.472 204.15L476.567 198.177L467.704 197.035L467.44 197.545L473.472 204.15Z" fill="#2D2E87"/>
</svg>
