<svg width="254" height="289" viewBox="0 0 254 289" fill="none" xmlns="http://www.w3.org/2000/svg">
<path opacity="0.5" fill-rule="evenodd" clip-rule="evenodd" d="M199.568 0.775201C211.968 -0.162252 217.094 16.1915 206.335 22.3617C195.563 28.5394 184.159 16.3155 190.883 5.79992C192.505 3.26369 196.391 1.01508 199.568 0.775201ZM193.546 5.80071C189.711 9.84475 190.301 16.8083 194.75 20.0255C203.284 26.195 214.014 16.7177 208.773 7.64009C205.468 1.91496 198.077 1.02208 193.546 5.80071ZM200.575 3.99907C205.211 3.54507 209.33 7.50107 208.583 11.6903L208.388 12.7819L208.133 11.5264C207.452 8.19014 201.19 3.70061 198.989 4.97121C198.766 5.10037 198.413 5.11466 198.206 5.00325C197.613 4.68454 198.826 4.17024 200.575 3.99907ZM11.6403 116.701C21.0908 113.729 30.9071 119.694 32.5238 129.389C35.3467 146.32 12.9853 155.256 3.23508 141.093C-2.80427 132.321 1.47715 119.896 11.6403 116.701ZM5.80272 124.22C-2.4813 135.866 10.8924 150.675 23.2504 143.541C33.2369 137.775 31.6139 122.883 20.6122 119.335C15.2448 117.604 9.05678 119.645 5.80272 124.22ZM13.294 120.747C14.7631 120.478 16.8928 120.59 17.9828 120.993C18.5127 121.188 18.2172 121.32 16.5392 121.636C11.2166 122.637 6.67796 127.327 6.11143 132.411C5.88787 134.416 5.40033 134.149 5.10716 131.86C4.47194 126.904 8.34114 121.652 13.294 120.747ZM157.273 46.5187C172.101 42.158 186.26 55.8473 182.291 70.7062C177.7 87.8908 154.599 91.126 145.789 75.8187C139.26 64.4759 144.869 50.1669 157.273 46.5187ZM149.349 56.4336C142.885 66.1175 147.791 78.9362 159.002 81.6516C174.719 85.4585 186.074 66.6938 175.313 54.6962C168.189 46.7534 155.233 47.6204 149.349 56.4336ZM159.3 51.1585C162.799 50.4201 167.44 51.4902 169.84 53.5893L171.181 54.7619L168.272 54.0573C161.798 52.4894 154.966 54.9174 151.417 60.047C150.142 61.8897 149.862 62.1524 149.843 61.5266C149.723 57.7429 154.878 52.0911 159.3 51.1585ZM195.893 41.3525C208.708 39.2012 215.011 55.9827 203.815 62.4464C193.487 68.4093 182.138 56.2942 188.615 46.2202C189.817 44.3515 193.766 41.7097 195.893 41.3525ZM191.151 46.2981C186.279 51.4366 189.131 60.2303 196.156 61.7317C204.538 63.5233 210.778 54.2111 205.865 47.2432C202.303 42.1912 195.462 41.7519 191.151 46.2981ZM197.166 44.3806C198.14 44.3439 199.351 44.5192 199.857 44.7704L200.777 45.2267L199.167 45.32C195.519 45.5316 192.448 47.6768 191.069 50.9776L190.271 52.8861L190.224 51.7487C190.06 47.8223 193.16 44.5314 197.166 44.3806ZM126.486 89.4632C138.873 86.237 150.467 97.9217 147.127 110.268C143.507 123.653 126.124 127.234 117.499 116.372C110.051 106.991 114.896 92.4819 126.486 89.4632ZM119.404 97.8802C109.74 111.709 128.807 127.719 140.665 115.734L142.456 113.924L140.934 114.479C134.432 116.853 130.162 108.172 136.132 104.718C138.981 103.07 142.288 104.171 143.726 107.246L144.492 108.885L144.682 107.744C147.029 93.7119 127.611 86.1352 119.404 97.8802ZM236.614 30.3096C246.519 26.6726 256.422 36.4168 253.117 46.5468C251.08 52.7877 244.579 56.4893 238.14 55.0743C225.575 52.3131 224.494 34.7606 236.614 30.3096ZM126.753 94.3762C130.745 93.5489 130.85 94.1089 127.108 96.2694C122.106 99.1571 120.06 102.606 120.016 108.223L119.998 110.46L119.389 108.92C116.897 102.63 120.41 95.6911 126.753 94.3762ZM231.677 37.2374C229.616 40.6017 229.833 45.4914 232.182 48.6416C237.843 56.2337 249.296 53.7671 251.257 44.5332C253.741 32.8358 237.971 26.9596 231.677 37.2374ZM240.859 32.9749C245.078 32.7825 248.885 35.7386 249.345 39.5634L249.486 40.7425L248.547 39.2504C246.518 36.0269 241.64 33.9306 238.192 34.8004C235.847 35.3918 235.589 35.1069 237.492 34.0285C238.598 33.4019 239.809 33.0227 240.859 32.9749ZM46.8541 156.048C55.1038 154.532 60.1127 164.56 53.9326 170.219C50.035 173.789 44.1134 172.754 41.3841 168.027C38.6302 163.257 41.4703 157.037 46.8541 156.048ZM134.486 108.253C133.381 111.906 137.481 115.284 140.737 113.405C143.227 111.967 143.902 109.506 142.481 107.045C140.632 103.842 135.589 104.603 134.486 108.253ZM42.7493 160.549C40.6926 163.526 42.0096 168.334 45.3475 170.036C52.7154 173.792 59.195 163.457 52.4536 158.702C49.132 156.359 45.1161 157.123 42.7493 160.549ZM139.592 105.628C140.392 105.842 141.15 106.208 141.277 106.441C141.45 106.757 141.339 106.798 140.843 106.6C139.51 106.069 137.969 106.178 136.724 106.89C135.785 107.427 135.528 107.467 135.747 107.04C136.355 105.855 138.076 105.223 139.592 105.628ZM108.974 125.822C120.107 123.862 129.834 133.682 127.41 144.435C123.281 162.758 97.2186 160.404 96.1951 141.616C95.8195 134.724 102.033 127.045 108.974 125.822ZM198.282 76.543C205.051 75.1147 211.695 79.2199 213.269 85.8041C216.637 99.8933 197.445 107.66 190.213 95.1348C186.032 87.8921 190.218 78.2444 198.282 76.543ZM101.09 134.236C95.235 143.214 102.38 155.189 113.067 154.309C122.907 153.499 128.198 142.662 122.823 134.33C117.657 126.323 106.284 126.274 101.09 134.236ZM44.0008 166.73C44.9283 168.336 47.4817 169.221 50.3118 168.917L52.0944 168.725L50.8445 169.475C48.1534 171.089 42.1974 168.7 43.391 166.485C43.5298 166.227 43.765 166.321 44.0008 166.73ZM193.179 82.1079C189.301 86.5365 190.234 93.9624 195.093 97.3601C202.861 102.791 213.366 95.672 211.167 86.469C209.195 78.2194 198.792 75.6973 193.179 82.1079ZM103.16 136.752C101.632 141.567 102.855 146.628 106.29 149.707C108.231 151.447 108.05 151.75 105.781 150.564C99.6481 147.359 98.2492 139.336 103.058 134.949L104.007 134.083L103.16 136.752ZM179.695 91.6979C189.198 90.7675 193.359 103.596 185.101 108.364C178.251 112.318 170.184 106.532 171.736 98.7772C172.443 95.2453 176.027 92.0572 179.695 91.6979ZM193.959 85.7142C192.895 89.6795 193.956 93.4372 196.845 95.9286L198.012 96.9355L196.475 96.3864C191.511 94.6137 190.073 87.4509 193.933 83.7235C194.618 83.0621 194.62 83.2547 193.959 85.7142ZM173.885 97.4452C170.786 104.13 177.89 110.623 184.286 106.951C189.759 103.809 189.009 95.7461 183.055 93.733C179.399 92.4963 175.435 94.1007 173.885 97.4452ZM175.093 102.134C176.19 104.65 178.586 106.269 181.406 106.4L182.742 106.463L181.614 106.875C178.307 108.082 174.447 105.514 174.285 101.999C174.211 100.379 174.337 100.4 175.093 102.134ZM148.729 130.282C152.579 129.355 156.543 132.043 156.71 135.695C156.764 136.866 156.792 136.886 159.422 137.589C172.071 140.97 170.472 159.806 157.453 160.771C148.248 161.454 141.265 150.959 145.917 143.433L146.648 142.25L145.232 139.831C142.787 135.653 144.37 131.331 148.729 130.282ZM145.649 134.362C144.789 136.729 145.2 138.755 146.877 140.431C147.895 141.449 147.928 140.871 146.94 139.344L146 137.891L147.267 138.945L148.536 139.999L150.647 138.798C151.808 138.138 153.415 137.477 154.218 137.33L155.678 137.062L155.509 135.739C154.849 130.593 147.395 129.551 145.649 134.362ZM210.281 102.064C222.182 98.2316 235.146 105.927 237.6 118.28C241.58 138.314 217.905 151.883 202.402 138.453C189.977 127.689 194.419 107.172 210.281 102.064ZM205.022 109.067C197.525 115.468 196.915 127.558 203.736 134.558C217.393 148.576 240.084 134.061 233.026 115.821C228.749 104.768 214.173 101.252 205.022 109.067ZM150.703 141.689C151.562 141.732 154.723 139.907 154.489 139.503C154.386 139.324 153.392 139.719 152.18 140.422C150.691 141.287 150.248 141.666 150.703 141.689ZM147.729 144.593C142.371 154.843 157.227 164.208 164.146 154.942C168.666 148.887 162.29 135.84 156.456 139.208C155.341 139.852 155.46 140.322 156.797 140.559C158.706 140.898 158.786 141.296 156.963 141.391C153.605 141.568 149.821 144.8 148.749 148.409L148.268 150.029L148.178 148.61C148.064 146.8 148.416 145.194 149.196 143.972C149.534 143.443 149.648 142.922 149.449 142.815C148.907 142.524 148.699 142.739 147.729 144.593ZM190.436 128.967C195.331 128.03 197.362 134.501 192.97 137.037C189.185 139.223 184.726 133.714 187.748 130.586C188.943 129.349 189.176 129.208 190.436 128.967ZM202.415 123.694C204.724 131.376 212.121 136.49 220.19 135.985L222.829 135.82L220.791 136.802C212.716 140.693 202.328 134.727 201.939 125.975C201.817 123.217 202.003 122.324 202.415 123.694ZM190.271 130.069C191.087 129.927 192.471 130.237 192.685 130.608C192.785 130.781 192.418 130.827 191.869 130.709C191.248 130.576 190.401 130.765 189.633 131.209C188.209 132.03 188.073 132.001 188.83 131.036C189.276 130.468 189.268 130.398 188.788 130.653C187.744 131.209 187.338 133.734 188.084 135.025C190.061 138.45 195.248 136.377 194.61 132.418C194.308 130.546 191.553 128.965 190.164 129.865C189.754 130.131 189.768 130.156 190.271 130.069ZM136.584 166.054C152.053 161.841 166.005 175.408 162.137 190.904C157.889 207.924 135.267 211.753 125.25 197.147C117.621 186.025 123.613 169.587 136.584 166.054ZM66.6356 208.332C72.8492 207.931 77.5932 213.679 75.9184 219.579C73.1938 229.176 59.3346 227.775 58.5108 217.819C58.1186 213.074 61.9193 208.636 66.6356 208.332ZM61.821 212.431C59.0907 215.324 59.5899 220.527 62.8355 222.999C67.6904 226.698 75.0907 222.959 74.6608 217.025C74.1691 210.24 66.483 207.49 61.821 212.431ZM129.869 174.313C121.244 183.61 125.428 198.366 137.73 202.032C152.165 206.334 164.555 190.456 156.989 177.351C151.249 167.409 137.685 165.889 129.869 174.313ZM67.5243 210.575C69.7231 210.429 72.5189 212.422 72.8516 214.372C72.9915 215.192 72.9068 215.159 71.9934 214.035C70.6772 212.415 67.4547 211.481 65.2305 212.075C64.3818 212.301 63.6496 212.421 63.6034 212.341C63.3952 211.98 66.3423 210.653 67.5243 210.575ZM134.407 173.579C134.615 173.537 135.412 173.279 136.18 173.005L137.575 172.506L135.776 174.121C130.029 179.278 128.331 186.502 131.279 193.246C132.618 196.309 130.943 195.127 128.822 191.512C125.176 185.297 128.456 174.766 134.407 173.579ZM234.647 145.155C243.322 144.619 248.202 155.118 242.191 161.384C235.487 168.373 224.045 162.301 225.784 152.678C226.472 148.869 230.549 145.409 234.647 145.155ZM228.601 150.484C225.138 155.816 229.243 163 235.552 162.653C244.612 162.154 245.964 149.375 237.189 147.178C233.609 146.281 230.57 147.451 228.601 150.484ZM230.755 150.191C229.115 153.596 229.082 155.759 230.628 158.436C231.771 160.416 231.279 160.743 229.742 159.025C227.372 156.374 227.604 152.538 230.279 150.18C231.025 149.522 231.076 149.523 230.755 150.191ZM120.042 214.204C121.413 214.045 122.013 214.411 122.9 215.947C124.117 218.056 121.968 220.651 119.542 220.002C116.325 219.142 116.718 214.591 120.042 214.204ZM118.471 216.084C118.397 216.531 118.325 216.668 118.31 216.387C118.27 215.658 118.028 215.902 117.881 216.82C117.813 217.251 117.856 217.425 117.978 217.206C118.119 216.953 118.413 217.197 118.786 217.878C119.109 218.466 119.231 218.943 119.057 218.939C118.884 218.934 118.944 219.094 119.191 219.294C120.354 220.235 122.775 218.763 122.724 217.147C122.645 214.671 118.861 213.725 118.471 216.084ZM118.301 218.669C118.483 218.717 118.523 218.568 118.39 218.337C118.256 218.106 118.107 218.066 118.058 218.248C118.009 218.431 118.118 218.62 118.301 218.669ZM220.102 181.655C233.027 178.288 245.219 190.275 241.89 203.078C238.166 217.4 220.222 221.34 210.752 209.915C202.782 200.299 207.899 184.834 220.102 181.655ZM213.205 189.645C207.791 196.212 209.381 206.241 216.599 211.05C226.567 217.692 240.148 209.863 239.335 197.945C238.425 184.619 221.724 179.315 213.205 189.645ZM216.245 190.87C212.762 196.094 213.454 203.386 217.904 208.369L218.771 209.339L217.472 208.852C210.384 206.197 209.355 193.972 215.901 190.195L217.192 189.45L216.245 190.87ZM113.988 262.922C128.778 257.397 138.625 278.277 124.96 286.188C111.205 294.151 98.1417 275.425 110.248 265.098C111.162 264.319 112 263.652 112.11 263.615C112.22 263.579 113.065 263.267 113.988 262.922ZM109.57 269.168C105.504 275.475 108.612 283.462 115.889 285.408C126.65 288.285 133.909 274.981 125.811 267.223C121.334 262.933 112.941 263.938 109.57 269.168ZM109.954 274.686C110.706 279.323 114.359 282.88 118.994 283.49C121.081 283.765 120.854 284.039 118.18 284.472C114.141 285.127 109.718 281.391 109.404 277.061C109.27 275.2 109.721 273.249 109.954 274.686ZM202.21 234.18C207.621 234.339 209.561 240.914 204.978 243.565C202.304 245.112 199.486 244.392 197.973 241.777C196.013 238.387 198.42 234.069 202.21 234.18ZM198.254 238.408C197.729 241.06 199.613 243.328 202.396 243.393C207.03 243.502 208.11 236.987 203.743 235.276C201.559 234.42 198.723 236.039 198.254 238.408ZM203.313 235.671C204.369 235.953 204.926 236.351 205.346 237.124L205.924 238.188L205.134 237.443C204.11 236.479 202.76 236.046 201.277 236.208L200.089 236.336L200.974 235.809C201.546 235.469 202.373 235.419 203.313 235.671Z" fill="#009FE3"/>
</svg>
