<svg width="254" height="289" viewBox="0 0 254 289" fill="none" xmlns="http://www.w3.org/2000/svg">
<path opacity="0.5" fill-rule="evenodd" clip-rule="evenodd" d="M199.569 0.775201C211.969 -0.162252 217.095 16.1915 206.336 22.3617C195.564 28.5394 184.16 16.3155 190.884 5.79992C192.506 3.26369 196.392 1.01508 199.569 0.775201ZM193.547 5.80071C189.712 9.84475 190.302 16.8083 194.751 20.0255C203.285 26.195 214.015 16.7177 208.774 7.64009C205.469 1.91496 198.078 1.02208 193.547 5.80071ZM200.576 3.99907C205.212 3.54507 209.331 7.50107 208.584 11.6903L208.39 12.7819L208.134 11.5264C207.453 8.19014 201.191 3.70061 198.99 4.97121C198.767 5.10037 198.414 5.11466 198.207 5.00325C197.614 4.68454 198.827 4.17024 200.576 3.99907ZM11.6414 116.701C21.0919 113.729 30.9082 119.694 32.5249 129.389C35.3478 146.32 12.9864 155.256 3.23611 141.093C-2.80323 132.321 1.47819 119.896 11.6414 116.701ZM5.80375 124.22C-2.48026 135.866 10.8934 150.675 23.2514 143.541C33.2379 137.775 31.615 122.883 20.6132 119.335C15.2458 117.604 9.05782 119.645 5.80375 124.22ZM13.295 120.747C14.7641 120.478 16.8939 120.59 17.9838 120.993C18.5137 121.188 18.2182 121.32 16.5402 121.636C11.2177 122.637 6.679 127.327 6.11247 132.411C5.8889 134.416 5.40137 134.149 5.1082 131.86C4.47298 126.904 8.34218 121.652 13.295 120.747ZM157.274 46.5187C172.102 42.158 186.262 55.8473 182.292 70.7062C177.701 87.8908 154.6 91.126 145.79 75.8187C139.261 64.4759 144.87 50.1669 157.274 46.5187ZM149.35 56.4336C142.886 66.1175 147.792 78.9362 159.003 81.6516C174.721 85.4585 186.075 66.6938 175.314 54.6962C168.19 46.7534 155.234 47.6204 149.35 56.4336ZM159.301 51.1585C162.8 50.4201 167.441 51.4902 169.841 53.5893L171.182 54.7619L168.273 54.0573C161.799 52.4894 154.967 54.9174 151.418 60.047C150.143 61.8897 149.864 62.1524 149.844 61.5266C149.724 57.7429 154.879 52.0911 159.301 51.1585ZM195.894 41.3525C208.709 39.2012 215.012 55.9827 203.816 62.4464C193.489 68.4093 182.139 56.2942 188.616 46.2202C189.818 44.3515 193.767 41.7097 195.894 41.3525ZM191.152 46.2981C186.28 51.4366 189.132 60.2303 196.157 61.7317C204.539 63.5233 210.779 54.2111 205.866 47.2432C202.304 42.1912 195.463 41.7519 191.152 46.2981ZM197.167 44.3806C198.141 44.3439 199.352 44.5192 199.858 44.7704L200.778 45.2267L199.168 45.32C195.52 45.5316 192.449 47.6768 191.07 50.9776L190.272 52.8861L190.225 51.7487C190.061 47.8223 193.161 44.5314 197.167 44.3806ZM126.487 89.4632C138.874 86.237 150.468 97.9217 147.128 110.268C143.508 123.653 126.125 127.234 117.5 116.372C110.052 106.991 114.897 92.4819 126.487 89.4632ZM119.405 97.8802C109.742 111.709 128.808 127.719 140.666 115.734L142.457 113.924L140.935 114.479C134.434 116.853 130.163 108.172 136.133 104.718C138.982 103.07 142.289 104.171 143.727 107.246L144.493 108.885L144.683 107.744C147.03 93.7119 127.612 86.1352 119.405 97.8802ZM236.615 30.3096C246.52 26.6726 256.423 36.4168 253.118 46.5468C251.081 52.7877 244.58 56.4893 238.141 55.0743C225.576 52.3131 224.495 34.7606 236.615 30.3096ZM126.754 94.3762C130.746 93.5489 130.851 94.1089 127.109 96.2694C122.107 99.1571 120.061 102.606 120.017 108.223L119.999 110.46L119.39 108.92C116.898 102.63 120.411 95.6911 126.754 94.3762ZM231.678 37.2374C229.617 40.6017 229.834 45.4914 232.183 48.6416C237.844 56.2337 249.297 53.7671 251.258 44.5332C253.742 32.8358 237.972 26.9596 231.678 37.2374ZM240.86 32.9749C245.079 32.7825 248.886 35.7386 249.346 39.5634L249.487 40.7425L248.548 39.2504C246.519 36.0269 241.641 33.9306 238.193 34.8004C235.848 35.3918 235.59 35.1069 237.493 34.0285C238.599 33.4019 239.81 33.0227 240.86 32.9749ZM46.8552 156.048C55.1049 154.532 60.1138 164.56 53.9336 170.219C50.0361 173.789 44.1144 172.754 41.3851 168.027C38.6312 163.257 41.4713 157.037 46.8552 156.048ZM134.487 108.253C133.382 111.906 137.482 115.284 140.738 113.405C143.228 111.967 143.903 109.506 142.482 107.045C140.633 103.842 135.59 104.603 134.487 108.253ZM42.7503 160.549C40.6936 163.526 42.0106 168.334 45.3485 170.036C52.7165 173.792 59.1961 163.457 52.4546 158.702C49.133 156.359 45.1172 157.123 42.7503 160.549ZM139.593 105.628C140.393 105.842 141.151 106.208 141.279 106.441C141.451 106.757 141.34 106.798 140.844 106.6C139.512 106.069 137.97 106.178 136.725 106.89C135.786 107.427 135.529 107.467 135.748 107.04C136.356 105.855 138.077 105.223 139.593 105.628ZM108.975 125.822C120.108 123.862 129.835 133.682 127.411 144.435C123.282 162.758 97.2196 160.404 96.1961 141.616C95.8206 134.724 102.034 127.045 108.975 125.822ZM198.283 76.543C205.052 75.1147 211.696 79.2199 213.27 85.8041C216.638 99.8933 197.446 107.66 190.214 95.1348C186.033 87.8921 190.22 78.2444 198.283 76.543ZM101.092 134.236C95.236 143.214 102.381 155.189 113.068 154.309C122.908 153.499 128.199 142.662 122.824 134.33C117.658 126.323 106.285 126.274 101.092 134.236ZM44.0019 166.73C44.9293 168.336 47.4828 169.221 50.3129 168.917L52.0954 168.725L50.8455 169.475C48.1544 171.089 42.1984 168.7 43.392 166.485C43.5308 166.227 43.766 166.321 44.0019 166.73ZM193.18 82.1079C189.302 86.5365 190.235 93.9624 195.094 97.3601C202.862 102.791 213.367 95.672 211.168 86.469C209.196 78.2194 198.793 75.6973 193.18 82.1079ZM103.161 136.752C101.633 141.567 102.856 146.628 106.291 149.707C108.232 151.447 108.051 151.75 105.782 150.564C99.6492 147.359 98.2503 139.336 103.059 134.949L104.008 134.083L103.161 136.752ZM179.696 91.6979C189.199 90.7675 193.36 103.596 185.102 108.364C178.252 112.318 170.185 106.532 171.737 98.7772C172.444 95.2453 176.028 92.0572 179.696 91.6979ZM193.96 85.7142C192.896 89.6795 193.958 93.4372 196.846 95.9286L198.013 96.9355L196.476 96.3864C191.512 94.6137 190.074 87.4509 193.934 83.7235C194.619 83.0621 194.621 83.2547 193.96 85.7142ZM173.886 97.4452C170.787 104.13 177.891 110.623 184.287 106.951C189.76 103.809 189.01 95.7461 183.056 93.733C179.4 92.4963 175.436 94.1007 173.886 97.4452ZM175.094 102.134C176.192 104.65 178.587 106.269 181.407 106.4L182.743 106.463L181.615 106.875C178.308 108.082 174.448 105.514 174.286 101.999C174.212 100.379 174.338 100.4 175.094 102.134ZM148.73 130.282C152.581 129.355 156.544 132.043 156.711 135.695C156.765 136.866 156.793 136.886 159.423 137.589C172.072 140.97 170.473 159.806 157.454 160.771C148.249 161.454 141.266 150.959 145.918 143.433L146.649 142.25L145.234 139.831C142.788 135.653 144.371 131.331 148.73 130.282ZM145.65 134.362C144.79 136.729 145.201 138.755 146.878 140.431C147.896 141.449 147.929 140.871 146.941 139.344L146.001 137.891L147.269 138.945L148.537 139.999L150.648 138.798C151.809 138.138 153.416 137.477 154.219 137.33L155.679 137.062L155.51 135.739C154.85 130.593 147.396 129.551 145.65 134.362ZM210.283 102.064C222.183 98.2316 235.147 105.927 237.601 118.28C241.581 138.314 217.906 151.883 202.403 138.453C189.978 127.689 194.42 107.172 210.283 102.064ZM205.023 109.067C197.527 115.468 196.916 127.558 203.737 134.558C217.394 148.576 240.085 134.061 233.027 115.821C228.75 104.768 214.174 101.252 205.023 109.067ZM150.704 141.689C151.563 141.732 154.724 139.907 154.49 139.503C154.387 139.324 153.393 139.719 152.181 140.422C150.692 141.287 150.249 141.666 150.704 141.689ZM147.73 144.593C142.372 154.843 157.228 164.208 164.147 154.942C168.667 148.887 162.291 135.84 156.457 139.208C155.342 139.852 155.461 140.322 156.798 140.559C158.707 140.898 158.787 141.296 156.964 141.391C153.606 141.568 149.822 144.8 148.75 148.409L148.269 150.029L148.179 148.61C148.065 146.8 148.417 145.194 149.197 143.972C149.535 143.443 149.649 142.922 149.45 142.815C148.908 142.524 148.7 142.739 147.73 144.593ZM190.437 128.967C195.332 128.03 197.363 134.501 192.971 137.037C189.186 139.223 184.727 133.714 187.749 130.586C188.944 129.349 189.177 129.208 190.437 128.967ZM202.416 123.694C204.725 131.376 212.122 136.49 220.191 135.985L222.83 135.82L220.792 136.802C212.717 140.693 202.329 134.727 201.94 125.975C201.818 123.217 202.004 122.324 202.416 123.694ZM190.272 130.069C191.088 129.927 192.472 130.237 192.686 130.608C192.786 130.781 192.419 130.827 191.87 130.709C191.249 130.576 190.402 130.765 189.634 131.209C188.21 132.03 188.074 132.001 188.831 131.036C189.277 130.468 189.269 130.398 188.789 130.653C187.745 131.209 187.339 133.734 188.085 135.025C190.062 138.45 195.249 136.377 194.611 132.418C194.309 130.546 191.555 128.965 190.165 129.865C189.756 130.131 189.769 130.156 190.272 130.069ZM136.585 166.054C152.054 161.841 166.006 175.408 162.138 190.904C157.89 207.924 135.268 211.753 125.251 197.147C117.622 186.025 123.614 169.587 136.585 166.054ZM66.6366 208.332C72.8502 207.931 77.5942 213.679 75.9194 219.579C73.1949 229.176 59.3356 227.775 58.5119 217.819C58.1196 213.074 61.9204 208.636 66.6366 208.332ZM61.8221 212.431C59.0917 215.324 59.5909 220.527 62.8365 222.999C67.6914 226.698 75.0917 222.959 74.6618 217.025C74.1701 210.24 66.484 207.49 61.8221 212.431ZM129.87 174.313C121.245 183.61 125.429 198.366 137.731 202.032C152.167 206.334 164.556 190.456 156.99 177.351C151.25 167.409 137.686 165.889 129.87 174.313ZM67.5253 210.575C69.7241 210.429 72.5199 212.422 72.8526 214.372C72.9925 215.192 72.9079 215.159 71.9944 214.035C70.6783 212.415 67.4558 211.481 65.2315 212.075C64.3829 212.301 63.6506 212.421 63.6044 212.341C63.3962 211.98 66.3433 210.653 67.5253 210.575ZM134.408 173.579C134.616 173.537 135.413 173.279 136.181 173.005L137.576 172.506L135.777 174.121C130.03 179.278 128.332 186.502 131.28 193.246C132.619 196.309 130.944 195.127 128.823 191.512C125.177 185.297 128.457 174.766 134.408 173.579ZM234.648 145.155C243.323 144.619 248.203 155.118 242.192 161.384C235.488 168.373 224.046 162.301 225.785 152.678C226.473 148.869 230.55 145.409 234.648 145.155ZM228.602 150.484C225.139 155.816 229.244 163 235.553 162.653C244.613 162.154 245.965 149.375 237.19 147.178C233.61 146.281 230.571 147.451 228.602 150.484ZM230.756 150.191C229.116 153.596 229.083 155.759 230.629 158.436C231.772 160.416 231.28 160.743 229.743 159.025C227.373 156.374 227.605 152.538 230.28 150.18C231.026 149.522 231.077 149.523 230.756 150.191ZM120.043 214.204C121.414 214.045 122.014 214.411 122.901 215.947C124.118 218.056 121.969 220.651 119.543 220.002C116.326 219.142 116.719 214.591 120.043 214.204ZM118.472 216.084C118.398 216.531 118.326 216.668 118.311 216.387C118.271 215.658 118.029 215.902 117.882 216.82C117.814 217.251 117.857 217.425 117.979 217.206C118.12 216.953 118.414 217.197 118.787 217.878C119.11 218.466 119.232 218.943 119.058 218.939C118.885 218.934 118.945 219.094 119.192 219.294C120.355 220.235 122.776 218.763 122.725 217.147C122.646 214.671 118.862 213.725 118.472 216.084ZM118.302 218.669C118.484 218.717 118.524 218.568 118.391 218.337C118.257 218.106 118.108 218.066 118.059 218.248C118.01 218.431 118.12 218.62 118.302 218.669ZM220.103 181.655C233.028 178.288 245.22 190.275 241.891 203.078C238.167 217.4 220.223 221.34 210.753 209.915C202.783 200.299 207.9 184.834 220.103 181.655ZM213.206 189.645C207.792 196.212 209.382 206.241 216.6 211.05C226.568 217.692 240.149 209.863 239.336 197.945C238.426 184.619 221.725 179.315 213.206 189.645ZM216.246 190.87C212.763 196.094 213.455 203.386 217.905 208.369L218.772 209.339L217.473 208.852C210.385 206.197 209.356 193.972 215.902 190.195L217.193 189.45L216.246 190.87ZM113.989 262.922C128.779 257.397 138.627 278.277 124.961 286.188C111.206 294.151 98.1427 275.425 110.249 265.098C111.163 264.319 112.001 263.652 112.111 263.615C112.221 263.579 113.066 263.267 113.989 262.922ZM109.571 269.168C105.505 275.475 108.613 283.462 115.89 285.408C126.651 288.285 133.91 274.981 125.812 267.223C121.335 262.933 112.942 263.938 109.571 269.168ZM109.955 274.686C110.707 279.323 114.36 282.88 118.995 283.49C121.083 283.765 120.855 284.039 118.181 284.472C114.142 285.127 109.719 281.391 109.405 277.061C109.271 275.2 109.722 273.249 109.955 274.686ZM202.211 234.18C207.622 234.339 209.562 240.914 204.979 243.565C202.305 245.112 199.487 244.392 197.975 241.777C196.014 238.387 198.421 234.069 202.211 234.18ZM198.255 238.408C197.73 241.06 199.614 243.328 202.397 243.393C207.031 243.502 208.111 236.987 203.744 235.276C201.561 234.42 198.725 236.039 198.255 238.408ZM203.314 235.671C204.37 235.953 204.927 236.351 205.347 237.124L205.925 238.188L205.135 237.443C204.111 236.479 202.762 236.046 201.278 236.208L200.09 236.336L200.975 235.809C201.547 235.469 202.374 235.419 203.314 235.671Z" fill="#009FE3"/>
</svg>
