<svg width="212" height="289" viewBox="0 0 212 289" fill="none" xmlns="http://www.w3.org/2000/svg">
<path opacity="0.5" fill-rule="evenodd" clip-rule="evenodd" d="M12.526 0.775201C0.126279 -0.162252 -5.00007 16.1915 5.75919 22.3617C16.5306 28.5394 27.9351 16.3155 21.2109 5.79992C19.5889 3.26369 15.703 1.01508 12.526 0.775201ZM18.5482 5.80071C22.3829 9.84475 21.7932 16.8083 17.3435 20.0255C8.8102 26.195 -1.92026 16.7177 3.3207 7.64009C6.62611 1.91496 14.017 1.02208 18.5482 5.80071ZM11.5191 3.99907C6.8831 3.54507 2.76403 7.50107 3.51069 11.6903L3.70544 12.7819L3.96122 11.5264C4.64173 8.19014 10.9039 3.70061 13.1046 4.97121C13.3283 5.10037 13.6806 5.11466 13.888 5.00325C14.4809 4.68454 13.2684 4.17024 11.5191 3.99907ZM200.454 116.701C191.003 113.729 181.187 119.694 179.57 129.389C176.747 146.32 199.109 155.256 208.859 141.093C214.898 132.321 210.617 119.896 200.454 116.701ZM206.291 124.22C214.575 135.866 201.202 150.675 188.844 143.541C178.857 137.775 180.48 122.883 191.482 119.335C196.849 117.604 203.037 119.645 206.291 124.22ZM198.8 120.747C197.331 120.478 195.201 120.59 194.111 120.993C193.581 121.188 193.877 121.32 195.555 121.636C200.877 122.637 205.416 127.327 205.983 132.411C206.206 134.416 206.694 134.149 206.987 131.86C207.622 126.904 203.753 121.652 198.8 120.747ZM54.8207 46.5187C39.9927 42.158 25.8335 55.8473 29.8031 70.7062C34.3938 87.8908 57.4945 91.126 66.3053 75.8187C72.8343 64.4759 67.2253 50.1669 54.8207 46.5187ZM62.7448 56.4336C69.2092 66.1175 64.3026 78.9362 53.0918 81.6516C37.3744 85.4585 26.0196 66.6938 36.781 54.6962C43.9053 46.7534 56.8614 47.6204 62.7448 56.4336ZM52.7944 51.1585C49.2947 50.4201 44.6542 51.4902 42.2539 53.5893L40.9126 54.7619L43.8221 54.0573C50.2957 52.4894 57.128 54.9174 60.6767 60.047C61.9519 61.8897 62.2315 62.1524 62.2511 61.5266C62.3713 57.7429 57.2163 52.0911 52.7944 51.1585ZM16.2006 41.3525C3.38559 39.2012 -2.91704 55.9827 8.27855 62.4464C18.6065 68.4093 29.9557 56.2942 23.4788 46.2202C22.2772 44.3515 18.3275 41.7097 16.2006 41.3525ZM20.9425 46.2981C25.8146 51.4366 22.9634 60.2303 15.938 61.7317C7.55626 63.5233 1.31567 54.2111 6.22875 47.2432C9.79088 42.1912 16.6317 41.7519 20.9425 46.2981ZM14.9281 44.3806C13.9539 44.3439 12.7429 44.5192 12.2369 44.7704L11.3168 45.2267L12.9268 45.32C16.5753 45.5316 19.6459 47.6768 21.025 50.9776L21.8225 52.8861L21.87 51.7487C22.0343 47.8223 18.9335 44.5314 14.9281 44.3806ZM85.6082 89.4632C73.2207 86.237 61.6269 97.9217 64.9667 110.268C68.5873 123.653 85.9697 127.234 94.5951 116.372C102.043 106.991 97.1975 92.4819 85.6082 89.4632ZM92.69 97.8802C102.353 111.709 83.2866 127.719 71.4286 115.734L69.6381 113.924L71.16 114.479C77.6614 116.853 81.9321 108.172 75.9618 104.718C73.1131 103.07 69.8057 104.171 68.3682 107.246L67.6021 108.885L67.4116 107.744C65.0654 93.7119 84.4826 86.1352 92.69 97.8802ZM-24.5204 30.3096C-34.4251 26.6726 -44.3285 36.4168 -41.0228 46.5468C-38.9861 52.7877 -32.4852 56.4893 -26.046 55.0743C-13.4806 52.3131 -12.3996 34.7606 -24.5204 30.3096ZM85.3412 94.3762C81.3491 93.5489 81.244 94.1089 84.9861 96.2694C89.9877 99.1571 92.0336 102.606 92.078 108.223L92.0957 110.46L92.705 108.92C95.1968 102.63 91.6838 95.6911 85.3412 94.3762ZM-19.583 37.2374C-17.5225 40.6017 -17.7389 45.4914 -20.0882 48.6416C-25.7491 56.2337 -37.2016 53.7671 -39.1627 44.5332C-41.6468 32.8358 -25.877 26.9596 -19.583 37.2374ZM-28.7651 32.9749C-32.9843 32.7825 -36.7915 35.7386 -37.2509 39.5634L-37.3923 40.7425L-36.453 39.2504C-34.4237 36.0269 -29.5458 33.9306 -26.0981 34.8004C-23.7534 35.3918 -23.4951 35.1069 -25.3979 34.0285C-26.5043 33.4019 -27.7149 33.0227 -28.7651 32.9749ZM165.24 156.048C156.99 154.532 151.981 164.56 158.161 170.219C162.059 173.789 167.981 172.754 170.71 168.027C173.464 163.257 170.624 157.037 165.24 156.048ZM77.6082 108.253C78.7127 111.906 74.6132 115.284 71.3574 113.405C68.8666 111.967 68.1921 109.506 69.6132 107.045C71.4624 103.842 76.5052 104.603 77.6082 108.253ZM169.345 160.549C171.401 163.526 170.084 168.334 166.746 170.036C159.379 173.792 152.899 163.457 159.64 158.702C162.962 156.359 166.978 157.123 169.345 160.549ZM72.502 105.628C71.702 105.842 70.9436 106.208 70.8165 106.441C70.6441 106.757 70.7546 106.798 71.2507 106.6C72.5835 106.069 74.1248 106.178 75.3704 106.89C76.309 107.427 76.5658 107.467 76.3469 107.04C75.7392 105.855 74.0178 105.223 72.502 105.628ZM103.12 125.822C91.9868 123.862 82.2601 133.682 84.684 144.435C88.8132 162.758 114.875 160.404 115.899 141.616C116.274 134.724 110.061 127.045 103.12 125.822ZM13.8124 76.543C7.04268 75.1147 0.398716 79.2199 -1.17505 85.8041C-4.54261 99.8933 14.6488 107.66 21.8805 95.1348C26.0621 87.8921 21.8754 78.2444 13.8124 76.543ZM111.003 134.236C116.859 143.214 109.714 155.189 99.0274 154.309C89.1873 153.499 83.8958 142.662 89.2714 134.33C94.4368 126.323 105.81 126.274 111.003 134.236ZM168.093 166.73C167.166 168.336 164.612 169.221 161.782 168.917L160 168.725L161.249 169.475C163.941 171.089 169.897 168.7 168.703 166.485C168.564 166.227 168.329 166.321 168.093 166.73ZM18.915 82.1079C22.7926 86.5365 21.8603 93.9624 17.0005 97.3601C9.23332 102.791 -1.27246 95.672 0.927318 86.469C2.89895 78.2194 13.3024 75.6973 18.915 82.1079ZM108.934 136.752C110.462 141.567 109.239 146.628 105.804 149.707C103.863 151.447 104.044 151.75 106.313 150.564C112.446 147.359 113.845 139.336 109.036 134.949L108.087 134.083L108.934 136.752ZM32.3985 91.6979C22.8963 90.7675 18.735 103.596 26.9928 108.364C33.8428 112.318 41.9098 106.532 40.3578 98.7772C39.6512 95.2453 36.0669 92.0572 32.3985 91.6979ZM18.1345 85.7142C19.1993 89.6795 18.1375 93.4372 15.2489 95.9286L14.0816 96.9355L15.619 96.3864C20.5827 94.6137 22.0211 87.4509 18.1614 83.7235C17.4764 83.0621 17.4737 83.2547 18.1345 85.7142ZM38.2094 97.4452C41.3082 104.13 34.2036 110.623 27.8082 106.951C22.3348 103.809 23.085 95.7461 29.0385 93.733C32.6953 92.4963 36.6591 94.1007 38.2094 97.4452ZM37.001 102.134C35.9035 104.65 33.5075 106.269 30.6878 106.4L29.3523 106.463L30.4801 106.875C33.7872 108.082 37.6469 105.514 37.8085 101.999C37.8828 100.379 37.7567 100.4 37.001 102.134ZM63.3646 130.282C59.5144 129.355 55.5511 132.043 55.3835 135.695C55.3298 136.866 55.3015 136.886 52.672 137.589C40.0229 140.97 41.6223 159.806 54.6408 160.771C63.8456 161.454 70.8287 150.959 66.1765 143.433L65.4456 142.25L66.8615 139.831C69.3069 135.653 67.7241 131.331 63.3646 130.282ZM66.4453 134.362C67.3046 136.729 66.8944 138.755 65.2173 140.431C64.1993 141.449 64.1655 140.871 65.1538 139.344L66.0942 137.891L64.8264 138.945L63.5583 139.999L61.4471 138.798C60.2857 138.138 58.6785 137.477 57.8756 137.33L56.4158 137.062L56.5852 135.739C57.2445 130.593 64.699 129.551 66.4453 134.362ZM1.81246 102.064C-10.0884 98.2316 -23.0519 105.927 -25.506 118.28C-29.4861 138.314 -5.81125 151.883 9.69174 138.453C22.1173 127.689 17.6747 107.172 1.81246 102.064ZM7.07229 109.067C14.5684 115.468 15.1786 127.558 8.35836 134.558C-5.2986 148.576 -27.9901 134.061 -20.9323 115.821C-16.6554 104.768 -2.0795 101.252 7.07229 109.067ZM61.3907 141.689C60.5319 141.732 57.3714 139.907 57.6045 139.503C57.708 139.324 58.7021 139.719 59.9135 140.422C61.4029 141.287 61.8456 141.666 61.3907 141.689ZM64.3646 144.593C69.7231 154.843 54.867 164.208 47.9482 154.942C43.4276 148.887 49.8044 135.84 55.638 139.208C56.7527 139.852 56.6343 140.322 55.2972 140.559C53.3875 140.898 53.3078 141.296 55.1307 141.391C58.4893 141.568 62.2726 144.8 63.3446 148.409L63.826 150.029L63.9157 148.61C64.0302 146.8 63.6777 145.194 62.8983 143.972C62.5604 143.443 62.4462 142.922 62.6446 142.815C63.1873 142.524 63.3952 142.739 64.3646 144.593ZM21.6576 128.967C16.7631 128.03 14.7317 134.501 19.1241 137.037C22.9094 139.223 27.3679 133.714 24.346 130.586C23.1508 129.349 22.9176 129.208 21.6576 128.967ZM9.67895 123.694C7.36976 131.376 -0.0269225 136.49 -8.09612 135.985L-10.7351 135.82L-8.69747 136.802C-0.622152 140.693 9.76638 134.727 10.1545 125.975C10.2769 123.217 10.0906 122.324 9.67895 123.694ZM21.8234 130.069C21.0069 129.927 19.6231 130.237 19.4086 130.608C19.3085 130.781 19.6761 130.827 20.2254 130.709C20.8457 130.576 21.6928 130.765 22.4611 131.209C23.8847 132.03 24.0211 132.001 23.2635 131.036C22.8179 130.468 22.826 130.398 23.3062 130.653C24.3495 131.209 24.7559 133.734 24.01 135.025C22.0329 138.45 16.8457 136.377 17.4842 132.418C17.7859 130.546 20.5405 128.965 21.9295 129.865C22.3394 130.131 22.3262 130.156 21.8234 130.069ZM75.5098 166.054C60.0407 161.841 46.0889 175.408 49.9569 190.904C54.2049 207.924 76.8267 211.753 86.8442 197.147C94.4727 186.025 88.4806 169.587 75.5098 166.054ZM145.458 208.332C139.245 207.931 134.501 213.679 136.176 219.579C138.9 229.176 152.759 227.775 153.583 217.819C153.975 213.074 150.175 208.636 145.458 208.332ZM150.273 212.431C153.003 215.324 152.504 220.527 149.258 222.999C144.404 226.698 137.003 222.959 137.433 217.025C137.925 210.24 145.611 207.49 150.273 212.431ZM82.2247 174.313C90.8503 183.61 86.6657 198.366 74.3636 202.032C59.9285 206.334 47.5387 190.456 55.1046 177.351C60.8451 167.409 74.4093 165.889 82.2247 174.313ZM144.57 210.575C142.371 210.429 139.575 212.422 139.242 214.372C139.102 215.192 139.187 215.159 140.101 214.035C141.417 212.415 144.639 211.481 146.863 212.075C147.712 212.301 148.444 212.421 148.491 212.341C148.699 211.98 145.752 210.653 144.57 210.575ZM77.6865 173.579C77.4789 173.537 76.6815 173.279 75.9142 173.005L74.5193 172.506L76.3184 174.121C82.0646 179.278 83.7629 186.502 80.8148 193.246C79.4756 196.309 81.1508 195.127 83.2716 191.512C86.9179 185.297 83.6378 174.766 77.6865 173.579ZM-22.5532 145.155C-31.2279 144.619 -36.1079 155.118 -30.0969 161.384C-23.3933 168.373 -11.9514 162.301 -13.6898 152.678C-14.3777 148.869 -18.4555 145.409 -22.5532 145.155ZM-16.5067 150.484C-13.0445 155.816 -17.1488 163 -23.4585 162.653C-32.5182 162.154 -33.87 149.375 -25.0955 147.178C-21.5151 146.281 -18.4763 147.451 -16.5067 150.484ZM-18.6606 150.191C-17.0214 153.596 -16.9884 155.759 -18.5341 158.436C-19.6772 160.416 -19.185 160.743 -17.6483 159.025C-15.2778 156.374 -15.5103 152.538 -18.1846 150.18C-18.9311 149.522 -18.9824 149.523 -18.6606 150.191ZM92.0515 214.204C90.6808 214.045 90.0811 214.411 89.1942 215.947C87.9769 218.056 90.1256 220.651 92.5516 220.002C95.7686 219.142 95.3758 214.591 92.0515 214.204ZM93.6226 216.084C93.6965 216.531 93.769 216.668 93.7844 216.387C93.8241 215.658 94.0661 215.902 94.2129 216.82C94.2814 217.251 94.2381 217.425 94.1162 217.206C93.9749 216.953 93.6811 217.197 93.3077 217.878C92.985 218.466 92.8629 218.943 93.0366 218.939C93.21 218.934 93.1497 219.094 92.9027 219.294C91.7402 220.235 89.3192 218.763 89.3703 217.147C89.449 214.671 93.2333 213.725 93.6226 216.084ZM93.7932 218.669C93.6108 218.717 93.5707 218.568 93.7041 218.337C93.8375 218.106 93.9867 218.066 94.0359 218.248C94.0846 218.431 93.9755 218.62 93.7932 218.669ZM-8.00764 181.655C-20.9334 178.288 -33.1247 190.275 -29.7961 203.078C-26.0722 217.4 -8.12845 221.34 1.34152 209.915C9.31169 200.299 4.19522 184.834 -8.00764 181.655ZM-1.1114 189.645C4.30274 196.212 2.71282 206.241 -4.50472 211.05C-14.4732 217.692 -28.0545 209.863 -27.2409 197.945C-26.3313 184.619 -9.62978 179.315 -1.1114 189.645ZM-4.15109 190.87C-0.668437 196.094 -1.35958 203.386 -5.8099 208.369L-6.67679 209.339L-5.37771 208.852C1.70992 206.197 2.73869 193.972 -3.80749 190.195L-5.09816 189.45L-4.15109 190.87ZM98.1057 262.922C83.3158 257.397 73.4685 278.277 87.134 286.188C100.889 294.151 113.952 275.425 101.845 265.098C100.932 264.319 100.094 263.652 99.9839 263.615C99.8742 263.579 99.029 263.267 98.1057 262.922ZM102.524 269.168C106.59 275.475 103.482 283.462 96.2054 285.408C85.4438 288.285 78.1849 274.981 86.2829 267.223C90.7603 262.933 99.153 263.938 102.524 269.168ZM102.14 274.686C101.387 279.323 97.7349 282.88 93.1001 283.49C91.0124 283.765 91.24 284.039 93.9142 284.472C97.9527 285.127 102.376 281.391 102.69 277.061C102.824 275.2 102.373 273.249 102.14 274.686ZM9.8839 234.18C4.4725 234.339 2.53275 240.914 7.11601 243.565C9.78954 245.112 12.6076 244.392 14.1204 241.777C16.0814 238.387 13.6737 234.069 9.8839 234.18ZM13.8398 238.408C14.365 241.06 12.4807 243.328 9.69775 243.393C5.06411 243.502 3.98357 236.987 8.35128 235.276C10.5345 234.42 13.3705 236.039 13.8398 238.408ZM8.78075 235.671C7.72509 235.953 7.1684 236.351 6.74833 237.124L6.17006 238.188L6.96003 237.443C7.98408 236.479 9.33344 236.046 10.817 236.208L12.0047 236.336L11.1198 235.809C10.5479 235.469 9.7205 235.419 8.78075 235.671Z" fill="#009FE3"/>
</svg>
