<svg width="140" height="47" viewBox="0 0 140 47" fill="none" xmlns="http://www.w3.org/2000/svg">
<g opacity="0.4">
<path d="M0.0405395 14.3156C0.608093 12.6534 1.78374 11.9643 3.56748 12.0048C5.47283 12.0453 7.17549 11.2345 8.79707 10.3021C12.0808 8.39678 14.6753 5.80226 16.7834 2.68071C17.0266 2.27532 17.2698 1.86992 17.5536 1.50507C18.9319 -0.521908 21.3643 -0.481368 22.7832 1.50507C24.4453 3.77528 26.0669 6.12657 27.9723 8.19409C29.229 9.57243 30.9722 10.5454 32.5127 11.6805C33.1208 12.1264 33.7694 12.0453 34.4586 11.8021C36.7288 10.9913 38.7963 9.73459 40.4584 7.95085C42.2827 6.00495 43.9854 3.93744 45.5259 1.78884C47.2285 -0.562447 49.6609 -0.643526 51.2014 1.82938C53.0662 4.86985 55.2148 7.66707 58.0526 9.81567C61.8633 12.6534 62.9579 12.8156 67.2145 10.4643C70.8631 8.43732 73.5792 5.39686 75.7683 1.86992C76.3359 0.937515 77.0251 0.207803 78.1602 0.0861849C79.6196 -0.0759732 80.6331 0.572659 81.3628 1.78884C83.0249 4.54553 85.0114 7.09952 87.5248 9.1265C88.5788 9.97783 89.7545 10.7886 90.9707 11.3967C91.822 11.8021 92.8355 12.0048 93.7679 12.0859C95.5516 12.2075 96.7273 13.3426 96.7273 15.0858C96.7273 16.8695 95.5111 18.1263 93.7273 18.1263C90.8085 18.1668 88.2545 17.1128 85.9032 15.4912C83.5114 13.8291 81.4033 11.8426 79.5385 9.61297C79.2547 9.24811 78.9304 8.88326 78.5656 8.47786C78.2818 8.80218 78.0386 9.04542 77.7953 9.32919C75.0792 12.4102 72.0387 15.0047 68.2685 16.7885C63.7281 18.9371 59.4309 18.5317 55.4175 15.4912C52.7419 13.5048 50.4311 11.1535 48.3636 8.47786C47.5123 9.41027 46.7015 10.3021 45.8907 11.194C43.7421 13.3831 41.3908 15.2885 38.6342 16.7074C34.418 18.9371 30.4452 18.6533 26.8777 15.4101C24.7291 13.3831 22.7427 11.194 20.7157 9.1265C20.513 8.9238 20.3103 8.68056 20.0671 8.35625C19.7022 8.76164 19.4184 9.12649 19.0941 9.45081C16.2969 12.6534 13.0132 15.329 8.99977 16.8695C7.41873 17.4776 5.71607 17.802 4.05395 18.0046C1.7432 18.2884 1.05403 17.8425 0 15.8155C0.0405395 15.329 0.0405395 14.802 0.0405395 14.3156Z" fill="#009FE3"/>
</g>
<g opacity="0.4">
<path d="M43.3133 42.3156C43.8808 40.6534 45.0565 39.9643 46.8402 40.0048C48.7456 40.0453 50.4482 39.2345 52.0698 38.3021C55.3535 36.3968 57.948 33.8023 60.0561 30.6807C60.2993 30.2753 60.5426 29.8699 60.8263 29.5051C62.2047 27.4781 64.6371 27.5186 66.0559 29.5051C67.7181 31.7753 69.3396 34.1266 71.245 36.1941C72.5017 37.5724 74.2449 38.5454 75.7854 39.6805C76.3935 40.1264 77.0421 40.0453 77.7313 39.8021C80.0015 38.9913 82.069 37.7346 83.7312 35.9508C85.5554 34.005 87.2581 31.9374 88.7986 29.7888C90.5013 27.4376 92.9336 27.3565 94.4741 29.8294C96.339 32.8698 98.4876 35.6671 101.325 37.8157C105.136 40.6534 106.231 40.8156 110.487 38.4643C114.136 36.4373 116.852 33.3969 119.041 29.8699C119.609 28.9375 120.298 28.2078 121.433 28.0862C122.892 27.924 123.906 28.5727 124.636 29.7888C126.298 32.5455 128.284 35.0995 130.798 37.1265C131.852 37.9778 133.027 38.7886 134.243 39.3967C135.095 39.8021 136.108 40.0048 137.041 40.0859C138.824 40.2075 140 41.3426 140 43.0858C140 44.8695 138.784 46.1263 137 46.1263C134.081 46.1668 131.527 45.1128 129.176 43.4912C126.784 41.8291 124.676 39.8426 122.811 37.613C122.527 37.2481 122.203 36.8833 121.838 36.4779C121.555 36.8022 121.311 37.0454 121.068 37.3292C118.352 40.4102 115.311 43.0047 111.541 44.7885C107.001 46.9371 102.704 46.5317 98.6903 43.4912C96.0146 41.5048 93.7039 39.1535 91.6364 36.4779C90.785 37.4103 89.9742 38.3021 89.1635 39.194C87.0149 41.3831 84.6636 43.2885 81.9069 44.7074C77.6908 46.9371 73.7179 46.6533 70.1504 43.4101C68.0018 41.3831 66.0154 39.194 63.9884 37.1265C63.7857 36.9238 63.583 36.6806 63.3398 36.3562C62.9749 36.7616 62.6912 37.1265 62.3668 37.4508C59.5696 40.6534 56.2859 43.329 52.2725 44.8695C50.6915 45.4776 48.9888 45.802 47.3267 46.0046C45.0159 46.2884 44.3268 45.8425 43.2727 43.8155C43.3133 43.329 43.3133 42.802 43.3133 42.3156Z" fill="#009FE3"/>
</g>
</svg>
