<svg width="112" height="87" viewBox="0 0 112 87" fill="none" xmlns="http://www.w3.org/2000/svg">
<path opacity="0.5" fill-rule="evenodd" clip-rule="evenodd" d="M84.098 85.9408C95.3052 80.5528 91.5679 63.8269 79.165 63.863C66.7478 63.8986 62.9832 80.1871 74.0643 85.9317C76.7371 87.3172 81.2267 87.3216 84.098 85.9408ZM76.3698 84.5998C71.0269 83.0148 68.0558 76.6894 70.3008 71.6784C74.6061 62.0688 88.6376 64.9111 88.6376 75.393C88.6376 82.0038 82.6833 86.4725 76.3698 84.5998ZM83.3581 82.6454C87.6 80.7206 89.1892 75.2351 86.4479 71.9805L85.7335 71.1325L86.1397 72.3477C87.2185 75.5772 84.0401 82.5963 81.4989 82.5963C81.2406 82.5963 80.9283 82.7601 80.8045 82.9602C80.4503 83.5327 81.7576 83.3718 83.3581 82.6454ZM24.598 67.4732C39.6198 63.8357 45.0374 44.9007 34.1701 34.0174C21.6021 21.4305 -0.0212784 30.179 0.00203705 47.8409C0.0191574 60.9286 12.0311 70.516 24.598 67.4732ZM12.778 62.8487C2.33776 57.6943 0.177643 44.1397 8.52884 36.1828C20.237 25.0272 39.4529 35.6005 36.132 51.3714C33.9336 61.8122 22.2798 67.5394 12.778 62.8487ZM24.0329 62.4418C27.4329 61.3315 30.9166 58.0845 31.9458 55.0664L32.5211 53.3803L30.3537 55.4453C25.5314 60.0399 18.4004 61.3533 12.7624 58.6853C10.7367 57.7271 10.3632 57.6394 10.6591 58.1911C12.4468 61.528 19.7371 63.8451 24.0329 62.4418ZM60.6271 52.6372C72.8008 48.0928 69.8683 30.4083 56.9408 30.4083C45.0151 30.4083 41.2439 46.5748 51.8901 52.0607C53.8651 53.0783 58.6065 53.3912 60.6271 52.6372ZM54.0476 50.7251C47.259 48.7111 45.3314 39.6699 50.6648 34.857C57.0279 29.1145 67.0885 34.0589 66.3176 42.5497C65.7587 48.706 60.054 52.5069 54.0476 50.7251ZM60.215 49.3785C61.077 48.9233 62.0381 48.1659 62.3507 47.6954L62.9195 46.8401L61.4785 47.5643C58.213 49.2053 54.4812 48.8829 51.6365 46.7138L49.9915 45.4597L50.5191 46.4685C52.34 49.951 56.6708 51.2506 60.215 49.3785ZM101.414 41.8401C111.81 40.0375 115.515 26.6471 107.587 19.5271C102.703 15.1407 95.2218 15.1854 90.3528 19.6305C80.8515 28.3044 88.6915 44.0459 101.414 41.8401ZM93.6741 38.3092C90.2075 36.4259 87.9501 32.0831 88.4095 28.1803C89.516 18.7749 100.667 15.1847 106.983 22.2009C114.983 31.0892 104.264 44.063 93.6741 38.3092ZM103.757 37.4096C107.507 35.4665 109.326 31.0029 107.812 27.4608L107.345 26.369L107.277 28.1308C107.132 31.9371 103.956 36.1915 100.535 37.1621C98.2086 37.8223 98.1273 38.1982 100.314 38.1807C101.586 38.1702 102.824 37.8932 103.757 37.4096ZM21.4265 17.1357C30.1209 13.1903 27.3105 3.8147e-05 17.7752 3.8147e-05C9.86556 3.8147e-05 5.7723 9.04444 10.9939 14.9845C13.3719 17.69 18.0699 18.6588 21.4265 17.1357ZM13.5205 15.0639C7.49449 10.8241 10.4008 1.64864 17.7752 1.63081C24.0865 1.61552 27.4682 8.97311 23.3189 13.6933C20.7704 16.5927 16.5354 17.1852 13.5205 15.0639ZM12.2228 10.3994C11.9153 7.67169 13.1806 5.07141 15.5568 3.54763L16.6822 2.82596L15.4996 3.03304C12.0319 3.64117 9.97341 7.79507 11.591 10.9201C12.3365 12.3599 12.4352 12.2787 12.2228 10.3994Z" fill="#009FE3"/>
</svg>
