<svg width="416" height="276" viewBox="0 0 416 276" fill="none" xmlns="http://www.w3.org/2000/svg">
<g clip-path="url(#clip0_320_815)">
<path opacity="0.5" fill-rule="evenodd" clip-rule="evenodd" d="M33.3584 2.1294C72.8274 19.0324 115.327 74.5184 138.137 138.922C141.157 147.447 146.661 162.972 150.369 173.422C181.095 260.014 196.795 315.287 203.771 361.422C213.696 427.065 214.13 467.534 205.222 496.922C202.427 506.144 200.05 511.447 199.126 510.524C198.805 510.202 198.051 510.326 197.45 510.798C196.849 511.27 193.208 512.679 189.358 513.929C185.508 515.179 180.558 516.996 178.358 517.966C176.158 518.937 171.578 520.633 168.18 521.736L162.002 523.742L157.68 521.657C106.886 497.152 13.0054 263.152 0.916382 130.922C-3.51562 82.4354 7.04337 15.3094 21.3544 0.998385C22.2164 0.135385 21.1614 3.4904 19.0084 8.4534C-6.72858 67.7934 -3.36255 143.361 30.3514 263.069C56.6505 356.451 112.427 475.209 145.823 508.926C150.517 513.665 152.289 515.266 149.761 512.482C141.409 503.289 132.016 489.847 123.165 474.422C120.955 470.572 116.409 462.697 113.061 456.922C91.6104 419.918 54.5473 326.385 36.9803 264.922C2.67633 144.899 -1.74356 68.5654 22.3624 12.4544C24.9924 6.33341 27.2635 9.9214 26.4554 18.9224C26.1354 22.4974 25.8694 27.3354 25.8654 29.6724C25.8614 32.1384 25.3884 33.9224 24.7384 33.9224C23.9414 33.9224 23.7924 30.5374 24.2224 22.1724C24.7744 11.4214 24.7065 10.7204 23.4185 13.9224C22.4635 16.2964 21.9634 22.0874 21.8644 31.9224C21.7834 39.8974 21.3024 47.3224 20.7944 48.4224C20.1934 49.7254 19.9633 45.4604 20.1364 36.1754C20.2813 28.3394 20.0464 22.8844 19.6144 24.0524C9.32037 51.8804 6.93439 105.026 13.8744 151.922C23.2414 215.22 52.2794 316.906 75.8424 368.922C78.4584 374.697 81.5024 381.493 82.6074 384.024C85.2694 390.127 96.2294 401.621 107.358 409.982C112.328 413.716 118.125 419.135 120.303 422.083C122.473 425.019 124.656 427.973 125.154 428.646C125.653 429.32 127.102 432.434 128.375 435.566L130.69 441.261L132.342 437.341C138.89 421.805 156.959 371.598 170.46 331.422C175.081 317.672 179.31 305.642 179.858 304.689C181.671 301.535 165.548 248.951 144.363 188.922C142.325 183.147 138.206 171.07 135.211 162.084C129.833 145.953 121.844 124.703 119.39 120.005C118.227 117.779 117.999 118.291 116.506 126.505C111.408 154.541 114.104 166.538 129.971 186.422C147.001 207.764 149.539 214.544 149.983 239.88C150.391 263.163 154.414 278.02 167.389 304.163C171.14 311.721 173.893 318.22 173.507 318.606C171.332 320.781 153.339 298.442 149.195 288.421L147.451 284.206L141.096 304.814C130.588 338.891 108.821 403.827 107.667 404.54C105.716 405.746 107.387 400.169 121.782 357.422C145.986 285.55 146.837 282.462 144.463 275.105C143.632 272.529 141.327 262.599 139.341 253.038C133.778 226.257 130.133 219.005 117.123 208.825C113.402 205.914 107.588 201.144 104.202 198.225L98.0454 192.917L94.3854 204.67C77.6734 258.331 74.3864 267.922 72.7064 267.922C71.6114 267.922 71.5514 268.234 73.8054 262.303C74.8754 259.487 80.5124 242.402 86.3324 224.337L96.9144 191.489L95.0184 188.925C87.3604 178.566 86.6854 174.682 85.9044 136.422C85.2334 103.533 85.1273 102.169 82.6414 94.6744C74.8884 71.2964 37.1894 21.6464 32.2844 28.3544C30.8924 30.2584 30.9333 31.4564 32.9073 46.6144C34.3054 57.3444 33.2963 66.6364 29.0743 81.9224C25.1283 96.2084 25.2234 117.099 29.2834 127.922C33.4494 139.026 45.9814 158.922 48.8094 158.922C50.3625 158.922 66.1794 119.719 77.4114 88.0294C77.6834 87.2634 78.1744 86.9044 78.5024 87.2334C79.7234 88.4544 57.0414 148.204 52.1584 156.627L49.7214 160.832L57.8195 170.123C73.7325 188.379 74.5044 193.595 66.3694 227.922C61.5744 248.153 63.1504 257.357 75.6084 281.884C92.4664 315.073 94.1224 326.57 84.7264 345.184C79.7424 355.056 78.6534 353.286 78.4135 334.922C78.0945 310.581 69.3824 286.684 52.6895 264.362C42.7134 251.023 40.3914 241.19 40.6604 213.422C40.9194 186.669 40.6434 185.411 29.3304 161.922C18.7984 140.055 16.8524 133.152 16.8674 117.714C16.9084 73.3594 25.7494 24.9224 33.8033 24.9224C34.9333 24.9224 35.8784 24.5854 35.9023 24.1724C35.9263 23.7594 36.3134 21.5204 36.7634 19.1964C37.4914 15.4324 37.3335 14.8084 35.3195 13.4884C33.0825 12.0234 33.0453 12.0744 31.9753 18.1464C31.3803 21.5234 30.3793 24.7674 29.7513 25.3544C28.9023 26.1464 28.7674 25.6484 29.2274 23.4224C31.2754 13.4954 31.2284 10.9224 28.9974 10.9224C27.8214 10.9224 26.8584 10.4724 26.8584 9.9224C26.8584 4.1154 49.7174 18.7744 65.7365 34.8534C97.1125 66.3504 116.469 101.214 139.339 167.422C180.299 285.997 191.616 326.813 199.786 385.422C201.473 397.522 203.114 408.997 203.433 410.922C204.221 415.673 204.377 417.183 205.859 434.404C207.335 451.56 206.72 471.678 204.29 485.749C203.404 490.879 202.889 495.287 203.146 495.544C206.266 498.663 210.432 451.009 208.957 429.084C204.246 359.071 191.915 301.526 164.243 220.422C128.926 116.91 123.92 104.599 104.82 74.2814C83.1664 39.9094 42.2154 1.9224 26.8174 1.9224C25.7404 1.9224 24.8584 1.4724 24.8584 0.922396C24.8584 -0.638604 27.9054 -0.206603 33.3584 2.1294ZM38.1564 21.1724C36.9634 26.8804 39.9684 33.2644 42.0754 29.4984C44.4204 25.3084 44.6294 19.0154 42.4734 17.5074C39.4164 15.3674 39.3594 15.4164 38.1564 21.1724ZM43.5594 31.5974C43.1995 32.1794 43.8224 33.4844 44.9434 34.4994C48.6964 37.8954 51.8235 25.7504 48.2205 21.7694C46.3994 19.7574 46.3654 19.7974 45.2954 25.1364C44.7004 28.1074 43.9194 31.0154 43.5594 31.5974ZM50.4644 31.7644C48.6894 38.7494 49.1554 40.1504 55.0974 45.6934L57.5323 47.9644L59.6464 40.7174C61.6143 33.9694 61.6464 33.3464 60.1104 31.6484C58.5384 29.9114 58.4044 30.0044 57.2854 33.6234C55.3464 39.8954 53.8365 43.2344 53.2205 42.6174C52.8994 42.2974 53.6823 39.1214 54.9594 35.5604L57.2814 29.0854L54.8204 27.0904C53.4664 25.9924 52.2944 25.1684 52.2164 25.2584C52.1394 25.3484 51.3503 28.2764 50.4644 31.7644ZM28.8894 36.4224C28.8894 36.9724 29.3254 36.7474 29.8584 35.9224C30.3914 35.0974 30.8274 33.9724 30.8274 33.4224C30.8274 32.8724 30.3914 33.0974 29.8584 33.9224C29.3254 34.7474 28.8894 35.8724 28.8894 36.4224ZM60.9395 42.8724C57.6974 54.5724 60.9334 57.7414 64.8734 46.7244L67.4854 39.4224L65.5013 37.1764C63.0594 34.4124 63.4025 33.9844 60.9395 42.8724ZM27.3074 41.3904C26.5104 43.2974 25.8604 45.2104 25.8634 45.6404C25.8714 46.9314 30.7834 40.5254 30.8224 39.1724C30.8954 36.6464 28.7144 38.0224 27.3074 41.3904ZM66.0804 48.4444C62.1884 61.2604 67.0864 63.9794 71.7144 51.5734C73.5934 46.5354 73.5924 46.4814 71.5444 43.7114C68.7234 39.8964 68.6584 39.9524 66.0804 48.4444ZM27.1184 47.6724C24.7544 51.5274 22.0044 58.1394 23.3324 56.7714C25.0714 54.9814 30.8584 45.4084 30.8584 44.3224C30.8584 42.0574 30.1974 42.6494 27.1184 47.6724ZM68.5094 60.5034C67.3694 60.9404 68.1604 62.8634 72.0764 69.1774C78.9074 80.1904 84.5094 92.0054 85.9474 98.4284C87.4794 105.276 88.3434 104.915 95.9154 94.2624L101.897 85.8454L99.2365 81.3044L96.5754 76.7634L92.1375 83.8434C89.6955 87.7364 87.2684 90.9224 86.7434 90.9224C85.6484 90.9224 86.1443 89.9714 91.6674 81.4734L95.5334 75.5244L92.9464 71.2554C90.4764 67.1804 88.8584 65.8364 88.8584 67.8604C88.8584 69.2614 80.5804 81.9774 80.0284 81.4254C79.7664 81.1634 81.6704 77.5154 84.2604 73.3194L88.9694 65.6894L86.2773 61.8064C82.8253 56.8244 82.6064 56.8724 78.8584 63.4224C77.1274 66.4474 75.2584 68.9224 74.7034 68.9224C73.7434 68.9224 76.0054 64.6264 80.0924 58.6864L81.9744 55.9504L78.7194 51.8984L75.4634 47.8474L72.7184 53.8944C71.2084 57.2204 69.3144 60.1944 68.5094 60.5034ZM52.8584 48.6754C52.8584 51.1154 47.9794 65.4084 39.9724 86.4224C29.3134 114.397 28.9304 115.327 28.3234 114.72C27.6924 114.089 31.1354 104.237 40.7434 79.1824C45.2234 67.5014 49.4094 55.6884 50.0454 52.9324C51.0064 48.7704 52.8584 45.9674 52.8584 48.6754ZM25.4064 57.2454C23.4554 60.9974 21.8584 65.0354 21.8584 66.2174V68.3674L23.4023 66.1624C29.5403 57.4004 34.7674 44.5594 30.4064 48.9584C29.6084 49.7634 27.3584 53.4924 25.4064 57.2454ZM25.5554 65.9224C24.4054 67.8474 23.1754 69.6474 22.8234 69.9224C22.4714 70.1974 21.9194 71.5474 21.5974 72.9224C21.0714 75.1724 21.1294 75.2314 22.1854 73.5154C22.8304 72.4654 25.2704 68.6934 27.6084 65.1324C29.9464 61.5714 31.8584 57.7114 31.8584 56.5544C31.8584 55.0134 31.2954 55.5164 29.7524 58.4374C28.5945 60.6294 26.7064 63.9974 25.5554 65.9224ZM26.7394 69.1724C24.3474 73.1594 22.0464 76.5724 21.6244 76.7554C21.2034 76.9394 20.8663 78.0644 20.8763 79.2554C20.8893 80.7724 21.7824 79.8114 23.8574 76.0484C27.0914 70.1814 28.9294 67.6594 29.5323 68.2624C29.7463 68.4764 27.8814 72.1004 25.3894 76.3154C19.8304 85.7184 19.0854 90.7244 24.3934 83.0084C28.4154 77.1604 29.6754 74.2484 30.2754 69.4044C30.5074 67.5354 30.9885 65.0864 31.3455 63.9634C32.5164 60.2724 31.1514 61.8164 26.7394 69.1724ZM22.9614 87.6614C21.1714 89.9934 19.8545 92.6394 20.0334 93.5434C20.3615 95.2014 25.7624 87.6434 27.2654 83.4224C28.0754 81.1464 27.6074 81.6074 22.9614 87.6614ZM97.4124 94.9464C94.7723 98.8094 91.5284 102.823 90.2024 103.866C88.0974 105.522 87.8154 106.505 87.9694 111.657L88.1464 117.554L96.6934 108.687C108.585 96.3524 108.258 96.9634 105.586 92.0424C102.742 86.8044 103.049 86.6954 97.4124 94.9464ZM22.4534 94.3504C19.2574 99.8044 18.8313 104.118 22.0013 98.9224C23.9873 95.6694 26.1464 89.9224 25.3834 89.9224C25.1994 89.9224 23.8804 91.9154 22.4534 94.3504ZM98.0554 109.812C90.4464 117.075 89.1694 119.734 88.6964 129.301L88.3064 137.18L101.082 124.036C115.138 109.575 114.939 109.989 111.29 102.787L108.721 97.7194L106.336 100.951C105.025 102.729 101.298 106.717 98.0554 109.812ZM19.1344 110.354C19.4694 112.242 19.5984 112.192 20.6184 109.769C21.2324 108.31 22.2124 106.821 22.7964 106.46C23.3804 106.099 23.8534 104.368 23.8464 102.613L23.8344 99.4224L21.3004 103.854C19.9074 106.292 18.9324 109.217 19.1344 110.354ZM18.8584 119.083C18.8584 120.829 19.2744 121.783 19.8734 121.413C21.4994 120.408 23.8594 113.955 23.8464 110.55L23.8344 107.422L21.3464 111.774C19.9784 114.168 18.8584 117.457 18.8584 119.083ZM89.4584 139.105C87.3244 142.454 87.6384 164.301 89.9364 172.368L91.0604 176.313L94.3544 170.368C98.1324 163.546 107.29 148.263 110.608 143.239C111.845 141.366 112.869 138.391 112.882 136.628C112.895 134.865 113.308 131.622 113.8 129.422C114.685 125.457 114.679 125.444 113.026 127.916C112.108 129.288 109.084 133.113 106.306 136.416C103.527 139.719 99.2524 145.33 96.8064 148.884C94.3594 152.437 92.0453 155.799 91.6624 156.355C91.2804 156.91 90.6805 157.078 90.3304 156.728C89.5534 155.95 98.4044 143.426 107.86 131.922C114.932 123.319 117.52 117.696 116.422 113.322C115.816 110.905 94.3464 131.434 89.4584 139.105ZM19.6304 127.508C20.4264 131.676 24.8584 125.231 24.8584 119.903V116.621L22.0134 120.857C20.1614 123.614 19.3294 125.936 19.6304 127.508ZM22.6434 129.324C20.0624 132.56 19.9904 132.939 21.1833 137.06L22.4384 141.393L25.4734 136.908C30.3864 129.647 27.8374 122.816 22.6434 129.324ZM24.1884 146.856L25.4794 149.927L27.9694 147.174C33.0144 141.596 33.0694 141.433 31.2184 137.551L29.5094 133.967L26.2034 138.876C23.1314 143.438 22.9883 144.002 24.1884 146.856ZM29.9283 147.474C23.9103 155.853 28.3924 161.143 34.6154 153.007L37.8713 148.749L35.7964 145.836C33.2354 142.239 33.8013 142.08 29.9283 147.474ZM103.23 158.636C100.55 163.154 96.8643 169.454 95.0374 172.636L91.7164 178.422L93.7205 182.561C96.5875 188.482 100.947 193.106 112.174 202.128C123.389 211.14 123.187 211.156 126.331 200.978C127.275 197.922 128.726 194.354 129.557 193.049C130.965 190.834 130.891 190.501 128.462 188.071C126.437 186.046 125.858 185.832 125.858 187.11C125.858 189.402 118.762 204.922 117.715 204.922C116.489 204.922 116.428 205.097 121.294 194.615L125.729 185.058L121.073 178.014L116.417 170.97L115.258 174.696C114.62 176.745 112.978 180.897 111.607 183.922C110.237 186.947 108.797 190.884 108.408 192.672C107.679 196.013 105.858 197.185 105.858 194.313C105.858 193.428 107.818 188.14 110.213 182.563C116.065 168.937 115.884 169.709 114.389 164.781L113.066 160.422L109.852 167.422C108.085 171.272 105.104 177.75 103.228 181.818C101.352 185.886 99.5484 188.945 99.2184 188.615C98.5914 187.988 107.741 166.618 110.861 161.422C112.32 158.993 112.561 157.045 112.127 151.186L111.591 143.949L109.847 147.186C108.887 148.966 105.909 154.118 103.23 158.636ZM31.8214 159.101C30.9124 159.404 31.0533 160.398 32.3654 162.936L34.1375 166.362L38.4974 161.545C40.8964 158.896 42.8584 157.232 42.8584 157.848C42.8584 158.463 41.0544 160.924 38.8494 163.316L34.8414 167.665L36.6364 171.674L38.4304 175.683L43.6635 169.29L48.8964 162.896L43.7284 156.448L38.5614 149.999L35.8044 154.346C34.2885 156.736 32.4964 158.876 31.8214 159.101ZM44.1714 171.164C39.3924 177.375 39.1974 178.053 40.8934 182.514C41.7544 184.78 41.9493 184.674 47.1053 179.137C55.6473 169.965 55.5104 170.245 52.8304 167.393C49.6855 164.044 49.6334 164.066 44.1714 171.164ZM46.3494 182.607C42.4584 186.58 42.2794 187.029 42.8054 191.499L43.3584 196.206L50.3584 186.906C54.2084 181.791 57.6714 177.128 58.0544 176.543C58.4364 175.958 59.0354 175.766 59.3844 176.115C59.7334 176.464 56.1584 181.89 51.4384 188.173C42.9164 199.519 42.8584 199.636 42.8634 205.509L42.8684 211.422L45.1134 207.812C49.4724 200.803 63.3634 183.046 63.7114 184.038C63.9064 184.59 60.7084 189.403 56.6044 194.732C44.6724 210.23 42.8564 213.641 42.8704 220.533L42.8824 226.422L45.3024 222.19C48.7064 216.236 65.9264 193.922 67.1174 193.922C67.7504 193.922 67.7604 194.37 67.1454 195.172C66.6194 195.86 63.7204 199.572 60.7034 203.422C57.6874 207.272 52.8975 213.797 50.0594 217.922C47.2214 222.047 44.3864 226.023 43.7594 226.758C43.0054 227.641 42.8484 230.117 43.2964 234.075C44.3344 243.253 44.5915 243.44 48.8094 238.103C53.2455 232.492 61.9154 224.646 62.7544 225.485C63.0774 225.808 60.7764 228.401 57.6404 231.247C47.7544 240.221 44.8184 244.926 46.5504 249.017L47.9924 252.422L50.6754 249.231C52.1514 247.476 55.2874 243.787 57.6444 241.033C70.8844 225.564 72.2144 190.634 60.1284 175.793L56.3584 171.164L53.4023 174.793C51.7773 176.789 48.6034 180.305 46.3494 182.607ZM119.858 177.642C119.858 179.399 113.778 196.312 112.765 197.372C111.165 199.047 111.75 196.427 115.019 187.274C118.048 178.794 119.858 175.191 119.858 177.642ZM259.108 183.002C261.847 184.597 261.237 189.247 256.858 200.163C251.087 214.546 250.745 213.673 264.608 219.935C284.913 229.108 288.954 235.202 272.189 231.368C248.54 225.959 243.306 228.595 244.297 245.412C245.818 271.19 234.951 269.467 231.042 243.31L229.464 232.751L226.502 233.343C224.872 233.669 219.223 235.912 213.948 238.327C198.923 245.207 193.971 246.051 193.873 241.749C193.813 239.082 203.282 230.43 213.569 223.752C222.029 218.26 223.384 216.134 220.108 213.49C194.858 193.116 193.542 185.984 217.162 197.518C234.895 206.177 233.12 206.711 250.388 187.514C255.653 181.66 256.262 181.345 259.108 183.002ZM253.164 186.39C251.621 187.748 250.92 188.873 251.608 188.89C252.295 188.908 252.858 189.625 252.858 190.485C252.858 191.476 252.143 191.933 250.904 191.735C248.598 191.366 243.702 197.352 244.535 199.522C244.83 200.292 244.547 200.922 243.906 200.922C243.265 200.922 243.065 201.448 243.463 202.092C243.949 202.878 243.641 203.053 242.524 202.624C241.602 202.27 239.336 202.887 237.43 204.012C233.619 206.261 229.456 205.693 221.446 201.832C218.389 200.359 217.222 200.205 216.112 201.126C214.398 202.548 210.973 202.917 210.255 201.756C209.971 201.295 211.002 200.435 212.548 199.845L215.358 198.771L212.861 197.429C211.162 196.516 209.977 196.408 209.155 197.091C207.569 198.407 205.79 197.263 206.509 195.39C206.896 194.381 206.402 193.922 204.93 193.922C201.477 193.922 204.829 198.239 214.545 206.303C217.347 208.628 219.677 207.485 217.358 204.922C212.952 200.053 221.145 202.625 230.538 209.059C236.129 212.888 235.652 213.082 244.445 203.422C248.701 198.747 252.559 194.922 253.02 194.922C254.726 194.922 253.771 198.189 250.802 202.503C243.003 213.839 243.402 215.88 254.092 219.317C263.579 222.367 265.327 222.156 257.359 218.923C249.164 215.596 249.045 214.909 254.335 201.533C260.706 185.425 260.295 180.116 253.164 186.39ZM257.122 188.52C257.924 189.321 256.875 191.922 255.751 191.922C255.26 191.922 254.858 191.022 254.858 189.922C254.858 187.973 255.919 187.316 257.122 188.52ZM128.919 199.164C127.636 203.148 125.949 207.38 125.169 208.57C123.859 210.57 124.131 211.254 128.769 217.61C131.528 221.392 134.859 227.34 136.17 230.829L138.555 237.172L142.206 227.747C146.082 217.744 146.369 216.278 144.901 213.958C143.9 212.375 137.86 223.708 137.859 227.172C137.858 228.134 137.408 228.922 136.858 228.922C135.216 228.922 135.679 227.07 139.358 218.922C143.08 210.679 143.374 209.286 141.887 206.935C141.171 205.802 139.997 207.469 136.959 213.935C134.766 218.603 132.946 221.569 132.915 220.527C132.883 219.485 134.447 215.328 136.39 211.289C139.796 204.206 139.866 203.838 138.347 200.901C136.792 197.894 134.858 197.67 134.858 200.496C134.858 202.157 129.133 212.634 127.763 213.481C126.196 214.449 126.762 212.834 129.924 207.306C134.036 200.119 135.083 196.255 133.572 193.836C131.771 190.951 131.444 191.326 128.919 199.164ZM250.708 194.872C250.488 195.532 249.982 196.038 249.583 195.997C248.387 195.873 248.619 194.502 249.908 194.072C250.568 193.852 250.928 194.212 250.708 194.872ZM240.585 210.172C235.93 214.752 235.324 214.774 229.22 210.585C220.246 204.425 218.979 204.213 224.108 209.728C230.931 217.066 230.423 218.656 218.61 226.932C211.969 231.585 213.38 231.758 222.143 227.367C233.662 221.594 236.648 223.591 237.026 237.321C237.148 241.735 237.294 242.316 237.555 239.422C239.006 223.342 241.579 220.077 251.349 221.92C254.978 222.605 258.174 222.94 258.45 222.664C258.726 222.388 257.243 221.869 255.155 221.511C241.738 219.208 240.403 215.107 248.863 202.183L251.98 197.422L248.188 201.922C246.102 204.397 242.681 208.11 240.585 210.172ZM236.67 206.985C236.43 207.706 235.642 208.494 234.92 208.735C234.17 208.985 233.795 208.61 234.045 207.86C234.286 207.138 235.074 206.35 235.795 206.11C236.545 205.86 236.92 206.235 236.67 206.985ZM66.8064 208.171C66.8344 209.134 62.9124 214.084 58.0905 219.171C53.2675 224.259 48.3114 229.728 47.0764 231.325C45.8414 232.921 44.5484 233.945 44.2034 233.6C43.4624 232.859 48.2054 227.029 57.1464 217.689C60.6914 213.986 64.3034 209.936 65.1724 208.689C66.4944 206.793 66.7624 206.709 66.8064 208.171ZM367.858 211.982C388.289 223.215 403.41 252.951 410.898 296.621C422.161 362.302 414.92 454.164 387.741 590.422C371.471 671.991 329.609 742.133 304.24 730.336C231.113 696.33 245.99 301.925 323.286 225.422C338.62 210.244 355.461 205.166 367.858 211.982ZM222.332 213.074C225.995 217.427 225.186 218.719 214.939 224.873C212.695 226.221 210.858 227.937 210.858 228.687C210.858 230.024 220.162 224.082 224.724 219.832C227.605 217.148 223.885 207.552 220.721 209.507C220.218 209.818 220.943 211.423 222.332 213.074ZM345.949 212.817C305.49 225.409 276.514 304.074 263.955 435.422C250.067 580.659 267.693 709.472 303.987 727.988C323.6 737.993 351.261 701.01 374.343 633.922C388.708 592.17 408.811 470.163 412.931 399.729C419.859 281.287 390.368 198.992 345.949 212.817ZM365.858 220.986C399.984 239.774 417.624 320.209 409.047 417.922C404.781 466.523 397.087 518.612 384.28 585.59C370.781 656.195 339.91 717.768 314.435 724.9C276.437 735.539 248.887 579.519 266.322 452.422C282.635 333.503 282.687 333.192 290.375 307.922C305.311 258.821 330.593 223.334 353.768 218.939C360.559 217.651 359.464 217.466 365.858 220.986ZM351.467 221.436C341.716 223.975 329.79 233.468 322.587 244.423L319.957 248.422L320.91 271.922C322.21 303.969 324.687 358.388 325.891 381.359C326.481 392.6 326.518 400.662 325.983 401.197C324.273 402.907 318.91 300.192 318.826 264.12C318.788 247.771 318.896 247.734 309.267 267.422C298.036 290.384 288.579 318.227 284.923 339.089L283.121 349.369L294.871 374.896C301.334 388.935 307.456 402.897 308.477 405.922C309.497 408.947 310.406 411.565 310.496 411.739C310.586 411.914 312.945 410.898 315.739 409.482C330.994 401.752 350.696 402.272 363.238 410.736L367.805 413.819L370.716 407.62C372.316 404.211 378.606 388.597 384.693 372.922C397.268 340.539 404.391 323.829 406.059 322.798C409.684 320.557 396.935 264.739 389.871 251.922C388.016 248.556 387.94 248.521 387.9 251.019C387.735 261.209 357.446 400.213 354.705 403.355C352.708 405.645 353.101 402.359 356.32 389.844C361.514 369.65 370.24 330.194 380.41 280.922C383.418 266.347 386.283 252.71 386.776 250.617C388.369 243.861 376.409 228.453 364.858 222.381C359.46 219.543 358.888 219.503 351.467 221.436ZM143.879 227.922C142.649 231.497 141.05 235.367 140.325 236.522C138.923 238.759 139.483 247.708 140.934 246.232C143.527 243.594 147.751 229.418 147.181 225.264C146.85 222.846 146.474 220.993 146.347 221.145C146.219 221.297 145.109 224.347 143.879 227.922ZM264.847 223.409C265.526 224.227 265.838 225.533 265.539 226.311C265.218 227.148 265.755 227.923 266.854 228.211C268.857 228.735 267.685 224.348 265.378 222.687C263.739 221.507 263.518 221.808 264.847 223.409ZM243.626 224.672C241.028 227.619 238.508 242.875 240.858 241.422C241.408 241.082 241.858 239.056 241.858 236.919C241.858 230.205 244.969 227.743 254.199 227.151C262.563 226.614 265.644 224.995 258.667 224.804C256.297 224.739 253.008 224.342 251.358 223.922C246.534 222.694 245.26 222.818 243.626 224.672ZM268.858 224.422C268.858 224.697 269.083 224.922 269.358 224.922C269.633 224.922 269.858 224.697 269.858 224.422C269.858 224.147 269.633 223.922 269.358 223.922C269.083 223.922 268.858 224.147 268.858 224.422ZM270.858 226.883C270.858 228.802 278.246 231.867 279.602 230.511C280.17 229.943 278.599 229.252 275.555 228.731C274.564 228.561 273.815 228.022 273.891 227.534C274.004 226.807 272.063 224.996 271.108 224.937C270.97 224.929 270.858 225.805 270.858 226.883ZM130.476 226.475C130.148 227.329 127.445 235.767 124.469 245.225C119.247 261.824 114.296 278.256 96.8405 336.922C88.0735 366.386 88.1344 366.211 86.9044 365.45C86.4554 365.173 88.0274 358.753 90.3984 351.184C92.7694 343.615 97.4784 327.972 100.864 316.422C116.638 262.611 128.677 224.922 130.092 224.922C130.631 224.922 130.804 225.621 130.476 226.475ZM222.559 229.422C219.057 231.347 215.442 232.922 214.525 232.922C213.608 232.922 212.858 233.549 212.858 234.315C212.858 235.081 212.166 235.974 211.32 236.298C209.448 237.016 208.048 234.041 209.76 232.983C210.649 232.433 210.573 231.931 209.463 231.01C208.23 229.986 207.18 230.506 203.351 234.035C198.393 238.606 196.068 241.922 197.823 241.922C198.392 241.922 198.858 241.247 198.858 240.422C198.858 239.597 199.356 238.922 199.965 238.922C200.574 238.922 200.799 239.635 200.464 240.506C200.078 241.513 200.312 241.934 201.107 241.663C201.795 241.428 202.217 240.265 202.045 239.079C201.844 237.693 202.266 236.922 203.226 236.922C204.047 236.922 204.863 235.909 205.038 234.672C205.214 233.435 205.808 232.564 206.358 232.738C206.908 232.911 207.21 233.766 207.03 234.637C206.696 236.249 204.412 238.993 203.71 238.624C203.498 238.513 203.648 238.828 204.044 239.325C204.451 239.836 207.064 239.235 210.061 237.942C224.392 231.757 227.204 230.792 229.335 231.327C231.609 231.897 232.858 235.168 232.858 240.547C232.858 241.853 233.366 242.922 233.987 242.922C235.096 242.922 234.462 230.658 233.18 227.32C232.324 225.089 229.384 225.671 222.559 229.422ZM209.858 234.422C209.858 234.697 210.083 234.922 210.358 234.922C210.633 234.922 210.858 234.697 210.858 234.422C210.858 234.147 210.633 233.922 210.358 233.922C210.083 233.922 209.858 234.147 209.858 234.422ZM141.865 247.414C141.003 248.452 140.953 249.633 141.685 251.638C142.243 253.169 142.736 253.857 142.779 253.167C142.822 252.477 143.983 249.58 145.358 246.73C146.733 243.88 147.847 239.944 147.834 237.985C147.811 234.508 147.753 234.562 145.436 240.198C144.129 243.374 142.522 246.621 141.865 247.414ZM51.2434 250.595L48.1284 253.852L52.0714 259.887C56.7584 267.06 55.8584 266.846 59.5604 261.672C61.9114 258.386 62.4904 256.683 62.1144 254.162L61.6284 250.902L57.6204 255.455C52.3414 261.452 51.4994 260.417 56.6234 254.23C59.8804 250.298 60.7084 248.42 61.1664 243.922L61.7274 238.422L58.0424 242.88C56.0164 245.332 52.9564 248.804 51.2434 250.595ZM240.746 247.209C241.562 248.026 241.858 247.914 241.858 246.789C241.858 245.945 241.53 244.927 241.129 244.526C240.728 244.125 240.227 244.315 240.016 244.947C239.805 245.579 240.134 246.598 240.746 247.209ZM234.275 249.13C235.209 254.972 238.55 262.231 239.915 261.387C240.551 260.994 240.749 259.622 240.381 258.158C240.03 256.757 240.157 255.344 240.665 255.017C241.173 254.69 241.939 253.301 242.367 251.93C243.063 249.705 242.971 249.583 241.515 250.792C240.618 251.536 239.226 251.893 238.422 251.585C237.44 251.208 237.143 251.5 237.516 252.473C237.822 253.27 237.574 253.922 236.965 253.922C236.356 253.922 235.858 253.022 235.858 251.922C235.858 250.822 236.318 249.922 236.881 249.922C237.444 249.922 237.167 248.797 236.266 247.422C233.959 243.901 233.502 244.294 234.275 249.13ZM144.95 252.116C142.78 258.54 142.317 261.925 143.608 261.918C144.944 261.912 147.858 253.508 147.858 249.661C147.858 244.526 147.376 244.933 144.95 252.116ZM239.191 249.589C239.558 249.955 240.158 249.955 240.525 249.589C240.891 249.222 240.591 248.922 239.858 248.922C239.125 248.922 238.825 249.222 239.191 249.589ZM146.097 260.903C144.32 264.495 144.095 269.938 145.725 269.912C147.029 269.891 149.601 262.03 149.123 259.526C148.481 256.17 148.427 256.194 146.097 260.903ZM60.1084 263.42C57.3374 267.698 57.3384 267.76 60.1804 271.312L62.4934 274.202L64.5574 271.577C66.5414 269.055 66.5584 268.778 64.9984 264.438C63.0524 259.028 62.9654 259.01 60.1084 263.42ZM147.664 269.598C146.187 272.747 146.144 273.607 147.332 276.316C148.082 278.024 148.734 278.747 148.783 277.922C148.831 277.097 149.49 275.235 150.247 273.784C151.545 271.296 151.368 265.884 149.991 265.955C149.643 265.972 148.596 267.612 147.664 269.598ZM64.6234 278.775C67.7424 283.905 71.3084 279.198 68.6774 273.423L67.4954 270.83L65.1003 273.226L62.7043 275.621L64.6234 278.775ZM149.259 279.461C148.977 280.583 149.277 282.833 149.926 284.461L151.104 287.422L152.558 283.99C154.54 279.311 153.46 272.379 151.225 275.435C150.425 276.528 149.541 278.34 149.259 279.461ZM68.7444 286.672C71.3024 292.273 75.2683 287.74 72.8713 281.955L71.6014 278.887L69.4304 281.154C67.3984 283.278 67.3544 283.629 68.7444 286.672ZM153.077 291.331C154.014 293.081 154.222 292.96 155.498 289.928C157.629 284.858 156.18 281.432 153.828 285.981C152.503 288.542 152.312 289.902 153.077 291.331ZM72.6534 295.618C73.8925 298.216 74.4874 298.645 75.5874 297.732C78.4824 295.329 78.9094 293.172 77.1094 290.036L75.3684 287.003L73.2334 289.681C71.2214 292.205 71.1884 292.545 72.6534 295.618ZM157.577 299.073C160.607 303.652 164.231 302.27 161.613 297.534C160.58 295.665 160.403 295.624 160.078 297.172C159.877 298.134 159.294 298.922 158.785 298.922C157.599 298.922 157.619 298.54 158.961 295.596C159.784 293.788 159.753 292.595 158.839 290.886L157.614 288.597L156.26 291.817C155.005 294.802 155.101 295.332 157.577 299.073ZM76.2854 305.387L77.5804 309.153L80.2284 305.681C82.8104 302.296 82.8374 302.115 81.2994 298.434L79.7214 294.659L77.3564 298.14C75.1805 301.343 75.0944 301.923 76.2854 305.387ZM165.353 308.714C168.708 312.131 168.898 312.207 167.765 309.672C167.09 308.159 166.159 306.922 165.697 306.922C165.236 306.922 164.858 306.097 164.858 305.089C164.858 302.485 163.625 301.586 162.59 303.436C161.943 304.592 162.673 305.985 165.353 308.714ZM78.5013 313.422C79.3004 317.481 79.5054 317.568 81.8054 314.814C84.4734 311.619 85.1704 309.3 84.3934 306.204L83.7474 303.631L80.8293 307.026C78.5164 309.718 78.0343 311.044 78.5013 313.422ZM169.98 338.496C156.783 377.741 157.254 370.676 167.007 383.068C171.489 388.763 176.361 396.05 177.833 399.262L180.51 405.101L183.841 397.46C185.674 393.258 189.127 386.65 191.515 382.776C193.904 378.902 195.858 374.945 195.858 373.982C195.858 369.01 182.157 304.176 181.316 305.169C181.199 305.308 176.097 320.305 169.98 338.496ZM82.1024 316.958C78.6394 321.206 80.1854 323.941 83.9894 320.297C87.8154 316.631 87.6934 318.934 83.8584 322.768C81.1854 325.441 80.9424 326.175 81.6304 329.487L82.4023 333.205L85.4414 329.744L88.4794 326.284L87.4834 318.424C86.6844 312.122 86.2754 310.924 85.4224 312.377C84.8374 313.374 83.3434 315.435 82.1024 316.958ZM400.826 336.672C397.938 343.685 391.857 359.135 387.311 371.005C377.312 397.119 370.876 413.042 369.722 414.52C369.196 415.195 369.668 416.345 370.947 417.502C376.531 422.556 384.372 435.88 387.889 446.295C389.121 449.94 390.287 452.922 390.482 452.922C390.677 452.922 393.726 451.766 397.257 450.352C404.5 447.452 404.36 447.716 405.432 435.025C406.26 425.23 406.772 425.245 396.085 434.744C392.084 438.3 388.574 440.971 388.284 440.681C387.839 440.237 396.671 431.861 404.547 425.258C406.567 423.565 408.858 401.141 408.858 383.068C408.858 380.722 404.223 386.576 386.966 410.714C382.92 416.374 379.379 420.776 379.098 420.495C378.395 419.792 380.202 417.125 395.656 396.068L409.127 377.713L408.487 352.068C408.136 337.963 407.775 325.86 407.686 325.172C407.293 322.136 405.737 324.744 400.826 336.672ZM81.6714 338.4C81.2934 341.635 81.3244 341.664 83.4794 340.057C85.3444 338.666 87.8584 333.105 87.8584 330.369C87.8584 327.95 82.0044 335.549 81.6714 338.4ZM80.7684 345.658C80.2374 347.056 80.0063 348.404 80.2563 348.654C80.6993 349.097 83.8584 343.623 83.8584 342.413C83.8584 341.005 81.6594 343.315 80.7684 345.658ZM282.052 356.672C281.924 358.185 280.297 370.145 278.436 383.252L275.052 407.082L283.38 418.244C287.96 424.383 291.528 429.586 291.307 429.806C290.511 430.602 287.646 427.439 281.698 419.2C274.359 409.034 274.978 408.47 272.39 427.679L270.269 443.422L273.307 444.726C274.977 445.443 277.328 446.955 278.531 448.085L280.719 450.14L283.925 443.781C289.739 432.252 296.24 423.8 305.226 416.094L309.094 412.776L306.608 406.099C298.445 384.17 282.448 351.971 282.052 356.672ZM133.967 438.767L131.813 444.111L136.34 458.417C138.829 466.285 141.697 474.578 142.713 476.846L144.559 480.969L149.572 472.696L154.586 464.422L154.111 455.403C153.687 447.36 154.022 444.924 157.21 432.903C162.471 413.064 162.835 400.419 158.733 379.997L157.643 374.571L146.883 403.997C140.964 420.181 135.152 435.827 133.967 438.767ZM160.191 378.589C160.558 378.955 160.858 378.655 160.858 377.922C160.858 377.189 160.558 376.889 160.191 377.255C159.825 377.622 159.825 378.222 160.191 378.589ZM187.29 394.452L180.898 407.481L181.956 413.952C183.209 421.609 182.527 430.718 179.377 448.422C174.58 475.39 173.95 475.657 189.394 444.172L202.025 418.422L199.208 398.131C195.941 374.597 196.886 374.888 187.29 394.452ZM160.873 382.172C160.886 383.991 161.074 384.135 161.858 382.922C163.111 380.983 163.111 379.922 161.858 379.922C161.308 379.922 160.865 380.935 160.873 382.172ZM162.465 384.504C160.509 389.601 162.619 392.876 164.829 388.172C165.66 386.401 166.293 385.902 166.605 386.77C166.872 387.511 166.138 389.405 164.974 390.979C163.81 392.553 162.879 395.097 162.905 396.632L162.952 399.422L165.655 395.993C167.142 394.107 168.868 392.082 169.492 391.493C170.326 390.705 169.842 389.432 167.658 386.672C164.396 382.551 163.378 382.125 162.465 384.504ZM163.888 404.919L163.858 409.416L167.431 404.419C169.396 401.671 171.387 398.751 171.856 397.93C172.324 397.11 173.01 396.741 173.379 397.11C174.022 397.753 169.446 405.225 165.839 409.422C164.309 411.203 162.274 416.922 163.171 416.922C163.363 416.922 164.911 414.784 166.609 412.172C169.739 407.357 175.858 400.868 175.858 402.364C175.858 402.812 174.342 404.857 172.49 406.908C166.713 413.302 158.522 428.919 160.111 430.508C160.359 430.757 164.309 426.001 168.889 419.941C173.468 413.881 177.593 408.922 178.055 408.922C179.353 408.922 177.877 404.037 174.595 397.466L171.621 391.509L167.769 395.966C164.551 399.689 163.913 401.162 163.888 404.919ZM87.1914 395.589C87.5584 395.955 87.8584 395.655 87.8584 394.922C87.8584 394.189 87.5584 393.889 87.1914 394.255C86.8254 394.622 86.8254 395.222 87.1914 395.589ZM89.8584 400.863C89.8584 403.168 91.4954 404.473 92.1364 402.678C92.3824 401.987 92.9354 401.749 93.3644 402.148C93.7924 402.547 93.6094 403.516 92.9574 404.302C92.2774 405.122 92.0494 406.834 92.4224 408.319C93.1464 411.204 94.8584 410.883 94.8584 407.863C94.8584 406.795 95.3384 405.922 95.9254 405.922C96.5124 405.922 96.7594 406.71 96.4734 407.672C94.1214 415.588 94.7174 417.478 97.3724 410.524L99.0524 406.126L95.2054 402.551C90.7895 398.448 89.8584 398.153 89.8584 400.863ZM321.518 408.926C299.427 417.274 281.799 443.223 275.312 476.942C268.493 512.39 274.745 653.824 284.017 673.875L286.358 678.937L296.358 670.822C301.858 666.359 311.096 658.506 316.887 653.371C330.046 641.703 343.425 630.781 356.358 621.148C361.858 617.051 366.429 613.637 366.516 613.561C369.301 611.123 383.846 549.771 388.479 520.922C400.98 443.072 369.682 390.726 321.518 408.926ZM96.9655 415.317C96.4034 416.009 97.2004 418.806 99.0984 422.804L102.127 429.185L105.605 421.804C107.518 417.744 109.277 414.932 109.515 415.555C109.752 416.178 108.355 419.958 106.409 423.956L102.872 431.224L112.046 449.073C117.092 458.89 121.583 466.922 122.026 466.922C124.208 466.922 131.923 451.886 131.186 449.07C130.323 445.768 129.507 446.391 125.32 453.551C123.188 457.197 121.27 459.658 121.058 459.021C120.845 458.384 122.549 454.869 124.843 451.209C128.918 444.71 128.987 444.455 127.807 440.239C126.233 434.619 125.78 434.772 122.96 441.873C120.251 448.693 116.991 454.389 116.232 453.629C115.947 453.344 117.771 448.795 120.286 443.52C125.555 432.467 125.4 433.265 122.987 429.604L121.129 426.786L118.402 434.618C115.626 442.594 113.342 446.739 112.299 445.696C111.98 445.377 112.603 443.382 113.684 441.262C119.037 430.771 120.51 420.922 116.728 420.922C116.053 420.922 112.964 427.117 110.224 433.965C109.353 436.141 108.24 437.922 107.749 437.922C106.337 437.922 106.661 436.956 111.224 427.564L115.527 418.707L110.603 414.814C104.741 410.181 104.289 410.108 103.495 413.672C102.805 416.77 100.174 420.571 99.3145 419.712C99.0045 419.401 99.6734 417.634 100.8 415.785C103.151 411.928 103.377 409.841 101.631 408.095C100.662 407.126 100.138 407.64 99.1334 410.54C98.4344 412.56 97.4594 414.709 96.9655 415.317ZM168.049 423.52C164.273 428.416 160.702 432.323 160.113 432.203C159.122 432 156.185 441.591 156.995 442.385C157.195 442.58 159.549 440.194 162.227 437.081C169.604 428.507 179.052 418.783 179.536 419.267C180.183 419.913 158.797 443.371 157.221 443.745C151.338 445.141 163.57 486.922 169.862 486.922C172.182 486.922 175.434 481.175 174.916 477.991L174.358 474.56L171.507 478.307C169.939 480.367 168.422 481.82 168.137 481.534C167.851 481.248 169.021 479.105 170.738 476.771C172.926 473.795 173.858 471.405 173.858 468.768V465.008L169.207 469.98C162.606 477.037 162.48 475.22 169.049 467.696C172.63 463.593 174.896 459.936 175.596 457.129C176.898 451.91 174.948 452.864 171.833 458.972C169.162 464.206 164.965 468.928 163.019 468.886C161.752 468.859 161.983 468.326 163.996 466.636C165.447 465.418 168.314 461.722 170.368 458.422C172.421 455.122 174.685 451.95 175.397 451.372C176.109 450.795 177.025 448.55 177.431 446.383L178.171 442.443L173.19 448.432C170.451 451.727 166.946 456.335 165.401 458.672C162.184 463.539 160.034 464.417 162.363 459.912C163.836 457.063 174.774 443.589 177.387 441.405C178.056 440.845 178.916 438.37 179.299 435.905L179.994 431.422L173.176 438.452C169.426 442.319 164.723 447.494 162.725 449.952C160.727 452.411 158.8 454.145 158.442 453.806C157.611 453.018 162.259 447.525 172.308 437.422L180.265 429.422L180.216 420.827C180.158 410.568 179.344 408.534 176.733 412.119C175.732 413.493 171.824 418.623 168.049 423.52ZM201.858 422.422C201.858 422.697 202.083 422.922 202.358 422.922C202.633 422.922 202.858 422.697 202.858 422.422C202.858 422.147 202.633 421.922 202.358 421.922C202.083 421.922 201.858 422.147 201.858 422.422ZM201.882 430.757C202.426 430.942 202.607 431.519 202.285 432.04C201.963 432.561 201.295 434.435 200.801 436.205L199.902 439.422L201.903 436.922C203.274 435.207 203.739 433.519 203.38 431.547C203.093 429.966 202.819 427.716 202.772 426.547C202.707 424.93 202.472 425.14 201.79 427.422C201.222 429.323 201.256 430.545 201.882 430.757ZM195.858 434.66C195.858 434.869 196.366 434.726 196.988 434.342C197.68 433.914 197.922 434.182 197.613 435.033C197.335 435.797 196.663 436.33 196.12 436.218C193.646 435.706 177.404 472.174 177.489 478.048C177.791 498.711 194.434 499.343 197.796 478.82C199.831 466.395 199.675 426.42 197.608 430.676C196.646 432.658 195.858 434.45 195.858 434.66ZM343.095 434.379C386.08 450.825 383.351 522.69 337.854 572.422C324.962 586.514 319.715 596.559 319.716 607.145C319.717 619.436 324.871 620.979 326.351 609.132C328.209 594.262 337.203 579.694 352.496 566.786C370.257 551.794 373.786 546.458 374.549 533.44C375.254 521.407 376.46 520.311 380.7 527.854C387.914 540.69 378.886 556.695 351.585 579.472C337.944 590.853 333.629 596.012 331.691 603.258C331.022 605.758 330.162 607.61 329.78 607.374C329.398 607.138 328.851 607.839 328.565 608.933C327.666 612.372 328.687 611.468 353.567 586.775C366.949 573.495 378.124 562.855 378.401 563.132C378.935 563.666 283.454 659.188 281.819 659.755C278.918 660.761 282.6 656.729 298.918 641.03L316.978 623.655L313.168 621.921C289.906 611.329 295.803 581.796 325.683 559.24C351.047 540.094 356.805 528.988 355.618 501.501C354.535 476.409 336.336 458.494 322.075 468.483C310.821 476.365 317.537 496.922 331.367 496.922C334.185 496.922 335.736 497.311 335.358 497.922C330.456 505.853 314.858 492.905 314.858 480.904C314.858 454.288 350.266 461.861 356.873 489.891C363.549 518.212 354.396 540.079 327.358 560.402C300.602 580.513 293.886 603.325 310.442 617.862C316.45 623.137 322.377 621.76 319.297 615.804C314.292 606.126 320.058 589.739 333.858 574.422C362.862 542.23 372.302 519.226 370.542 485.034C368.305 441.613 334.485 419.612 308.022 444.365C281.724 468.964 298.128 515.959 329.418 505.658C334.409 504.015 335.524 504.036 334.461 505.755C330.58 512.035 309.92 508.292 301.166 499.723C275.107 474.215 309.032 421.346 343.095 434.379ZM200.323 444.145C200.187 446 200.314 445.973 201.994 443.787C202.995 442.486 203.8 440.522 203.783 439.422C203.743 436.726 200.549 441.086 200.323 444.145ZM200.89 449.794C200.863 451.791 201.096 451.97 202.358 450.922C203.183 450.237 203.858 448.296 203.858 446.608C203.858 443.696 203.783 443.638 202.39 445.481C201.582 446.548 200.907 448.49 200.89 449.794ZM269.84 447.172C269.83 447.86 269.154 453.12 268.338 458.862C267.155 467.181 267.108 469.463 268.106 470.096C270.045 471.327 273.88 471.064 274.281 469.672C274.479 468.985 275.815 464.814 277.25 460.404C280.474 450.493 280.566 451.475 276.126 448.458C272.039 445.681 269.868 445.237 269.84 447.172ZM396.858 452.463C390.606 454.908 390.773 454.461 392.392 464.435C397.028 492.997 388.462 549.05 370.419 608.224C352.991 665.381 345.943 681.956 331.437 699.91C313.048 722.67 293.824 711.645 280.02 670.422C271.222 644.147 266.076 506.612 272.775 476.794C273.593 473.154 273.563 473.106 270.2 472.714C264.979 472.104 264.897 472.941 264.778 527.922C264.324 737.066 318.812 789.017 371.233 629.422C380.871 600.078 394.968 523.432 403.305 455.045C403.818 450.841 403.677 449.781 402.659 450.186C401.944 450.47 399.333 451.495 396.858 452.463ZM200.858 457.103C200.858 459.895 203.032 457.283 204.337 452.922L205.085 450.422L202.972 452.63C201.809 453.845 200.858 455.857 200.858 457.103ZM128.954 459.732C127.341 462.927 125.309 466.132 124.44 466.854C122.381 468.563 128.165 481.378 133.465 486.849C135.841 489.302 141.395 478.825 139.568 475.338L138.17 472.669L135.264 476.774C133.666 479.032 131.969 480.889 131.493 480.901C130.499 480.925 133.187 476.455 136.093 473.248C137.826 471.336 137.921 470.644 136.883 467.498C135.41 463.035 135.811 462.892 131.257 469.504C129.143 472.574 127.245 474.584 127.041 473.97C126.836 473.356 128.528 470.391 130.801 467.381C134.829 462.046 134.903 461.806 133.738 457.915C132.236 452.902 132.441 452.824 128.954 459.732ZM200.873 464.827C200.885 467.516 201.133 468.044 201.858 466.922C202.712 465.6 202.829 465.606 202.843 466.972C202.851 467.825 202.467 468.95 201.988 469.472C201.082 470.462 199.675 477.922 200.395 477.922C201.777 477.922 203.986 471.151 203.619 468.04C203.384 466.05 203.527 462.926 203.936 461.097C204.659 457.872 204.624 457.824 202.77 459.502C201.555 460.601 200.864 462.542 200.873 464.827ZM150.462 474.308C144.64 483.649 146.226 488.82 157.369 496.823C171.014 506.621 174.113 499.674 163.99 481.984C161.295 477.275 158.351 471.96 157.448 470.172C155.344 466.006 155.806 465.733 150.462 474.308ZM198.878 483.969L197.922 487.422L200.39 484.616C203.182 481.442 204.06 476.291 201.346 479.005C200.515 479.837 199.404 482.071 198.878 483.969ZM140.858 481.816C140.858 482.308 139.514 484.149 137.872 485.907C135.46 488.489 135.082 489.472 135.907 491.013C137.279 493.578 137.991 493.436 141.348 489.932C142.923 488.288 144.439 487.17 144.717 487.447C144.994 487.725 143.7 489.521 141.842 491.439C137.435 495.985 138.961 498.389 143.714 494.389C145.443 492.935 146.858 492.194 146.858 492.744C146.858 493.294 145.562 494.835 143.979 496.167C141.181 498.521 141.148 498.655 142.831 500.887L144.563 503.183L148.711 499.436C153.85 494.793 154.177 495.987 149.17 501.114L145.482 504.891L152.523 511.932C161.285 520.694 161.199 520.732 174.561 502.005C174.724 501.776 175.13 501.86 175.462 502.192C175.794 502.524 173.094 506.601 169.462 511.253C165.83 515.904 162.858 519.982 162.858 520.316C162.858 522.103 166.221 520.464 169.084 517.282C170.885 515.28 176.183 509.78 180.858 505.06C188.736 497.105 189.176 496.45 186.871 496.099C185.503 495.891 183.253 494.916 181.871 493.933C179.466 492.223 171.858 496.324 171.858 499.331C171.858 501.899 158.502 515.9 157.249 514.646C156.936 514.333 158.594 512.355 160.933 510.25C168.619 503.333 168.479 503.546 165.764 502.863C163.899 502.394 162.407 503.12 159.13 506.09C156.805 508.198 154.33 509.909 153.63 509.892C152.931 509.876 154.277 508.188 156.623 506.142C161.317 502.049 161.611 501.425 159.272 500.527C158.312 500.159 156.248 501.103 154.044 502.92C149.009 507.071 147.426 506.644 152.321 502.456L156.283 499.065L151.096 493.58C148.242 490.563 145.138 486.481 144.198 484.508C142.605 481.168 140.858 479.76 140.858 481.816ZM171.431 490.895C171.804 492.285 172.128 493.985 172.15 494.672C172.213 496.582 173.238 496.186 176.041 493.172C178.465 490.566 178.524 490.245 177.175 487.048L175.751 483.674L173.252 486.021C171.331 487.826 170.91 488.953 171.431 490.895ZM190.434 496.852C189.292 498.188 184.111 503.7 178.921 509.102C173.73 514.503 169.778 518.922 170.137 518.922C172.576 518.922 177.975 514.962 181.358 510.692C183.558 507.915 189.07 501.662 193.608 496.797C198.146 491.932 201.858 487.49 201.858 486.927C201.858 485.853 193.996 492.682 190.434 496.852ZM196.323 496.672C194.328 499.284 192.303 501.422 191.823 501.422C191.342 501.422 188.444 504.46 185.382 508.172C182.319 511.884 180.219 514.922 180.714 514.922C184.443 514.922 195.623 507.438 198.158 503.245C199.51 501.008 198.177 501.751 193.366 505.915C188.286 510.312 184.858 512.434 184.858 511.181C184.858 510.735 187.843 508.132 191.492 505.396C197.413 500.957 200.858 496.38 200.858 492.954C200.858 491.138 200.03 491.816 196.323 496.672ZM183.858 496.736C183.858 498.056 171.859 511.922 170.716 511.922C170.142 511.922 171.626 509.642 174.015 506.856C176.404 504.07 179.258 500.475 180.358 498.869C182.302 496.03 183.858 495.082 183.858 496.736ZM202.191 498.589C202.558 498.955 202.858 498.655 202.858 497.922C202.858 497.189 202.558 496.889 202.191 497.255C201.825 497.622 201.825 498.222 202.191 498.589ZM193.358 509.922C193.018 510.472 193.19 510.922 193.74 510.922C194.29 510.922 195.018 510.472 195.358 509.922C195.698 509.372 195.526 508.922 194.976 508.922C194.426 508.922 193.698 509.372 193.358 509.922ZM307.69 516.068C321.068 522.69 320.817 539.623 307.105 555.555C288.951 576.647 287.061 614.399 303.931 618.942C308.778 620.247 308.936 620.922 304.393 620.922C285.748 620.922 285.691 578.481 304.305 556.36C321.022 536.494 318.351 516.422 298.991 516.422C286.284 516.422 275.275 534.811 282.582 543.831C284.94 546.742 286.858 545.891 286.858 541.934C286.858 536.947 289.962 534.906 293.635 537.479C297.183 539.964 296.485 544.458 290.817 555.62C275.534 585.716 284.209 623.922 306.326 623.922C307.719 623.922 308.858 624.372 308.858 624.922C308.858 628.488 294.937 623.181 290.519 617.931C278.146 603.227 277.304 577.47 288.49 555.894C293.972 545.321 294.962 540.583 292.02 539.009C290.152 538.009 289.89 538.234 289.306 541.347C287.605 550.412 279.666 548.955 279.049 539.464C277.869 521.304 293.112 508.852 307.69 516.068ZM376.225 533.874C376.039 544.93 373.741 549.37 363.001 559.422C343.517 577.657 338.338 583.332 334.574 590.568C330.557 598.293 329.56 601.602 332.961 595.922C335.995 590.855 340.061 586.78 351.575 577.262C375.547 557.447 384.65 541.933 379.515 529.642C377.182 524.059 376.372 525.101 376.225 533.874ZM329.858 600.422C329.858 600.697 330.083 600.922 330.358 600.922C330.633 600.922 330.858 600.697 330.858 600.422C330.858 600.147 330.633 599.922 330.358 599.922C330.083 599.922 329.858 600.147 329.858 600.422ZM328.858 604.422C328.858 604.697 329.083 604.922 329.358 604.922C329.633 604.922 329.858 604.697 329.858 604.422C329.858 604.147 329.633 603.922 329.358 603.922C329.083 603.922 328.858 604.147 328.858 604.422ZM353.442 625.38C347.28 630.032 335.965 639.256 328.298 645.879C320.631 652.502 308.175 663.133 300.618 669.505C289.591 678.802 287.047 681.419 287.735 682.756C288.206 683.672 289.41 686.222 290.41 688.422C298.641 706.54 300.216 706.441 326.142 686.176C332.507 681.201 339.52 676.333 341.728 675.359C345.103 673.87 346.165 672.622 348.41 667.505C351.798 659.784 354.908 650.922 354.229 650.922C352.828 650.922 337.963 661.272 326.358 670.329C306.291 685.988 297.484 691.881 296.146 690.543C295.394 689.792 294.706 690.311 304.129 684.525C308.403 681.901 317.628 675.231 324.629 669.704C338.615 658.661 350.182 650.579 353.5 649.532C354.678 649.16 355.875 648.083 356.159 647.139C356.922 644.603 361.386 630.349 363.664 623.172C366.121 615.433 366.819 615.282 353.442 625.38ZM335.858 681.006C332.833 683.061 326.208 688.077 321.136 692.153C316.064 696.228 309.669 700.656 306.925 701.993C300.834 704.958 300.821 705.05 306.123 707.698C317.309 713.284 325.822 707.611 338.893 685.863C345.839 674.307 345.804 674.251 335.858 681.006Z" fill="#009FE3"/>
<path opacity="0.5" fill-rule="evenodd" clip-rule="evenodd" d="M308.096 115.784C299.58 119.872 302.42 132.565 311.845 132.538C321.28 132.51 324.141 120.15 315.721 115.791C313.69 114.739 310.278 114.736 308.096 115.784ZM313.969 116.801C318.029 118.004 320.287 122.804 318.581 126.607C315.309 133.899 304.647 131.742 304.647 123.788C304.647 118.771 309.171 115.38 313.969 116.801ZM308.658 118.284C305.435 119.745 304.227 123.908 306.31 126.378L306.853 127.021L306.545 126.099C305.725 123.648 308.14 118.322 310.071 118.322C310.267 118.322 310.505 118.197 310.599 118.046C310.868 117.611 309.875 117.733 308.658 118.284ZM353.31 129.798C341.895 132.558 337.778 146.927 346.036 155.186C355.586 164.737 372.018 158.099 372 144.696C371.987 134.764 362.859 127.489 353.31 129.798ZM362.292 133.307C370.225 137.219 371.867 147.505 365.521 153.543C356.624 162.008 342.022 153.985 344.545 142.017C346.216 134.094 355.071 129.748 362.292 133.307ZM353.739 133.616C351.156 134.459 348.508 136.923 347.726 139.213L347.289 140.492L348.936 138.925C352.601 135.439 358.019 134.442 362.304 136.467C363.843 137.194 364.127 137.26 363.902 136.842C362.543 134.309 357.004 132.551 353.739 133.616ZM325.932 141.056C316.681 144.505 318.909 157.925 328.733 157.925C337.795 157.925 340.661 145.657 332.571 141.494C331.07 140.722 327.467 140.484 325.932 141.056ZM330.931 142.507C336.09 144.036 337.555 150.896 333.502 154.549C328.667 158.906 321.022 155.154 321.607 148.711C322.032 144.039 326.367 141.155 330.931 142.507ZM326.245 143.529C325.59 143.875 324.859 144.449 324.622 144.806L324.19 145.455L325.285 144.906C327.766 143.661 330.602 143.905 332.763 145.551L334.013 146.503L333.613 145.737C332.229 143.095 328.938 142.108 326.245 143.529ZM294.938 149.25C287.038 150.618 284.223 160.779 290.247 166.182C293.959 169.511 299.643 169.477 303.343 166.103C310.563 159.521 304.606 147.576 294.938 149.25ZM300.819 151.929C303.454 153.358 305.169 156.654 304.82 159.615C303.979 166.753 295.505 169.477 290.706 164.153C284.627 157.408 292.772 147.563 300.819 151.929ZM293.157 152.612C290.307 154.086 288.925 157.473 290.076 160.161L290.431 160.99L290.482 159.653C290.593 156.764 293.006 153.536 295.606 152.8C297.374 152.299 297.435 152.013 295.773 152.027C294.807 152.035 293.866 152.245 293.157 152.612ZM355.72 167.997C349.113 170.991 351.249 181 358.494 181C364.505 181 367.615 174.137 363.648 169.629C361.841 167.576 358.271 166.841 355.72 167.997ZM361.728 169.569C366.307 172.786 364.098 179.749 358.494 179.762C353.699 179.774 351.129 174.191 354.282 170.609C356.218 168.409 359.437 167.959 361.728 169.569ZM362.714 173.108C362.947 175.178 361.986 177.152 360.18 178.308L359.325 178.856L360.224 178.698C362.859 178.237 364.423 175.085 363.194 172.713C362.627 171.621 362.552 171.682 362.714 173.108Z" fill="#009FE3"/>
</g>
<defs>
<clipPath id="clip0_320_815">
<rect width="416" height="276" fill="white" transform="matrix(-1 0 0 1 416 0)"/>
</clipPath>
</defs>
</svg>
