<svg width="251" height="288" viewBox="0 0 251 288" fill="none" xmlns="http://www.w3.org/2000/svg">
<path opacity="0.5" fill-rule="evenodd" clip-rule="evenodd" d="M199.568 287.554C211.968 288.491 217.094 272.138 206.335 265.967C195.564 259.79 184.159 272.014 190.883 282.529C192.505 285.065 196.391 287.314 199.568 287.554ZM193.546 282.528C189.711 278.484 190.301 271.521 194.751 268.304C203.284 262.134 214.014 271.611 208.773 280.689C205.468 286.414 198.077 287.307 193.546 282.528ZM200.575 284.33C205.211 284.784 209.33 280.828 208.583 276.639L208.389 275.547L208.133 276.803C207.452 280.139 201.19 284.628 198.99 283.358C198.766 283.229 198.414 283.214 198.206 283.326C197.613 283.645 198.826 284.159 200.575 284.33ZM11.6406 171.628C21.0911 174.6 30.9074 168.635 32.5241 158.94C35.347 142.009 12.9856 133.073 3.23532 147.236C-2.80403 156.008 1.47739 168.433 11.6406 171.628ZM5.80296 164.109C-2.48105 152.463 10.8926 137.654 23.2506 144.789C33.2371 150.554 31.6142 165.447 20.6124 168.994C15.245 170.725 9.05703 168.684 5.80296 164.109ZM13.2942 167.582C14.7634 167.851 16.8931 167.739 17.983 167.336C18.513 167.141 18.2174 167.009 16.5394 166.693C11.2169 165.692 6.67821 161.002 6.11167 155.918C5.88811 153.913 5.40058 154.18 5.10741 156.469C4.47218 161.425 8.34139 166.677 13.2942 167.582ZM157.274 241.81C172.101 246.171 186.261 232.482 182.291 217.623C177.7 200.438 154.6 197.203 145.789 212.51C139.26 223.853 144.869 238.162 157.274 241.81ZM149.349 231.896C142.885 222.212 147.792 209.393 159.002 206.678C174.72 202.871 186.075 221.635 175.313 233.633C168.189 241.576 155.233 240.709 149.349 231.896ZM159.3 237.171C162.799 237.909 167.44 236.839 169.84 234.74L171.182 233.567L168.272 234.272C161.799 235.84 154.966 233.412 151.417 228.282C150.142 226.439 149.863 226.177 149.843 226.802C149.723 230.586 154.878 236.238 159.3 237.171ZM195.894 246.977C208.709 249.128 215.011 232.346 203.816 225.883C193.488 219.92 182.138 232.035 188.615 242.109C189.817 243.978 193.767 246.619 195.894 246.977ZM191.152 242.031C186.28 236.892 189.131 228.099 196.156 226.597C204.538 224.806 210.779 234.118 205.865 241.086C202.303 246.138 195.462 246.577 191.152 242.031ZM197.166 243.949C198.14 243.985 199.351 243.81 199.857 243.559L200.777 243.102L199.167 243.009C195.519 242.797 192.448 240.652 191.069 237.352L190.272 235.443L190.224 236.58C190.06 240.507 193.161 243.798 197.166 243.949ZM126.486 198.866C138.874 202.092 150.467 190.407 147.127 178.062C143.507 164.676 126.124 161.095 117.499 171.957C110.051 181.338 114.897 195.847 126.486 198.866ZM119.404 190.449C109.741 176.621 128.808 160.61 140.666 172.595L142.456 174.405L140.934 173.85C134.433 171.476 130.162 180.157 136.132 183.611C138.981 185.259 142.289 184.158 143.726 181.083L144.492 179.444L144.683 180.585C147.029 194.617 127.612 202.194 119.404 190.449ZM236.615 258.019C246.519 261.657 256.423 251.912 253.117 241.782C251.08 235.541 244.579 231.84 238.14 233.255C225.575 236.016 224.494 253.569 236.615 258.019ZM126.753 193.953C130.745 194.78 130.85 194.22 127.108 192.06C122.106 189.172 120.061 185.723 120.016 180.106L119.999 177.869L119.389 179.409C116.897 185.699 120.41 192.638 126.753 193.953ZM231.677 251.092C229.617 247.727 229.833 242.838 232.182 239.688C237.843 232.095 249.296 234.562 251.257 243.796C253.741 255.493 237.971 261.369 231.677 251.092ZM240.859 255.354C245.078 255.547 248.886 252.591 249.345 248.766L249.486 247.587L248.547 249.079C246.518 252.302 241.64 254.398 238.192 253.529C235.848 252.937 235.589 253.222 237.492 254.301C238.598 254.927 239.809 255.306 240.859 255.354ZM46.8544 132.281C55.1041 133.797 60.113 123.769 53.9328 118.11C50.0353 114.54 44.1136 115.575 41.3843 120.302C38.6304 125.072 41.4706 131.292 46.8544 132.281ZM134.486 180.077C133.381 176.423 137.481 173.045 140.737 174.925C143.228 176.363 143.902 178.823 142.481 181.284C140.632 184.487 135.589 183.726 134.486 180.077ZM42.7495 127.78C40.6928 124.803 42.0098 119.995 45.3477 118.293C52.7157 114.537 59.1953 124.872 52.4538 129.627C49.1322 131.97 45.1164 131.206 42.7495 127.78ZM139.592 182.701C140.392 182.487 141.151 182.121 141.278 181.888C141.45 181.572 141.34 181.531 140.843 181.729C139.511 182.26 137.969 182.152 136.724 181.439C135.785 180.902 135.528 180.862 135.747 181.289C136.355 182.474 138.076 183.106 139.592 182.701ZM108.974 162.507C120.107 164.467 129.834 154.647 127.41 143.894C123.281 125.571 97.2188 127.925 96.1953 146.713C95.8198 153.605 102.033 161.284 108.974 162.507ZM198.282 211.786C205.051 213.214 211.695 209.109 213.269 202.525C216.637 188.436 197.445 180.669 190.214 193.194C186.032 200.437 190.219 210.085 198.282 211.786ZM101.091 154.093C95.2352 145.115 102.38 133.14 113.067 134.02C122.907 134.83 128.198 145.667 122.823 154C117.657 162.006 106.284 162.055 101.091 154.093ZM44.0011 121.599C44.9286 119.993 47.482 119.108 50.3121 119.412L52.0946 119.604L50.8447 118.854C48.1536 117.24 42.1976 119.629 43.3912 121.844C43.53 122.102 43.7652 122.008 44.0011 121.599ZM193.179 206.221C189.302 201.793 190.234 194.367 195.094 190.969C202.861 185.538 213.367 192.657 211.167 201.86C209.195 210.11 198.792 212.632 193.179 206.221ZM103.16 151.577C101.632 146.762 102.855 141.701 106.29 138.622C108.231 136.883 108.051 136.58 105.781 137.765C99.6484 140.97 98.2495 148.993 103.058 153.381L104.007 154.247L103.16 151.577ZM179.696 196.631C189.198 197.562 193.359 184.733 185.101 179.966C178.251 176.011 170.184 181.797 171.736 189.552C172.443 193.084 176.027 196.272 179.696 196.631ZM193.96 202.615C192.895 198.65 193.957 194.892 196.845 192.401L198.013 191.394L196.475 191.943C191.511 193.715 190.073 200.878 193.933 204.606C194.618 205.267 194.62 205.074 193.96 202.615ZM173.885 190.884C170.786 184.199 177.891 177.706 184.286 181.378C189.759 184.52 189.009 192.583 183.056 194.596C179.399 195.833 175.435 194.228 173.885 190.884ZM175.093 186.195C176.191 183.679 178.587 182.06 181.406 181.929L182.742 181.866L181.614 181.454C178.307 180.247 174.447 182.815 174.286 186.331C174.211 187.95 174.337 187.929 175.093 186.195ZM148.73 158.047C152.58 158.974 156.543 156.286 156.711 152.634C156.764 151.463 156.793 151.443 159.422 150.74C172.071 147.359 170.472 128.523 157.453 127.558C148.249 126.875 141.265 137.37 145.918 144.896L146.649 146.079L145.233 148.498C142.787 152.676 144.37 156.998 148.73 158.047ZM145.649 153.967C144.79 151.6 145.2 149.574 146.877 147.898C147.895 146.881 147.929 147.458 146.94 148.985L146 150.438L147.268 149.384L148.536 148.33L150.647 149.531C151.808 150.191 153.416 150.852 154.219 150.999L155.678 151.267L155.509 152.59C154.85 157.736 147.395 158.778 145.649 153.967ZM210.282 186.265C222.183 190.098 235.146 182.402 237.6 170.049C241.58 150.015 217.905 136.446 202.402 149.876C189.977 160.64 194.419 181.157 210.282 186.265ZM205.022 179.262C197.526 172.861 196.916 160.771 203.736 153.771C217.393 139.753 240.084 154.269 233.027 172.508C228.75 183.561 214.174 187.077 205.022 179.262ZM150.703 146.64C151.562 146.598 154.723 148.422 154.49 148.826C154.386 149.005 153.392 148.61 152.181 147.907C150.691 147.042 150.249 146.663 150.703 146.64ZM147.73 143.736C142.371 133.486 157.227 124.121 164.146 133.387C168.667 139.442 162.29 152.489 156.456 149.121C155.341 148.477 155.46 148.007 156.797 147.77C158.707 147.432 158.786 147.033 156.964 146.938C153.605 146.761 149.822 143.529 148.75 139.92L148.268 138.3L148.178 139.719C148.064 141.529 148.416 143.135 149.196 144.357C149.534 144.886 149.648 145.407 149.45 145.514C148.907 145.805 148.699 145.59 147.73 143.736ZM190.437 159.362C195.331 160.299 197.362 153.828 192.97 151.292C189.185 149.106 184.726 154.615 187.748 157.743C188.943 158.98 189.177 159.121 190.437 159.362ZM202.415 164.635C204.724 156.953 212.121 151.839 220.19 152.344L222.829 152.509L220.792 151.527C212.716 147.636 202.328 153.602 201.94 162.354C201.817 165.112 202.004 166.005 202.415 164.635ZM190.271 158.26C191.087 158.402 192.471 158.093 192.686 157.721C192.786 157.548 192.418 157.502 191.869 157.62C191.248 157.753 190.401 157.564 189.633 157.121C188.209 156.299 188.073 156.328 188.831 157.294C189.276 157.861 189.268 157.931 188.788 157.676C187.745 157.12 187.338 154.596 188.084 153.304C190.061 149.879 195.248 151.952 194.61 155.911C194.308 157.783 191.554 159.365 190.165 158.464C189.755 158.198 189.768 158.173 190.271 158.26ZM136.584 122.275C152.053 126.488 166.005 112.921 162.137 97.425C157.889 80.4047 135.268 76.5761 125.25 91.1821C117.621 102.304 123.614 118.742 136.584 122.275ZM66.6358 79.9975C72.8494 80.3983 77.5934 74.6502 75.9186 68.7502C73.1941 59.1533 59.3348 60.5543 58.5111 70.5101C58.1188 75.2554 61.9196 79.6934 66.6358 79.9975ZM61.8213 75.8983C59.0909 73.0049 59.5901 67.8024 62.8357 65.3302C67.6906 61.6314 75.091 65.3703 74.661 71.3045C74.1693 78.0889 66.4832 80.8389 61.8213 75.8983ZM129.869 114.016C121.244 104.719 125.428 89.9635 137.731 86.2973C152.166 81.9954 164.555 97.8731 156.99 110.978C151.249 120.92 137.685 122.44 129.869 114.016ZM67.5245 77.7543C69.7233 77.8996 72.5191 75.9069 72.8518 73.9571C72.9918 73.1369 72.9071 73.17 71.9936 74.2945C70.6775 75.914 67.455 76.848 65.2307 76.2543C64.3821 76.0278 63.6498 75.908 63.6036 75.9881C63.3955 76.3487 66.3425 77.6761 67.5245 77.7543ZM134.408 114.751C134.615 114.792 135.413 115.05 136.18 115.324L137.575 115.823L135.776 114.208C130.03 109.051 128.331 101.828 131.279 95.0833C132.619 92.0198 130.943 93.2017 128.823 96.8167C125.176 103.032 128.456 113.563 134.408 114.751ZM234.647 143.174C243.322 143.71 248.202 133.212 242.191 126.945C235.487 119.956 224.046 126.028 225.784 135.651C226.472 139.46 230.55 142.92 234.647 143.174ZM228.601 137.845C225.139 132.513 229.243 125.329 235.553 125.676C244.612 126.175 245.964 138.954 237.19 141.152C233.609 142.048 230.57 140.878 228.601 137.845ZM230.755 138.138C229.116 134.733 229.083 132.57 230.628 129.893C231.771 127.913 231.279 127.586 229.742 129.305C227.372 131.955 227.604 135.791 230.279 138.149C231.025 138.807 231.077 138.806 230.755 138.138ZM120.043 74.1247C121.413 74.2841 122.013 73.918 122.9 72.3819C124.117 70.2734 121.969 67.6784 119.543 68.3272C116.326 69.1871 116.718 73.7385 120.043 74.1247ZM118.472 72.2452C118.398 71.7983 118.325 71.6615 118.31 71.9417C118.27 72.6714 118.028 72.4267 117.881 71.5086C117.813 71.0778 117.856 70.9045 117.978 71.1232C118.119 71.3762 118.413 71.1319 118.786 70.4516C119.109 69.8634 119.231 69.3859 119.058 69.3903C118.884 69.3948 118.944 69.235 119.192 69.0352C120.354 68.0943 122.775 69.5656 122.724 71.1822C122.645 73.6581 118.861 74.6044 118.472 72.2452ZM118.301 69.6603C118.483 69.6118 118.523 69.761 118.39 69.992C118.257 70.223 118.107 70.2629 118.058 70.0807C118.01 69.8984 118.119 69.7093 118.301 69.6603ZM220.102 106.674C233.028 110.041 245.219 98.0544 241.89 85.2512C238.166 70.9292 220.223 66.9892 210.753 78.4142C202.782 88.0299 207.899 103.495 220.102 106.674ZM213.206 98.6836C207.791 92.1174 209.381 82.0879 216.599 77.2792C226.567 70.6372 240.149 78.4658 239.335 90.3845C238.425 103.71 221.724 109.014 213.206 98.6836ZM216.245 97.4592C212.763 92.2349 213.454 84.9433 217.904 79.9603L218.771 78.99L217.472 79.4767C210.384 82.1323 209.355 94.3567 215.902 98.1345L217.192 98.8792L216.245 97.4592ZM113.989 25.407C128.778 30.9325 138.626 10.0517 124.96 2.1409C111.205 -5.82214 98.1419 12.9046 110.249 23.2311C111.162 24.0102 112 24.6775 112.11 24.7139C112.22 24.7504 113.065 25.0622 113.989 25.407ZM109.57 19.1616C105.504 12.8538 108.612 4.86673 115.889 2.92123C126.65 0.0439987 133.909 13.3476 125.811 21.1065C121.334 25.396 112.941 24.391 109.57 19.1616ZM109.954 13.6433C110.707 9.00633 114.359 5.44877 118.994 4.83887C121.082 4.56456 120.854 4.28984 118.18 3.85661C114.141 3.20208 109.718 6.93766 109.405 11.2681C109.27 13.1296 109.721 15.08 109.954 13.6433ZM202.21 54.1487C207.622 53.9905 209.561 47.4152 204.978 44.764C202.305 43.2171 199.487 43.9366 197.974 46.5519C196.013 49.9419 198.421 54.2597 202.21 54.1487ZM198.254 49.9212C197.729 47.2692 199.613 45.0008 202.396 44.9358C207.03 44.827 208.111 51.3417 203.743 53.0534C201.56 53.9092 198.724 52.2903 198.254 49.9212ZM203.313 52.6584C204.369 52.3761 204.926 51.9781 205.346 51.2053L205.924 50.1411L205.134 50.8856C204.11 51.8505 202.761 52.283 201.277 52.1215L200.09 51.9926L200.974 52.5199C201.546 52.8606 202.374 52.9096 203.313 52.6584Z" fill="#009FE3"/>
</svg>
