<svg width="269" height="254" viewBox="0 0 269 254" fill="none" xmlns="http://www.w3.org/2000/svg">
<path opacity="0.3" fill-rule="evenodd" clip-rule="evenodd" d="M84.1195 0.850926C65.5103 4.79616 37.4881 24.988 37.5779 34.3865C37.743 51.6555 62.6889 81.3292 78.0332 82.509C80.6542 82.7108 81.2691 83.5479 83.0799 89.3782C87.9328 105.009 117.562 126.512 134.247 126.512C135.151 126.512 136.726 127.635 137.749 129.007C139.061 130.768 139.438 130.931 139.028 129.561C138.611 128.173 139.067 127.621 140.627 127.621C143.709 127.621 143.335 126.192 139.691 124.038C136.471 122.136 131.579 110.296 122.839 83.2674C120.966 77.4738 118.638 71.985 117.666 71.0702C116.075 69.5744 115.987 69.6298 116.793 71.6246C117.285 72.8443 120.523 82.0754 123.988 92.1381C127.453 102.201 131.099 112.338 132.09 114.664L133.89 118.894L129.564 115.466C127.185 113.581 123.81 111.539 122.066 110.932C118.616 109.728 118.712 109.921 111.625 89.9205C109.141 82.9071 106.618 76.5645 106.02 75.8271C101.792 70.6122 133.512 63.1931 145.778 66.5284C152.704 68.4101 171.39 89.7951 172.518 97.1278C172.706 98.3476 174.319 104.585 176.104 110.988C177.89 117.392 180.637 129.102 182.21 137.012C185.159 151.842 188.837 162.445 190.646 161.326C191.274 160.939 191.279 160.183 190.663 159.401C188.935 157.211 186.178 147.538 183.905 135.693C182.709 129.459 179.956 118.165 177.785 110.592C173.097 94.2337 173.21 95.5489 176.526 95.9026C180.733 96.3517 200.921 118.881 203.741 126.277C213.028 150.622 193.24 171.307 170.355 161.174C164.857 158.739 151.346 147.901 152.161 146.581C153.079 145.095 148.578 128.085 141.727 107.153C138.126 96.1499 134.381 83.905 133.406 79.9409C131.158 70.8018 130.702 69.5089 129.983 70.2285C129.096 71.1156 133.362 87.0486 140.597 109.879C148.766 135.655 151.739 146.471 150.657 146.471C149.6 146.471 137.335 133.594 134.813 129.839C133.126 127.326 132.946 127.274 132.893 129.283C132.797 132.999 159.529 158.031 168.108 162.256C203.836 179.856 223.437 139.442 194.124 108.616C188.695 102.908 182.059 94.9933 179.376 91.0292C176.694 87.0651 172.887 81.7062 170.917 79.1192C168.947 76.5334 162.606 66.5539 156.827 56.9425C130.496 13.1535 107.989 -4.2098 84.1195 0.850926ZM106.939 6.12792C123.587 13.7545 135.368 26.3297 151.674 53.8832C154.921 59.3719 161.861 70.0744 167.095 77.6666C178.541 94.2725 178.935 94.8957 177.324 93.9C176.648 93.482 172.604 88.0089 168.337 81.7373C161.796 72.1226 159.665 69.8471 154.742 67.2191C151.532 65.506 147.281 62.8991 145.296 61.4266C133.875 52.9551 115.972 49.0808 103.92 52.4738C101.17 53.2478 100.965 52.9873 99.1335 46.3753C98.0796 42.5764 94.9876 33.2312 92.2603 25.608C89.5341 17.9847 87.0639 11.0522 86.7702 10.2029C86.4777 9.3535 85.9424 8.95434 85.58 9.31693C85.2188 9.67841 88.0082 18.9771 91.7794 29.98C95.5507 40.9841 98.4774 51.1022 98.2812 52.4672C97.5709 57.4315 88.5955 57.9349 87.8796 53.0505C87.7322 52.0481 85.3528 44.8395 82.5912 37.0311C79.8295 29.2238 77.2331 21.4587 76.8208 19.7766C76.0894 16.7894 74.1002 14.442 74.1002 16.5643C74.1002 17.9492 81.3146 38.7043 84.6891 47.0294L87.3056 53.4817L82.0315 47.8611C79.1313 44.7697 76.1958 42.2404 75.5076 42.2404C74.1378 42.2404 70.7755 45.2653 70.7755 46.4972C70.7755 49.2327 84.7511 66.6348 86.9476 66.6348C87.8053 66.6348 88.5068 67.3878 88.5068 68.307C88.5068 69.7075 88.1401 69.7529 86.2561 68.5842C83.2019 66.6903 81.8964 68.858 81.8742 75.8637C81.8432 85.7179 78.5829 82.3182 75.1497 68.8503C66.3859 34.4731 60.683 14.5284 60.0912 16.1828C59.8729 16.7927 63.3881 31.263 67.9019 48.339C72.4156 65.4151 75.9409 79.5606 75.7336 79.7735C73.4762 82.0998 57.0924 67.8468 49.0169 56.5322C35.2806 37.2861 36.627 28.9322 55.2982 17.55C81.4543 1.60717 91.9844 -0.722465 106.939 6.12792ZM100.357 10.3615C103.407 15.6085 105.756 22.4388 109.033 35.5874C110.629 41.9909 112.399 47.7047 112.965 48.2835C114.364 49.7128 114.304 49.2061 111.909 39.261C107.261 19.9561 102.205 6.75776 99.4604 6.75776C98.7844 6.75776 99.1756 8.32896 100.357 10.3615ZM119.6 25.6013C121.379 30.4769 123.656 37.8362 124.662 41.9566C126.429 49.1917 128.403 53.3854 128.403 49.9025C128.403 44.5435 119.044 16.7373 117.24 16.7373C116.76 16.7373 117.822 20.7258 119.6 25.6013ZM52.3337 22.0951C53.0574 25.4948 64.1817 70.0644 64.8045 72.0603C66.0091 75.919 66.264 71.8951 65.1546 66.5195C63.0745 56.4335 53.9872 22.9379 52.8524 21.1726C52.0423 19.913 51.917 20.1369 52.3337 22.0951ZM42.0717 30.642C41.9342 33.4751 48.4284 54.5995 49.899 56.1009C51.3031 57.5346 50.381 53.8288 45.7842 39.5614C43.8027 33.4118 42.1326 29.3979 42.0717 30.642ZM80.5799 49.2727C83.6729 52.4662 83.9421 53.1669 82.5247 54.3434C80.5965 55.9457 81.4708 59.2589 83.6064 58.4384C84.4763 58.1046 84.8476 58.456 84.5218 59.3065C84.2203 60.0927 84.699 61.3389 85.5867 62.0752C88.0724 64.1398 89.0244 61.4909 86.9399 58.3085C84.5462 54.6538 84.7312 53.9863 87.3986 56.6553C88.6177 57.875 89.6151 59.2078 89.6151 59.617C89.6151 60.7757 93.1647 64.4171 94.294 64.4171C94.8503 64.4171 94.9888 63.4192 94.602 62.1994C93.803 59.6802 96.0771 59.1291 98.2592 61.3124C99.8262 62.8803 100.05 64.8329 98.5572 63.9104C97.9898 63.5589 97.213 63.7796 96.8295 64.3994C96.0083 65.7289 98.4331 65.8741 100.417 64.6145C102.003 63.6065 99.9314 57.8517 97.9267 57.6953C97.3171 57.6477 97.7938 57.2263 98.9862 56.7595C100.888 56.0154 106.238 61.3135 106.238 63.9392C106.238 64.528 100.756 66.9497 99.0914 67.0961C97.7593 67.2136 97.1088 76.6144 98.4331 76.6144C98.9717 76.6144 99.7275 75.1806 100.112 73.4275C101.333 67.8656 110.671 62.7428 110.671 67.6339C110.671 69.0266 104.02 72.3086 102.767 71.5347C102.003 71.0612 101.736 71.3595 102.08 72.302C103.169 75.2881 96.3608 81.0463 93.3586 79.678C91.9091 79.0171 90.7233 78.087 90.7233 77.6113C90.7233 77.1356 89.3524 77.4582 87.6757 78.3298C85.5767 79.4209 84.4996 79.5328 84.2159 78.6901C83.8347 77.558 85.4105 76.0445 87.8718 75.1807C88.437 74.9822 88.5168 74.2015 88.0503 73.4452C87.392 72.3797 86.8445 72.3675 85.6121 73.3909C84.3222 74.4621 84.1549 74.3678 84.7212 72.8897C85.5812 70.6477 86.7205 70.5801 88.4526 72.668C89.7858 74.2758 92.9397 73.8733 92.9397 72.0947C92.9397 71.5702 92.0675 71.4671 91.0003 71.8674C89.3025 72.5039 89.2504 72.362 90.5813 70.7231C91.7328 69.3071 91.796 68.4821 90.8396 67.33C90.1448 66.4917 89.8876 64.9948 90.2689 64.0035C91.1377 61.7381 88.9434 61.6162 87.6889 63.8593C86.2261 66.4729 79.323 56.9636 80.1863 53.5251C80.7349 51.3384 80.499 51.0413 78.6693 51.6223C77.478 52.0004 76.1825 51.7908 75.7902 51.1566C75.3979 50.5212 75.8555 50.0023 76.8052 50.0023C77.755 50.0023 78.5329 49.5033 78.5329 48.8934C78.5329 48.2836 77.5057 47.7846 76.2512 47.7846C74.9967 47.7846 74.2775 47.2856 74.6543 46.6757C75.7536 44.895 76.7721 45.3419 80.5799 49.2727ZM81.8576 52.7744C81.8576 53.0793 82.1069 53.3288 82.4116 53.3288C82.7164 53.3288 82.9658 53.0793 82.9658 52.7744C82.9658 52.4694 82.7164 52.2199 82.4116 52.2199C82.1069 52.2199 81.8576 52.4694 81.8576 52.7744ZM115.104 54.992C115.104 55.9068 115.603 56.6553 116.212 56.6553C116.822 56.6553 117.32 55.9068 117.32 54.992C117.32 52.4151 119.044 53.0272 120.443 56.1009C121.745 58.9606 123.358 59.6514 124.482 57.8318C124.835 57.2596 124.246 56.2994 123.171 55.6973C122.097 55.0963 121.585 54.2369 122.032 53.7878C122.481 53.3398 123.762 53.8011 124.882 54.8135C127.283 56.989 128.829 57.2285 127.817 55.2692C127.424 54.5075 128.131 55.1306 129.39 56.6553C132.008 59.8265 132.044 59.9807 130.695 62.113C130.026 63.1719 127.843 63.6488 124.063 63.5623C120.964 63.4913 118.429 63.9049 118.429 64.4804C118.429 65.0558 117.182 65.5259 115.658 65.5259C114.134 65.5259 112.888 66.1204 112.888 66.8467C112.888 67.573 112.215 67.248 111.394 66.1225C110.571 64.9981 109.325 64.4338 108.623 64.8673C107.835 65.3552 107.346 64.8685 107.346 63.5955C107.346 62.4623 106.836 61.0229 106.213 60.3998C104.419 58.6046 103.962 54.4376 105.559 54.4376C106.334 54.4376 106.929 55.4156 106.88 56.6098C106.792 58.7853 108.887 59.852 109.147 57.7641C109.442 55.4078 109.613 55.3158 111.225 56.6553C112.582 57.7818 112.888 57.7187 112.888 56.3138C112.888 55.3668 111.765 54.3756 110.394 54.1117C108.591 53.7635 108.898 53.5894 111.502 53.4796C114.032 53.3742 115.104 53.8233 115.104 54.992ZM84.074 56.1009C84.074 56.4058 83.8247 56.6553 83.5199 56.6553C83.2151 56.6553 82.9658 56.4058 82.9658 56.1009C82.9658 55.7959 83.2151 55.5464 83.5199 55.5464C83.8247 55.5464 84.074 55.7959 84.074 56.1009ZM134.863 58.5957C136.001 60.8112 135.344 63.621 133.897 62.725C133.366 62.3968 133.213 61.3956 133.557 60.5007C133.899 59.6059 133.629 58.8729 132.954 58.8729C132.279 58.8729 131.727 58.374 131.727 57.7641C131.727 55.9556 133.786 56.5011 134.863 58.5957ZM113.996 58.7732C113.996 59.3997 113.355 59.6658 112.572 59.3653C111.725 59.0404 111.078 59.7301 110.978 61.0629C110.779 63.7141 112.362 64.0601 113.315 61.5752C113.681 60.6216 114.482 60.1514 115.096 60.5318C115.71 60.911 116.212 60.7226 116.212 60.1127C116.212 59.5028 115.714 58.6956 115.104 58.3185C114.494 57.9415 113.996 58.1456 113.996 58.7732ZM117.32 58.7433C117.32 59.2821 118.443 60.024 119.814 60.3921C123.833 61.4699 124.538 61.2004 122.242 59.4629C119.822 57.6311 117.32 57.2652 117.32 58.7433ZM125.587 60.0561C125.184 60.7059 125.083 61.4665 125.363 61.7448C126.135 62.5188 129.511 60.9874 129.511 59.8631C129.511 58.4748 126.471 58.6246 125.587 60.0561ZM142.19 61.6805C144.227 63.2218 144.152 63.3083 140.805 63.3083C137.44 63.3083 136.391 62.3381 138.007 60.7214C139.054 59.6735 139.748 59.8321 142.19 61.6805ZM91.8315 66.6348C91.8315 67.2446 92.3302 67.7436 92.9397 67.7436C93.5492 67.7436 94.0479 67.2446 94.0479 66.6348C94.0479 66.0249 93.5492 65.5259 92.9397 65.5259C92.3302 65.5259 91.8315 66.0249 91.8315 66.6348ZM105.13 68.3634C105.13 69.3137 105.629 69.7839 106.238 69.4069C106.848 69.0299 107.346 68.2526 107.346 67.6782C107.346 67.1039 106.848 66.6348 106.238 66.6348C105.629 66.6348 105.13 67.4132 105.13 68.3634ZM94.0479 71.0702C94.0479 71.68 94.5466 72.179 95.1561 72.179C95.7656 72.179 96.2643 71.68 96.2643 71.0702C96.2643 70.4603 95.7656 69.9613 95.1561 69.9613C94.5466 69.9613 94.0479 70.4603 94.0479 71.0702ZM140.92 73.6504C148.56 93.5718 158.703 127.188 162.715 145.881C165.05 156.766 165.6 158.411 166.574 157.436C168.981 155.028 144.516 72.179 141.399 72.179C140.824 72.179 140.609 72.841 140.92 73.6504ZM23.5878 76.4868C5.13492 87.747 -6.23093 130.482 3.64768 151.461C6.76397 158.077 35.1697 187.609 50.1517 199.806C53.1317 202.232 57.0325 206.427 58.8201 209.127C60.6065 211.827 63.95 215.424 66.2496 217.122C68.548 218.819 75.2261 224.644 81.0885 230.065C104.805 251.996 116.245 257.142 130.644 252.356C152.626 245.051 156.286 209.49 136.521 195.26C122.699 185.308 123.467 186.175 122.732 179.683C120.146 156.832 103.635 132.261 84.9017 123.391C78.4065 120.316 77.7794 119.677 74.7595 113.055C64.9197 91.4905 34.5591 69.7939 23.5878 76.4868ZM94.0479 77.1687C94.8071 78.0835 95.8498 78.8321 96.3652 78.8321C96.8805 78.8321 97.0158 78.0835 96.6656 77.1687C96.3143 76.254 95.2714 75.5055 94.3482 75.5055C92.9807 75.5055 92.9253 75.8149 94.0479 77.1687ZM109.9 90.1976C112.664 98.2777 115.296 105.835 115.748 106.99C116.496 108.896 111.002 104.966 100.42 96.0225C96.2765 92.5208 96.1757 85.544 100.183 79.6439C104.178 73.7615 104.337 73.9332 109.9 90.1976ZM39.1914 78.7222C48.6544 83.1177 77.8603 116.466 74.8681 119.46C73.2435 121.085 58.2992 116.02 52.961 112.035C43.1034 104.677 35.0289 108.666 41.8389 117.53C42.9637 118.994 43.6975 120.99 43.4703 121.966C42.5804 125.781 38.6418 164.83 38.7149 169.106C38.8257 175.504 40.6233 171.06 40.9192 163.658C41.1297 158.396 41.1884 158.521 42.0717 166.11C42.6368 170.965 44.9131 179.121 47.8698 186.877L52.736 199.648L46.5178 194.174C-0.522496 152.766 -7.4411 134.66 9.85257 98.2224C18.797 79.3755 27.7657 73.4142 39.1914 78.7222ZM94.2475 81.7273C94.7473 82.0366 95.1561 83.0656 95.1561 84.0148C95.1561 85.5516 94.8536 85.5417 92.3856 83.9239C89.0277 81.7218 88.7252 82.7895 91.9224 85.5638C93.9061 87.2858 94.1609 88.4989 93.7365 94.2272C93.3708 99.1803 93.6312 101.038 94.7538 101.468C95.585 101.787 96.2643 102.648 96.2643 103.382C96.2643 104.115 97.09 105.627 98.0985 106.743C99.107 107.858 99.467 108.771 98.8985 108.771C97.5919 108.771 94.4747 105.298 89.9941 98.8522L86.4932 93.8181L89.9164 90.7597C92.4698 88.4788 92.8588 87.7028 91.4492 87.7028C89.7902 87.7028 87.3986 83.7752 87.3986 81.0508C87.3986 80.1105 92.4378 80.6085 94.2475 81.7273ZM157.216 81.0275C157.216 81.8281 158.753 87.2758 160.633 93.1327C162.511 98.9884 165.254 109.222 166.728 115.872C169.948 130.4 176.972 156.204 178.478 159.041C180.707 163.236 180.379 159.857 177.639 150.402C176.083 145.032 172.618 131.597 169.938 120.546C164.47 98.0027 157.216 75.4656 157.216 81.0275ZM85.7363 83.2674C86.1131 83.8773 85.8925 84.3762 85.2475 84.3762C84.6025 84.3762 84.074 83.8773 84.074 83.2674C84.074 82.6576 84.2934 82.1585 84.5627 82.1585C84.832 82.1585 85.3595 82.6576 85.7363 83.2674ZM87.7311 89.5424C86.9066 91.6946 85.5291 91.3675 84.8752 88.8649C84.5638 87.674 84.8796 86.5019 85.5767 86.2591C87.2046 85.6925 88.4692 87.6196 87.7311 89.5424ZM34.2998 101.84C33.5916 107.786 31.9437 120.136 30.6382 129.284C28.0805 147.198 27.3435 172.339 29.2807 175.609C30.1296 177.042 30.3246 174.004 29.9966 164.521C29.6719 155.155 30.1905 146.912 31.8307 135.383C33.0874 126.54 34.6533 114.315 35.3104 108.216C35.9665 102.118 36.7733 95.7562 37.1047 94.0785C37.4349 92.4009 37.2288 91.0292 36.6459 91.0292C36.063 91.0292 35.0068 95.8949 34.2998 101.84ZM89.7802 92.8079C88.9568 93.7393 88.5113 94.7306 88.7906 95.0089C89.758 95.978 92.9397 94.1106 92.9397 92.5738C92.9397 90.5779 91.6675 90.6722 89.7802 92.8079ZM17.6732 103.654C13.8976 127.074 11.8596 161.067 14.1469 162.481C14.7143 162.832 15.2075 157.347 15.2906 149.756C15.3715 142.416 16.1849 130.068 17.097 122.314C19.7578 99.7192 20.1479 95.4646 19.5539 95.4646C19.2459 95.4646 18.3991 99.1504 17.6732 103.654ZM90.7233 96.5735C90.7233 97.1833 91.222 97.6822 91.8315 97.6822C92.441 97.6822 92.9397 97.1833 92.9397 96.5735C92.9397 95.9636 92.441 95.4646 91.8315 95.4646C91.222 95.4646 90.7233 95.9636 90.7233 96.5735ZM111.779 107.239C111.779 108.375 105.447 104.287 102.914 101.517C100.6 98.9852 101.102 99.1682 105.961 102.623C109.162 104.9 111.779 106.977 111.779 107.239ZM107.488 108.493C108.866 110.252 108.827 110.291 107.069 108.913C105.223 107.463 104.637 106.553 105.549 106.553C105.778 106.553 106.652 107.426 107.488 108.493ZM186.063 107.069C185.97 110.029 194.08 149.389 194.97 150.297C196.422 151.777 196.439 151.89 192.031 129.514C188.635 112.276 186.189 103.077 186.063 107.069ZM51.0925 113.76C51.0504 114.37 51.4682 115.414 52.0201 116.08C53.0762 117.352 52.2927 118.75 50.524 118.75C49.9511 118.75 49.7505 118.051 50.0785 117.197C50.4331 116.272 49.807 115.415 48.5348 115.082C45.9815 114.415 45.9017 115.006 47.9985 119.027C49.7383 122.365 48.66 123.143 46.2763 120.27C45.4518 119.277 44.6948 116.267 44.594 113.583L44.4111 108.703L47.79 110.677C49.6485 111.763 51.1347 113.151 51.0925 113.76ZM46.6486 112.304C47.2005 113.962 49.7194 114.875 49.7194 113.417C49.7194 112.821 48.9293 112.032 47.964 111.66C46.8857 111.247 46.3782 111.494 46.6486 112.304ZM43.3915 114.316C43.7107 115.537 43.519 116.256 42.9671 115.914C42.4141 115.572 41.9619 114.574 41.9619 113.695C41.9619 111.4 42.7144 111.727 43.3915 114.316ZM107.901 113.206C108.277 113.816 108.087 114.315 107.477 114.315C106.868 114.315 106.061 113.816 105.684 113.206C105.307 112.596 105.498 112.097 106.107 112.097C106.717 112.097 107.524 112.596 107.901 113.206ZM55.2605 115.978C55.2605 116.283 55.0112 116.532 54.7064 116.532C54.4017 116.532 54.1523 116.283 54.1523 115.978C54.1523 115.673 54.4017 115.424 54.7064 115.424C55.0112 115.424 55.2605 115.673 55.2605 115.978ZM60.1567 118.314C61.1208 118.685 61.9098 119.717 61.9098 120.61C61.9098 121.66 62.7886 122.103 64.4033 121.868C65.7741 121.669 67.4797 122.256 68.1912 123.175C68.9038 124.094 69.8867 124.445 70.3754 123.955C70.8653 123.466 70.5317 122.55 69.6352 121.92C68.3917 121.048 68.6632 120.927 70.7755 121.411C72.2993 121.761 74.5434 122.071 75.7625 122.101C77.7373 122.15 77.6763 122.328 75.2083 123.74C73.6845 124.611 72.9365 125.35 73.546 125.381C74.1555 125.412 73.9506 125.883 73.0895 126.429C71.0105 127.745 74.4659 131.47 76.8995 130.536C77.7983 130.19 78.5329 130.421 78.5329 131.047C78.5329 131.675 79.0849 131.846 79.7598 131.429C80.6164 130.899 80.5333 130.353 79.4828 129.616C78.3136 128.795 78.2869 128.436 79.3641 127.999C80.971 127.346 81.2381 125.403 79.7199 125.403C79.1547 125.403 77.8836 126.212 76.8973 127.198C75.9098 128.186 74.7595 128.651 74.3406 128.232C73.6147 127.506 78.2614 123.262 79.8395 123.21C80.2528 123.197 81.2547 123.85 82.0659 124.66C82.876 125.472 84.0929 125.951 84.77 125.726C85.5414 125.469 85.7995 126.365 85.4615 128.131C85.1456 129.786 85.4338 130.947 86.1608 130.947C86.8424 130.947 87.4142 130.075 87.4319 129.007C87.464 127.189 87.536 127.186 88.57 128.96C89.1839 130.014 90.4041 130.575 91.3194 130.223C92.5351 129.757 92.7668 130.108 92.2061 131.57C91.5888 133.178 91.847 133.398 93.5781 132.737C95.1994 132.119 95.4033 132.235 94.427 133.219C93.4495 134.205 92.1794 134.195 89.0909 133.175C78.7346 129.755 62.1536 140.555 54.5712 155.66C50.9695 162.835 51.2189 162.591 49.192 160.908C47.9452 159.873 47.5031 159.848 47.5031 160.816C47.5031 161.536 47.0076 161.82 46.4037 161.446C45.7432 161.038 45.4195 162.196 45.5935 164.344C45.7531 166.313 46.5134 168.133 47.2825 168.389C48.0516 168.646 48.6057 168.435 48.5149 167.92C48.0616 165.366 48.7708 163.473 50.1816 163.473C51.3696 163.473 51.6499 164.712 51.333 168.556C51.1036 171.351 51.5868 176.881 52.408 180.845C53.5151 186.186 53.5761 188.264 52.6418 188.868C51.0372 189.907 47.349 182.149 48.1691 179.459C48.4949 178.391 48.2776 177.518 47.6881 177.518C46.4967 177.518 44.5175 169.801 43.6376 161.718C43.2674 158.323 43.4902 156.451 44.2626 156.451C45.0117 156.451 45.1958 155.235 44.7525 153.217C43.713 148.482 45.987 140.839 48.1835 141.683C49.5022 142.19 49.8236 141.72 49.5388 139.696C49.2484 137.637 49.6197 137.124 51.2023 137.394C52.8402 137.675 53.0884 137.268 52.469 135.315C51.9315 133.623 52.0855 133.126 52.9743 133.676C53.6758 134.11 54.9092 133.917 55.716 133.247C56.8065 132.341 57.5401 132.46 58.5741 133.706C60.13 135.582 61.9098 135.925 61.9098 134.348C61.9098 133.779 60.9124 132.998 59.6934 132.611C57.4559 131.9 56.3322 125.403 58.4467 125.403C58.9797 125.403 59.4163 124.262 59.4163 122.868C59.4163 121.13 58.7636 120.335 57.3384 120.335C54.9103 120.335 54.7275 121.068 56.6458 123.102C57.754 124.278 57.754 124.674 56.6458 125.079C55.8844 125.359 55.2605 126.765 55.2605 128.202C55.2605 131.987 53.401 132.564 52.7083 128.994C52.3836 127.324 52.5764 125.791 53.1349 125.588C55.4001 124.764 54.0005 123.085 51.6677 123.825C49.3593 124.558 49.3005 124.465 50.8365 122.514C53.3333 119.342 54.5059 118.738 56.7843 119.449C58.1386 119.871 58.5985 119.669 58.1042 118.869C57.2409 117.472 57.6643 117.357 60.1567 118.314ZM50.8276 130.018C50.8276 131.269 49.4036 134.11 47.6637 136.332C45.9238 138.554 44.1806 141.121 43.7905 142.036C42.997 143.894 43.9091 130.014 44.9175 124.897L45.5626 121.62L48.1957 124.682C49.643 126.367 50.8276 128.767 50.8276 130.018ZM63.4159 125.061C61.707 125.395 61.0875 126.283 61.1994 128.236C61.3856 131.463 62.6036 131.783 63.5345 128.849C64.2615 126.558 68.1823 125.005 69.1775 126.616C69.5188 127.169 69.2407 127.621 68.5591 127.621C67.8776 127.621 67.6282 128.12 68.005 128.73C68.3818 129.34 69.0756 129.839 69.5477 129.839C70.862 129.839 70.6004 126.065 69.2229 125.143C67.9562 124.295 67.3655 124.288 63.4159 125.061ZM81.8576 129.904C81.8576 130.549 82.3563 130.77 82.9658 130.393C83.5753 130.016 84.074 129.488 84.074 129.219C84.074 128.949 83.5753 128.73 82.9658 128.73C82.3563 128.73 81.8576 129.259 81.8576 129.904ZM65.2178 131.522C64.0354 132.948 64.0365 133.499 65.2234 134.598C66.377 135.668 66.5366 135.56 66.0135 134.069C65.6533 133.041 65.9548 131.986 66.6818 131.726C67.4099 131.464 67.7025 130.921 67.3323 130.518C66.9611 130.115 66.0102 130.567 65.2178 131.522ZM68.5945 131.705C68.702 134.47 71.5956 136.512 73.0041 134.814C73.7809 133.878 74.2198 132.935 73.9816 132.721C72.8556 131.712 68.5635 130.902 68.5945 131.705ZM72.992 133.719C72.992 134.024 72.7426 134.274 72.4378 134.274C72.1331 134.274 71.8837 134.024 71.8837 133.719C71.8837 133.415 72.1331 133.165 72.4378 133.165C72.7426 133.165 72.992 133.415 72.992 133.719ZM91.9213 136.537C101.459 141.406 109.029 152.235 113.868 167.933C117.648 180.193 117.182 181.157 110.588 174.704C100.154 164.496 86.2904 142.847 86.2904 136.762C86.2904 135.932 85.8028 135.554 85.2055 135.923C84.5395 136.334 84.9108 138.67 86.1675 141.981C87.4142 145.263 87.8442 147.953 87.269 148.861C86.7493 149.681 86.317 166.282 86.3071 185.75L86.2904 221.15L83.408 218.461C81.8222 216.983 78.83 212.418 76.7587 208.316L72.992 200.86L73.0485 179.487C73.0806 167.732 73.4796 154.746 73.9373 150.629C74.395 146.512 74.4004 143.145 73.9483 143.145C72.2427 143.145 71.3518 154.42 71.3407 176.145C71.3318 194.395 71.0526 198.504 69.8535 198.044C69.0423 197.733 67.9219 197.478 67.3633 197.478C65.0062 197.478 57.4647 189.202 55.7658 184.751C46.4258 160.282 71.897 126.316 91.9213 136.537ZM100.697 138.378C100.697 138.534 99.4659 138.101 97.961 137.414C96.4571 136.729 95.4765 135.761 95.7835 135.264C96.2345 134.534 100.697 137.362 100.697 138.378ZM55.696 137.137C56.0662 138.102 56.3688 139.349 56.3688 139.909C56.3688 140.469 56.8674 140.927 57.477 140.927C58.0865 140.927 58.5851 139.679 58.5851 138.155C58.5851 136.347 57.9646 135.383 56.8043 135.383C55.6351 135.383 55.255 135.986 55.696 137.137ZM63.5721 137.6C63.9489 138.21 64.7258 138.709 65.2998 138.709C65.8739 138.709 66.3427 138.21 66.3427 137.6C66.3427 136.991 65.5647 136.492 64.615 136.492C63.6652 136.492 63.1953 136.991 63.5721 137.6ZM52.1897 140.025C52.7416 141.683 55.2605 142.596 55.2605 141.138C55.2605 140.542 54.4704 139.753 53.5052 139.381C52.4269 138.967 51.9193 139.215 52.1897 140.025ZM59.6934 140.927C59.6934 141.537 60.1921 142.036 60.8016 142.036C61.4111 142.036 61.9098 141.537 61.9098 140.927C61.9098 140.317 61.4111 139.818 60.8016 139.818C60.1921 139.818 59.6934 140.317 59.6934 140.927ZM49.7194 144.382C49.7194 144.779 50.7191 145.366 51.9403 145.685C53.5063 146.094 53.945 146.831 53.4264 148.183C52.9078 149.536 53.1505 149.944 54.2532 149.568C55.1475 149.264 55.6584 147.964 55.4478 146.524C55.2306 145.037 55.5387 144.294 56.2025 144.705C56.8187 145.086 57.5977 144.955 57.9313 144.414C58.266 143.873 56.5549 143.482 54.129 143.546C51.7043 143.609 49.7194 143.986 49.7194 144.382ZM47.5031 147.58C47.5031 148.19 48.0017 148.689 48.6112 148.689C49.2208 148.689 49.7194 148.19 49.7194 147.58C49.7194 146.97 49.2208 146.471 48.6112 146.471C48.0017 146.471 47.5031 146.97 47.5031 147.58ZM102.044 168.093C105.133 171.753 109.597 176.493 111.963 178.627C117.1 183.261 118.593 193.578 116.393 209.232C114.784 220.68 114.349 242.63 115.705 243.975C116.381 244.647 116.797 240.727 116.853 233.173C116.9 226.653 117.591 215.699 118.388 208.832C119.183 201.966 119.522 193.982 119.139 191.091C118.671 187.551 118.791 186.378 119.507 187.498C120.092 188.413 121.211 189.188 121.994 189.221C154.015 190.564 153.238 251.163 121.199 251.208C109.445 251.225 101.396 246.425 79.6411 226.421L72.4378 219.798L76.8098 220.768C79.2135 221.3 81.5373 221.515 81.9739 221.245C84.1582 219.895 86.1641 222.463 86.8556 227.498C87.269 230.501 88.1311 233.282 88.7728 233.679C89.5585 234.166 89.6494 233.354 89.0488 231.185C88.068 227.639 87.4186 163.761 88.2697 154.545L88.8038 148.759L92.615 155.099C94.7118 158.587 98.9539 164.434 102.044 168.093ZM47.5031 151.697C47.5031 153.318 47.7457 153.387 50.1827 152.451C52.6717 151.495 52.357 149.904 49.7194 150.103C48.5004 150.195 47.5031 150.912 47.5031 151.697ZM47.134 154.972C45.7997 156.307 46.3616 157.809 47.9652 157.193C48.8296 156.862 49.838 157.379 50.2081 158.342C50.5772 159.306 51.1524 159.823 51.4849 159.49C52.1531 158.82 49.5743 154.233 48.5292 154.233C48.168 154.233 47.5396 154.565 47.134 154.972ZM46.3948 171.974C46.3948 172.584 47.1129 173.083 47.9918 173.083C48.8706 173.083 49.8968 172.584 50.2736 171.974C50.6504 171.364 49.9312 170.865 48.6767 170.865C47.4222 170.865 46.3948 171.364 46.3948 171.974ZM38.8535 176.964C38.8756 178.794 39.1239 179.408 39.4053 178.329C39.6868 177.25 39.668 175.753 39.3643 175.002C39.0607 174.252 38.8313 175.135 38.8535 176.964ZM48.0571 176.41C48.4339 177.019 49.2108 177.518 49.7849 177.518C50.3589 177.518 50.8276 177.019 50.8276 176.41C50.8276 175.8 50.0497 175.301 49.0999 175.301C48.1502 175.301 47.6803 175.8 48.0571 176.41ZM102.485 204.962C101.805 234.077 101.968 241.254 103.337 242.624C103.714 243.001 104.022 228.007 104.022 209.305C104.022 167.414 103.4 165.658 102.485 204.962ZM37.5291 182.508C37.5291 182.813 37.7785 183.063 38.0832 183.063C38.388 183.063 38.6374 182.813 38.6374 182.508C38.6374 182.203 38.388 181.954 38.0832 181.954C37.7785 181.954 37.5291 182.203 37.5291 182.508ZM215.866 185.195C212.099 188.964 211.728 192.768 214.805 196.073C219.073 200.657 227.673 200.659 230.88 196.078C237.62 186.45 224.277 176.779 215.866 185.195ZM49.7194 184.172C49.7194 184.781 50.2181 185.28 50.8276 185.28C51.4372 185.28 51.9359 184.781 51.9359 184.172C51.9359 183.562 51.4372 183.063 50.8276 183.063C50.2181 183.063 49.7194 183.562 49.7194 184.172ZM229.487 186.736C231.183 189.404 230.368 194.018 227.895 195.751C220.174 201.162 210.532 192.918 217.337 186.724C221.464 182.967 227.096 182.973 229.487 186.736ZM57.0082 194.419C58.8323 200.171 65.8661 210.123 70.9461 214.14C76.5736 218.591 77.3871 220.024 72.4478 216.787C70.9716 215.819 69.2783 215.329 68.6843 215.696C68.0903 216.063 67.2913 215.856 66.9079 215.237C66.5255 214.617 66.827 214.11 67.5795 214.11C68.3885 214.11 68.0759 213.271 66.8137 212.054C65.6401 210.923 64.3945 210.437 64.0443 210.972C63.6952 211.507 62.4484 210.819 61.2737 209.443C59.5737 207.45 59.5338 207.246 61.0786 208.444C62.7454 209.736 63.018 209.694 63.018 208.147C63.018 206.536 61.7613 205.855 59.4407 206.208C57.9756 206.432 55.2616 199.874 56.0108 197.92C56.5106 196.617 56.33 196.261 55.4467 196.808C54.4061 197.451 51.9359 193.653 51.9359 191.411C51.9359 189.955 56.4397 192.626 57.0082 194.419ZM255.762 196.283C249.624 202.424 253.781 212.996 261.728 211.46C268.762 210.102 271.097 203.466 266.941 196.646C264.1 191.982 260.187 191.856 255.762 196.283ZM265.188 197.002C269.328 201.146 265.945 209.675 260.161 209.675C258.016 209.675 254.739 205.133 254.739 202.161C254.739 196.979 261.719 193.532 265.188 197.002ZM133.607 200.527C132.706 202.129 132.687 246.266 133.588 246.262C134.089 246.259 134.654 235.78 134.843 222.976C135.16 201.677 134.964 198.113 133.607 200.527ZM57.477 201.782C57.477 202.392 57.9756 203.199 58.5851 203.576C59.1947 203.953 59.6934 203.762 59.6934 203.153C59.6934 202.543 59.1947 201.735 58.5851 201.358C57.9756 200.981 57.477 201.172 57.477 201.782ZM74.1002 206.903C74.1002 207.208 73.8508 207.457 73.546 207.457C73.2413 207.457 72.992 207.208 72.992 206.903C72.992 206.598 73.2413 206.348 73.546 206.348C73.8508 206.348 74.1002 206.598 74.1002 206.903ZM224.801 242.969C223.638 245.145 226.884 251.876 229.048 251.775C230.473 251.708 233.266 249.038 234.024 247.018C236.032 241.669 227.5 237.923 224.801 242.969ZM230.821 242.504C232.857 243.286 233.133 246.373 231.329 248.178C229.282 250.226 225.138 245.778 227.001 243.533C228.619 241.583 228.503 241.614 230.821 242.504Z" fill="#009FE3"/>
</svg>
