<svg width="112" height="87" viewBox="0 0 112 87" fill="none" xmlns="http://www.w3.org/2000/svg">
<path opacity="0.5" fill-rule="evenodd" clip-rule="evenodd" d="M84.0978 85.9408C95.305 80.5528 91.5677 63.8269 79.1648 63.863C66.7477 63.8986 62.983 80.1871 74.0642 85.9317C76.7369 87.3172 81.2265 87.3216 84.0978 85.9408ZM76.3696 84.5998C71.0267 83.0148 68.0556 76.6894 70.3006 71.6784C74.6059 62.0688 88.6374 64.9111 88.6374 75.393C88.6374 82.0038 82.6831 86.4725 76.3696 84.5998ZM83.3579 82.6454C87.5998 80.7206 89.189 75.2351 86.4478 71.9805L85.7333 71.1325L86.1395 72.3477C87.2183 75.5772 84.0399 82.5963 81.4987 82.5963C81.2404 82.5963 80.9282 82.7601 80.8043 82.9602C80.4501 83.5327 81.7574 83.3718 83.3579 82.6454ZM24.5978 67.4732C39.6196 63.8357 45.0372 44.9007 34.1699 34.0174C21.6019 21.4305 -0.0214615 30.179 0.00185394 47.8409C0.0189743 60.9286 12.031 70.516 24.5978 67.4732ZM12.7778 62.8487C2.33758 57.6943 0.17746 44.1397 8.52866 36.1828C20.2368 25.0272 39.4527 35.6005 36.1318 51.3714C33.9335 61.8122 22.2796 67.5394 12.7778 62.8487ZM24.0328 62.4418C27.4327 61.3315 30.9164 58.0845 31.9457 55.0664L32.5209 53.3803L30.3535 55.4453C25.5312 60.0399 18.4002 61.3533 12.7622 58.6853C10.7365 57.7271 10.3631 57.6394 10.6589 58.1911C12.4467 61.528 19.7369 63.8451 24.0328 62.4418ZM60.6269 52.6372C72.8007 48.0928 69.8682 30.4083 56.9406 30.4083C45.0149 30.4083 41.2438 46.5748 51.8899 52.0607C53.8649 53.0783 58.6063 53.3912 60.6269 52.6372ZM54.0474 50.7251C47.2589 48.7111 45.3312 39.6699 50.6646 34.857C57.0277 29.1145 67.0883 34.0589 66.3174 42.5497C65.7585 48.706 60.0538 52.5069 54.0474 50.7251ZM60.2148 49.3785C61.0768 48.9233 62.038 48.1659 62.3505 47.6954L62.9193 46.8401L61.4783 47.5643C58.2128 49.2053 54.481 48.8829 51.6363 46.7138L49.9913 45.4597L50.5189 46.4685C52.3398 49.951 56.6706 51.2506 60.2148 49.3785ZM101.414 41.8401C111.81 40.0375 115.514 26.6471 107.587 19.5271C102.702 15.1407 95.2216 15.1854 90.3527 19.6305C80.8513 28.3044 88.6913 44.0459 101.414 41.8401ZM93.6739 38.3092C90.2073 36.4259 87.9499 32.0831 88.4093 28.1803C89.5158 18.7749 100.667 15.1847 106.983 22.2009C114.983 31.0892 104.264 44.063 93.6739 38.3092ZM103.757 37.4096C107.507 35.4665 109.326 31.0029 107.812 27.4608L107.345 26.369L107.277 28.1308C107.132 31.9371 103.955 36.1915 100.535 37.1621C98.2084 37.8223 98.1271 38.1982 100.314 38.1807C101.586 38.1702 102.824 37.8932 103.757 37.4096ZM21.4263 17.1357C30.1207 13.1903 27.3103 3.8147e-05 17.775 3.8147e-05C9.86538 3.8147e-05 5.77212 9.04444 10.9937 14.9845C13.3717 17.69 18.0698 18.6588 21.4263 17.1357ZM13.5203 15.0639C7.49431 10.8241 10.4006 1.64864 17.775 1.63081C24.0863 1.61552 27.468 8.97311 23.3187 13.6933C20.7702 16.5927 16.5352 17.1852 13.5203 15.0639ZM12.2226 10.3994C11.9151 7.67169 13.1804 5.07141 15.5566 3.54763L16.682 2.82596L15.4994 3.03304C12.0317 3.64117 9.97323 7.79507 11.5909 10.9201C12.3363 12.3599 12.435 12.2787 12.2226 10.3994Z" fill="#009FE3"/>
</svg>
