<svg width="222" height="222" viewBox="0 0 222 222" fill="none" xmlns="http://www.w3.org/2000/svg">
<g opacity="0.3" clip-path="url(#clip0_320_1072)">
<path d="M86.2286 10.9592C87.4037 11.2168 88.5787 11.4744 89.7538 11.732C94.0593 15.0398 94.9245 17.5862 93.214 21.9147C93.1747 22.0503 93.1347 22.1856 93.0947 22.3209C93.2023 22.2761 93.3099 22.2314 93.4175 22.1866C94.4861 22.3221 95.5724 22.3762 96.6206 22.6052C118.245 27.3287 139.865 32.0686 161.483 36.8225C162.531 37.0531 163.545 37.442 164.574 37.7572C164.617 37.8552 164.66 37.9532 164.702 38.0513C164.748 37.9048 164.794 37.7584 164.841 37.612C164.836 35.6301 165.374 33.8699 166.741 32.3583C168.23 30.7106 170.214 30.2386 172.243 29.8146C173.3 30.0464 174.358 30.2782 175.415 30.51C176.439 31.4642 177.599 32.3106 178.454 33.3973C179.794 35.1002 179.631 37.1799 179.637 39.2473C179.697 57.713 179.822 76.1785 179.935 94.644C179.966 99.6601 180.022 104.676 180.068 109.889C180.716 109.564 181.172 109.324 181.637 109.106C185.837 107.135 190.708 108.622 193.051 112.63C194.244 114.673 194.422 116.682 193.201 118.907C189.194 126.207 185.305 133.572 181.426 140.942C181.033 141.689 180.821 142.639 180.849 143.484C181.438 161.693 182.063 179.902 182.708 198.109C182.887 203.171 183.152 208.229 183.377 213.289C183.223 213.994 183.068 214.699 182.914 215.404C182.675 215.649 182.414 215.875 182.2 216.14C179.908 218.99 175.742 220.234 172.454 218.956C168.65 217.477 166.318 213.965 166.748 210.666C166.845 209.925 166.707 209.155 166.675 208.363C165.932 208.2 165.349 208.072 164.767 207.945C154.9 205.781 145.032 203.622 135.166 201.451C133.935 201.179 132.69 200.924 131.501 200.515C130.128 200.042 129.488 198.704 129.815 197.331C130.135 195.992 131.359 195.083 132.759 195.202C133.295 195.247 133.821 195.405 134.35 195.521C144.451 197.738 154.553 199.957 164.655 202.176C165.276 202.312 165.897 202.448 166.683 202.621C166.546 191.428 166.412 180.465 166.275 169.299C165.981 169.618 165.828 169.73 165.748 169.88C162.083 176.757 158.374 183.611 154.786 190.527C152.956 194.053 148.545 195.67 144.943 194.011C141.671 192.504 139.242 188.023 141.448 184.183C142.235 182.814 142.854 181.348 143.583 179.857C113.583 173.281 83.8134 166.755 53.9448 160.207C53.9988 162.016 54.174 163.757 54.0591 165.478C53.982 166.634 53.7083 167.882 53.1499 168.881C51.526 171.786 48.2141 173.052 44.9445 172.234C41.7669 171.438 39.5277 168.643 39.3815 165.302C39.2635 162.609 39.1684 159.914 39.0052 157.224C38.6531 151.419 38.2636 145.616 37.8895 139.813C37.7801 139.789 37.6707 139.766 37.5613 139.742C32.5789 150.124 27.5966 160.506 22.5763 170.968C23.0608 171.099 23.2878 171.172 23.5196 171.223C41.7255 175.226 59.9302 179.234 78.1384 183.226C92.1763 186.305 106.221 189.354 120.253 192.457C121.026 192.628 121.854 193.035 122.413 193.582C123.338 194.487 123.26 195.696 122.638 196.754C121.951 197.923 120.821 198.25 119.516 197.973C116.281 197.285 113.045 196.604 109.815 195.896C80.6224 189.501 51.4309 183.1 22.239 176.701C21.5457 176.549 20.8524 176.397 20.2207 176.258C20.0028 176.525 19.863 176.648 19.7845 176.802C19.5395 177.283 19.2877 177.764 19.0917 178.266C17.7162 181.788 14.9465 183.271 11.3668 183.409C7.75125 183.549 5.18311 181.709 3.47162 178.678C2.45665 176.88 2.33138 175.025 3.36366 173.029C8.37655 163.335 13.2884 153.59 18.2451 143.867C19.3335 141.732 20.0812 141.385 22.4168 141.831C24.1545 143.589 24.2762 144.348 23.1246 146.6C18.3723 155.894 13.612 165.184 8.8595 174.478C8.13149 175.902 8.44914 176.811 9.87938 177.495C11.6752 178.353 13.2542 177.623 14.2929 175.466C21.348 160.818 28.2626 146.099 35.5594 131.572C37.435 127.838 36.7657 124.369 36.5233 120.7C33.8433 125.637 31.3064 130.603 28.7421 135.555C27.6331 137.697 26.9299 137.999 24.5481 137.509C22.869 135.882 22.7281 135.035 23.8176 132.905C27.6395 125.432 31.4835 117.971 35.2653 110.479C35.6449 109.727 35.8566 108.78 35.8124 107.941C35.3899 99.9208 34.9393 91.9013 34.3926 83.8887C34.2456 81.7338 35.0562 80.1483 36.6274 78.8785C38.8004 77.1223 41.2896 76.5033 44.0577 77.0323C46.4839 77.496 48.2039 79.02 49.7918 80.9137C51.8577 76.4322 53.8749 72.0791 55.8734 67.7173C63.8179 50.378 71.7538 33.0347 79.7008 15.6965C80.7108 13.4931 82.4079 12.0715 84.7503 11.4232C85.2477 11.2855 85.7361 11.1147 86.2286 10.9592ZM96.758 126.365C94.6949 125.433 94.2998 124.821 94.5041 122.641C94.6648 120.924 94.8961 119.215 95.0958 117.504C89.0412 116.177 83.1507 114.886 77.2246 113.587C77.1939 113.872 77.148 114.048 77.1601 114.221C77.7835 123.065 78.4022 131.909 79.068 140.75C79.1012 141.191 79.4435 141.782 79.8176 141.997C83.4362 144.078 87.2858 145.184 91.6244 144.532C92.0966 140.904 92.5674 137.282 93.0395 133.66C93.3219 131.493 94.0257 130.786 96.2147 130.465C98.4606 131.301 98.9599 132.152 98.6256 134.568C98.165 137.896 97.6779 141.22 97.2771 144.555C97.2189 145.04 97.4206 145.841 97.7671 146.044C101.411 148.186 105.27 149.405 109.587 148.434C112.299 139.765 114.995 131.146 117.709 122.473C111.894 121.198 106.303 119.973 100.626 118.728C100.418 120.333 100.266 121.821 100.026 123.295C99.6595 125.555 99.1145 126.038 96.758 126.365ZM140.838 87.1648C143.286 87.7942 143.856 88.7117 143.588 91.3529C143.092 96.2452 142.638 101.142 142.17 105.992C145.009 107.134 147.658 108.25 150.348 109.255C151.342 109.626 152.434 109.737 153.661 110.006C153.226 90.6979 154.6 71.8784 157.752 53.1848C154.81 52.5398 152.104 51.9466 149.394 51.3526C149.289 51.662 149.205 51.8252 149.179 51.9971C147.759 61.2614 146.319 70.5227 144.943 79.7935C144.53 82.5733 144.121 83.1557 141.575 83.6765C139.36 82.5725 138.936 81.9189 139.258 79.5999C140.02 74.1236 140.812 68.6513 141.642 63.1849C142.306 58.8094 143.042 54.445 143.749 50.0587C140.908 49.4358 138.229 48.8486 135.41 48.2307C131.854 66.7261 128.317 85.1254 124.706 103.911C128.638 104.717 132.618 104.156 136.51 104.992C136.636 104.415 136.767 104.021 136.804 103.619C137.206 99.3131 137.607 95.0073 137.98 90.6991C138.18 88.3831 138.62 87.805 140.838 87.1648ZM52.9975 133.299C52.849 133.432 52.7635 133.474 52.7652 133.512C53.0489 139.843 53.4058 146.173 53.58 152.507C53.6223 154.044 54.1454 154.49 55.5542 154.796C85.1641 161.242 114.762 167.741 144.363 174.23C144.994 174.368 145.626 174.507 146.305 174.655C150.138 167.153 153.895 159.802 157.651 152.451C154.759 154.934 152.227 157.649 149.513 160.167C148.668 160.951 147.372 161.468 146.21 161.656C140.483 162.579 135.13 161.369 130.084 158.558C129.346 158.147 128.373 157.856 127.554 157.942C122.1 158.514 117.064 157.35 112.319 154.661C111.687 154.302 110.825 154.06 110.123 154.157C104.583 154.922 99.535 153.582 94.7335 150.881C93.9569 150.444 92.9204 150.187 92.0398 150.263C86.7183 150.72 81.7937 149.59 77.1427 146.995C76.369 146.564 75.3388 146.387 74.4396 146.421C70.6269 146.566 66.9334 146.309 63.2932 144.906C58.9427 143.229 55.3578 140.993 54.3775 136.013C54.2401 135.315 53.9326 134.642 53.6364 133.988C53.5133 133.716 53.2136 133.524 52.9975 133.299ZM119.513 101.223C122.985 83.1481 126.448 65.1193 129.921 47.0375C126.895 46.3741 124.047 45.7498 121.042 45.0911C116.622 63.0502 112.226 80.9112 107.855 98.6677C111.87 99.5478 115.604 100.366 119.513 101.223ZM107.608 42.122C102.093 59.8596 96.6448 77.3823 91.1805 94.9565C92.8209 95.5842 94.6352 96.3826 96.5158 96.9686C98.337 97.5362 99.9027 99.097 102.091 98.5384C106.589 80.3082 111.074 62.1285 115.579 43.8692C112.722 43.2431 110.045 42.6562 107.608 42.122ZM101.405 40.7994C98.7753 40.223 96.112 39.6392 93.3291 39.0292C88.2341 57.4254 81.3241 75.063 74.0311 92.6512C74.5712 92.8605 74.8898 93.0772 75.2205 93.0975C78.2724 93.2852 81.3255 93.4853 84.381 93.5497C84.8115 93.5588 85.4962 92.9409 85.6609 92.4719C90.9772 77.3402 96.0009 62.1142 100.12 46.6052C100.624 44.7079 100.973 42.7693 101.405 40.7994ZM71.2686 112.302C65.2465 110.982 59.2472 109.667 53.1435 108.329C53.2039 108.894 53.2403 109.308 53.2934 109.719C54.3503 117.916 56.7072 125.766 59.3939 133.558C60.4636 136.66 62.133 138.752 65.2814 139.631C65.3386 139.647 65.3898 139.683 65.4458 139.704C67.9944 140.673 70.6014 141.119 73.3012 140.73C72.6161 131.149 71.9415 121.714 71.2686 112.302ZM133.42 153.802C136.903 155.944 140.798 156.773 144.922 156.15C145.461 156.069 146.056 155.767 146.446 155.385C153.109 148.875 159.209 141.879 164.52 134.214C164.8 133.81 165.011 133.359 165.301 132.848C159.035 131.475 153.001 130.152 147.023 128.841C142.465 137.204 137.943 145.502 133.42 153.802ZM123.243 123.63C120.499 132.401 117.798 141.034 115.1 149.66C118.779 151.995 122.65 152.756 126.758 152.334C127.278 152.28 127.918 151.753 128.199 151.27C130.488 147.336 132.74 143.38 134.935 139.392C137.067 135.519 139.117 131.601 141.268 127.582C135.139 126.238 129.286 124.955 123.243 123.63ZM186.215 113.888C184.839 113.533 183.398 114.238 182.662 115.681C170.694 139.148 158.738 162.62 146.749 186.076C146.172 187.205 145.926 188.158 147.236 188.781C148.511 189.388 149.285 188.81 149.945 187.58C162.523 164.162 175.141 140.765 187.749 117.363C188.624 115.739 188.008 114.349 186.215 113.888ZM46.6758 166.827C46.8753 166.786 47.6141 166.826 47.7357 166.572C48.1156 165.776 48.4976 164.861 48.4649 164.008C47.6483 142.725 46.7804 121.443 45.9165 100.162C45.7145 95.1861 45.5171 90.2103 45.2692 85.237C45.1852 83.5513 43.7755 82.3697 42.1566 82.4754C40.2751 82.5983 39.8888 83.1166 40.0272 85.3338C41.2609 105.095 42.4943 124.857 43.7285 144.618C44.1436 151.265 44.5726 157.911 44.9642 164.559C45.0261 165.61 45.2407 166.465 46.6758 166.827ZM174.41 114.225C174.439 113.745 174.472 113.463 174.471 113.181C174.367 92.4193 174.259 71.6576 174.154 50.8958C174.132 46.5759 174.111 42.2558 174.105 37.9358C174.104 36.8825 173.868 35.9076 172.699 35.763C172.09 35.6875 171.184 35.9291 170.838 36.3653C170.458 36.8436 170.477 37.7108 170.476 38.4087C170.461 56.2307 170.465 74.0527 170.468 91.8748C170.469 98.3554 170.461 104.836 170.508 111.317C170.512 111.88 170.738 112.713 171.138 112.947C172.09 113.505 173.208 113.78 174.41 114.225ZM53.067 87.3036C56.6171 87.85 56.6277 87.8549 57.9584 84.9897C59.6272 81.3964 61.2766 77.7941 62.9339 74.1955C71.271 56.0934 79.6058 37.9903 87.9498 19.8913C88.4757 18.7505 88.773 17.6611 87.3084 17.0455C85.9627 16.4799 85.1914 17.1829 84.6368 18.3926C75.2306 38.9099 65.8072 59.4193 56.3928 79.9328C55.277 82.364 54.1917 84.8091 53.067 87.3036ZM175.533 152.456C175.427 152.431 175.322 152.406 175.216 152.381C174.3 154.051 173.291 155.679 172.503 157.408C172.027 158.453 171.639 159.658 171.649 160.786C171.775 174.109 171.982 187.43 172.171 200.752C172.221 204.232 172.248 207.714 172.359 211.192C172.41 212.77 173.959 213.921 175.642 213.788C177.216 213.665 177.693 213.03 177.624 211.103C176.929 191.554 176.23 172.005 175.533 152.456ZM86.0491 37.367C78.1831 54.4599 70.3738 71.4294 62.5355 88.4618C64.6711 89.164 66.6501 89.8148 68.8161 90.527C76.0416 73.2421 82.8596 55.8659 87.8442 37.7605C87.1396 37.606 86.6829 37.5059 86.0491 37.367ZM164.868 110.861C164.873 92.1208 164.878 73.4307 164.883 54.6954C164.473 54.5685 164.14 54.4466 163.797 54.3673C163.639 54.3307 163.461 54.3772 163.242 54.3885C160.113 72.8521 158.818 91.3997 159.265 110.087C161.192 110.353 162.969 110.598 164.868 110.861ZM149.326 123.499C155.665 124.888 161.696 126.229 167.742 127.492C168.138 127.575 168.87 127.179 169.086 126.801C170.383 124.529 171.574 122.197 172.87 119.756C171.774 119.296 170.843 118.902 169.91 118.514C164.91 116.437 159.693 115.453 154.289 115.486C153.728 115.489 152.851 115.706 152.66 116.091C151.493 118.447 150.482 120.88 149.326 123.499ZM96.894 103.28C90.6238 100.261 84.1921 98.4842 77.142 98.8649C77.1016 101.823 77.0626 104.676 77.0241 107.501C83.3917 108.897 89.6183 110.262 95.8722 111.633C96.2242 108.755 96.558 106.026 96.894 103.28ZM125.006 118.075C131.353 119.466 137.491 120.812 143.723 122.178C144.931 119.461 146.109 116.81 147.319 114.088C140.961 110.868 134.392 109.935 127.521 109.962C126.681 112.672 125.865 115.304 125.006 118.075ZM71.3412 106.403C71.4011 103.573 71.4834 101.003 71.4774 98.4342C71.4765 98.0816 71.1146 97.5433 70.7877 97.4062C66.6395 95.6674 62.4659 93.9758 57.9364 93.5042C55.9501 93.2974 53.9522 93.2022 51.8293 93.0469C52.0367 95.9839 52.1818 98.6079 52.4455 101.22C52.49 101.661 52.9812 102.33 53.3748 102.421C59.2689 103.777 65.1812 105.053 71.3412 106.403ZM102.418 104.358C102.051 107.368 101.713 110.138 101.381 112.864C107.535 114.213 113.482 115.517 119.476 116.831C120.349 114.052 121.187 111.386 122.039 108.673C115.779 105.679 109.357 104.098 102.418 104.358ZM130.856 41.3265C131.24 39.5776 131.604 37.9169 131.97 36.2459C129.144 35.6265 126.439 35.0333 123.682 34.429C123.293 36.2041 122.93 37.8606 122.568 39.5097C125.405 40.1314 128.127 40.7281 130.856 41.3265ZM116.965 38.2905C117.349 36.5377 117.716 34.8623 118.078 33.2125C115.336 32.6116 112.674 32.028 109.916 31.4235C109.532 33.176 109.177 34.7979 108.803 36.5015C111.446 37.0809 114.067 37.6553 116.965 38.2905ZM94.919 33.4662C97.7621 34.0894 100.371 34.6613 103.106 35.2609C103.582 33.5591 104.04 31.9214 104.52 30.2089C101.698 29.5904 99.049 29.0097 96.2741 28.4014C95.8195 30.1006 95.39 31.7059 94.919 33.4662ZM151.159 40.394C150.866 42.2525 150.6 43.9354 150.343 45.5656C153.184 46.1886 155.84 46.7708 158.566 47.3683C158.867 45.5618 159.147 43.88 159.426 42.2062C156.605 41.5878 153.988 41.014 151.159 40.394ZM137.701 37.4476C137.306 39.2488 136.939 40.9209 136.574 42.5885C139.369 43.2013 141.986 43.775 144.59 44.3459C144.973 42.5983 145.339 40.9327 145.717 39.205C142.958 38.6001 140.338 38.0257 137.701 37.4476Z" fill="#009FE3"/>
<path d="M140.838 87.1648C138.62 87.8051 138.18 88.3831 137.98 90.6991C137.607 95.0073 137.206 99.3132 136.804 103.619C136.767 104.021 136.636 104.415 136.51 104.992C132.618 104.156 128.637 104.717 124.706 103.911C128.317 85.1255 131.854 66.7261 135.41 48.2307C138.229 48.8487 140.908 49.4359 143.749 50.0587C143.042 54.445 142.306 58.8095 141.642 63.185C140.812 68.6514 140.019 74.1236 139.258 79.5999C138.936 81.919 139.36 82.5726 141.575 83.6765C141.329 84.8393 141.084 86.002 140.838 87.1648Z" fill="#F0F6F8"/>
<path d="M107.608 42.122C110.045 42.6562 112.722 43.243 115.578 43.8691C111.074 62.1285 106.589 80.3082 102.091 98.5383C99.9027 99.097 98.337 97.5361 96.5158 96.9685C94.6352 96.3825 92.8209 95.5842 91.1805 94.9564C96.6448 77.3823 102.093 59.8595 107.608 42.122Z" fill="#F0F6F8"/>
<path d="M96.2147 130.465C94.0257 130.786 93.3219 131.493 93.0395 133.66C92.5674 137.282 92.0966 140.904 91.6244 144.532C87.2858 145.184 83.4362 144.078 79.8176 141.997C79.4435 141.782 79.1012 141.191 79.068 140.75C78.4022 131.909 77.7835 123.065 77.1601 114.221C77.148 114.048 77.1939 113.872 77.2246 113.587C83.1507 114.886 89.0411 116.177 95.0958 117.504C94.8961 119.215 94.6648 120.924 94.504 122.641C94.2998 124.821 94.6948 125.433 96.758 126.365C96.5769 127.732 96.3958 129.098 96.2147 130.465Z" fill="#E0F0F4"/>
<path d="M123.243 123.63C129.286 124.955 135.139 126.238 141.268 127.582C139.117 131.601 137.067 135.519 134.935 139.392C132.74 143.38 130.488 147.336 128.199 151.27C127.917 151.753 127.278 152.28 126.758 152.334C122.65 152.756 118.779 151.995 115.1 149.66C117.798 141.034 120.499 132.401 123.243 123.63Z" fill="#E0F0F4"/>
<path d="M96.894 103.28C96.558 106.026 96.2242 108.755 95.8722 111.633C89.6183 110.262 83.3917 108.897 77.024 107.501C77.0626 104.676 77.1016 101.823 77.1419 98.865C84.1921 98.4843 90.6238 100.261 96.894 103.28Z" fill="#DFF0F4"/>
<path d="M125.006 118.075C125.865 115.304 126.681 112.672 127.521 109.962C134.392 109.935 140.961 110.868 147.319 114.088C146.109 116.81 144.931 119.461 143.723 122.178C137.491 120.812 131.353 119.466 125.006 118.075Z" fill="#DFF0F4"/>
<path d="M116.965 38.2904C114.067 37.6552 111.446 37.0807 108.803 36.5013C109.177 34.7978 109.532 33.1759 109.916 31.4233C112.674 32.0279 115.336 32.6115 118.078 33.2124C117.716 34.8622 117.349 36.5376 116.965 38.2904Z" fill="#EEF4F6"/>
<path d="M137.701 37.4475C140.338 38.0256 142.958 38.6 145.717 39.2049C145.339 40.9326 144.973 42.5982 144.59 44.3458C141.986 43.7749 139.369 43.2012 136.574 42.5884C136.939 40.9208 137.306 39.2487 137.701 37.4475Z" fill="#F1F7F9"/>
</g>
<defs>
<clipPath id="clip0_320_1072">
<rect width="185.948" height="185.948" fill="white" transform="translate(39.8164) rotate(12.3643)"/>
</clipPath>
</defs>
</svg>
