<svg width="326" height="523" viewBox="0 0 326 523" fill="none" xmlns="http://www.w3.org/2000/svg">
<path opacity="0.3" fill-rule="evenodd" clip-rule="evenodd" d="M472.065 186.09C480.966 205.622 482.39 210.489 479.92 212.941C478.226 214.622 477.478 214.456 476.155 212.103C472.381 205.395 456.341 201.312 445.526 204.306C438.995 206.115 434.777 209.616 428.503 218.434L425.008 223.346L419.479 218.681C392.163 195.628 332.154 181.262 302.216 190.607L291.778 193.866L282.14 183.894C270.244 171.587 272.89 170.583 285.197 182.734C292.078 189.528 293.769 190.587 292.59 187.358C290.9 182.727 293.142 173.923 296.013 173.923C297.103 173.923 297.375 176.671 296.743 181.294L295.736 188.665L303.627 186.198C330.081 177.931 385.428 190.628 414.616 211.659C419.114 214.899 422.795 217.225 422.795 216.824C422.795 216.425 421.969 213.971 420.958 211.373C417.285 201.93 413.015 173.923 415.249 173.923C416.457 173.923 417.76 177.246 418.376 181.895C419.896 193.371 424.897 214.201 426.134 214.201C426.713 214.201 428.835 211.964 430.851 209.23C435.546 202.86 448.381 198.793 459.324 200.208L467.139 201.22L461.282 194.985C458.061 191.555 451.021 185.414 445.638 181.336C439.124 176.404 436.91 173.923 439.017 173.923C444.048 173.923 461.207 189.67 479.214 210.811C479.59 211.253 478.305 207.854 476.356 203.259C474.269 198.338 468.568 190.587 462.494 184.412C450.986 172.713 451.122 169.872 462.654 181.056L470.009 188.188L466.448 181.056C464.425 177.001 463.672 173.923 464.704 173.923C465.703 173.923 469.015 179.398 472.065 186.09ZM255.077 176.021C254.667 177.176 232.99 247.817 206.906 333.001C171.867 447.427 158.902 487.663 157.27 487.033C156.055 486.567 155.062 486.916 155.062 487.809C155.062 489.291 158.816 490.207 162.33 489.581C163.107 489.443 163.445 490.225 163.08 491.32C162.235 493.862 155.062 496.631 155.062 494.416C155.062 493.521 152.851 492.791 150.15 492.791C147.449 492.791 143.119 491.915 140.529 490.845C137.938 489.772 134.968 489.03 133.929 489.193C132.89 489.356 131.521 487.777 130.888 485.686C130.192 483.388 129.394 482.714 128.872 483.981C128.399 485.134 127.227 486.078 126.27 486.078C125.214 486.078 125.343 485.098 126.597 483.583C127.733 482.21 128.163 479.778 127.55 478.179C126.938 476.58 126.953 475.789 127.584 476.42C128.213 477.053 130.08 476.843 131.734 475.955C135.82 473.762 140.002 475.648 140.002 479.684C140.002 481.629 139.136 482.683 137.91 482.232C136.759 481.809 136.007 480.614 136.237 479.575C136.713 477.425 133.932 476.996 132.681 479.026C131.389 481.123 133.678 483.692 139.499 486.683C146.912 490.492 152.327 490.4 150.328 486.498C149.008 483.922 159.693 444.573 165.252 431.535C166.611 428.348 191.701 350.487 205.272 307.344C208.756 296.268 217.432 269.08 224.552 246.927C231.674 224.774 239.841 199.287 242.704 190.286C247.353 175.675 248.333 173.923 251.866 173.923C254.311 173.923 255.535 174.724 255.077 176.021ZM220.879 272.381C221.493 272.996 221.995 272.492 221.995 271.262C221.995 270.032 221.493 269.528 220.879 270.143C220.266 270.758 220.266 271.765 220.879 272.381ZM218.648 278.814C218.648 279.276 219.025 279.653 219.485 279.653C219.945 279.653 220.322 279.276 220.322 278.814C220.322 278.353 219.945 277.975 219.485 277.975C219.025 277.975 218.648 278.353 218.648 278.814ZM215.302 288.884C215.302 289.345 215.678 289.723 216.138 289.723C216.598 289.723 216.975 289.345 216.975 288.884C216.975 288.422 216.598 288.044 216.138 288.044C215.678 288.044 215.302 288.422 215.302 288.884ZM203.588 327.483C203.588 327.945 203.965 328.323 204.425 328.323C204.885 328.323 205.262 327.945 205.262 327.483C205.262 327.022 204.885 326.644 204.425 326.644C203.965 326.644 203.588 327.022 203.588 327.483ZM197.452 346.224C198.066 346.839 198.568 346.335 198.568 345.105C198.568 343.875 198.066 343.371 197.452 343.986C196.84 344.602 196.84 345.609 197.452 346.224ZM194.385 353.496C193.816 354.419 193.727 355.175 194.188 355.175C194.648 355.175 195.489 354.419 196.058 353.496C196.627 352.573 196.716 351.818 196.256 351.818C195.796 351.818 194.954 352.573 194.385 353.496ZM187.764 373.52C187.233 374.379 187.566 375.555 188.501 376.136C189.437 376.715 190.202 376.012 190.202 374.574C190.202 371.625 189.198 371.192 187.764 373.52ZM173.518 421.046C173.562 425.681 173.835 426.044 175.332 423.461C176.301 421.79 176.679 419.336 176.171 418.007C174.624 413.964 173.465 415.293 173.518 421.046ZM170.679 436.85C171.293 437.464 171.795 436.961 171.795 435.731C171.795 434.501 171.293 433.997 170.679 434.611C170.066 435.227 170.066 436.234 170.679 436.85ZM144.951 472.52C146.461 475.349 146.327 476.009 144.244 476.009C142.831 476.009 141.675 475.267 141.675 474.363C141.675 473.394 137.364 472.971 131.217 473.339C125.464 473.683 118.31 474.045 115.32 474.148C111.682 474.27 109.882 475.165 109.882 476.848C109.882 478.233 108.707 479.365 107.273 479.365C105.748 479.365 105.153 478.572 105.842 477.456C106.672 476.106 105.349 475.826 101.339 476.506C70.7774 481.676 46.8938 481.022 56.1791 475.267C57.0275 474.74 58.0281 475.23 58.403 476.356C58.9217 477.92 66.3514 477.454 89.9204 474.373C135.239 468.448 142.645 468.2 144.951 472.52ZM210.282 474.616C214.423 475.344 226.906 477.429 238.021 479.246C267.178 484.016 283.908 491.048 283.908 498.536C283.908 500.045 282.165 499.176 279.171 496.175C270.965 487.943 224.15 477.35 193.548 476.799C171.132 476.397 166.775 476.032 166.775 474.566C166.775 472.773 200.042 472.81 210.282 474.616ZM68.0481 474.331C68.0481 475.561 67.5461 476.064 66.932 475.45C66.3196 474.834 66.3196 473.827 66.932 473.211C67.5461 472.597 68.0481 473.1 68.0481 474.331ZM64.7014 474.43C64.7014 475.406 63.9485 475.74 63.0281 475.17C62.1078 474.599 61.3548 473.8 61.3548 473.393C61.3548 472.985 62.1078 472.652 63.0281 472.652C63.9485 472.652 64.7014 473.453 64.7014 474.43ZM51.9925 476.376C45.8078 483.6 44.8356 484.4 42.2303 484.4C40.7845 484.4 39.6014 483.645 39.6014 482.722C39.6014 481.799 40.7644 481.044 42.1867 481.044C43.6091 481.044 46.6561 479.156 48.9569 476.848C54.1375 471.652 56.3281 471.311 51.9925 476.376ZM44.6214 476.108C44.6214 477.085 43.8684 477.419 42.9481 476.848C42.0277 476.277 41.2747 475.479 41.2747 475.071C41.2747 474.663 42.0277 474.331 42.9481 474.331C43.8684 474.331 44.6214 475.131 44.6214 476.108ZM124.105 477.687C123.536 478.61 122.318 479.365 121.397 479.365C120.477 479.365 120.189 478.61 120.758 477.687C121.327 476.764 122.545 476.009 123.466 476.009C124.386 476.009 124.674 476.764 124.105 477.687ZM115.559 478.664C116.94 482.27 116.856 482.722 114.803 482.722C113.829 482.722 113.496 481.967 114.065 481.044C114.634 480.121 114.301 479.365 113.327 479.365C112.353 479.365 111.555 478.61 111.555 477.687C111.555 475.032 114.44 475.735 115.559 478.664ZM35.06 477.048C37.073 479.067 31.2749 482.96 27.8696 481.876C23.3851 480.45 25.1989 477.734 29.824 478.948C32.2956 479.597 33.0537 479.283 32.2337 477.952C30.9921 475.937 33.236 475.22 35.06 477.048ZM196.895 479.365C193.65 481.468 191.875 481.468 191.875 479.365C191.875 478.442 193.57 477.699 195.64 477.712C198.684 477.734 198.925 478.05 196.895 479.365ZM19.5213 479.365C19.5213 480.288 18.7232 481.044 17.7493 481.044C16.7755 481.044 16.4424 480.288 17.0113 479.365C17.5803 478.442 18.3767 477.687 18.7833 477.687C19.1899 477.687 19.5213 478.442 19.5213 479.365ZM208.225 481.359C207.86 482.455 206.667 483.65 205.575 484.016C204.351 484.425 203.978 483.657 204.602 482.024C205.77 478.973 209.229 478.338 208.225 481.359ZM145.022 481.044C145.022 482.274 144.52 482.777 143.905 482.163C143.293 481.547 143.293 480.54 143.905 479.924C144.52 479.31 145.022 479.813 145.022 481.044ZM198.568 482.413C198.568 484.128 191.693 486.454 190.414 485.172C189.35 484.105 190.411 483.333 194.803 481.978C196.88 481.337 198.568 481.534 198.568 482.413ZM177.72 484.513C178.328 485.496 178.421 486.704 177.931 487.198C176.731 488.4 173.468 486.282 173.468 484.301C173.468 482.156 176.356 482.299 177.72 484.513ZM171.795 484.4C171.795 485.63 171.293 486.134 170.679 485.52C170.066 484.904 170.066 483.897 170.679 483.281C171.293 482.667 171.795 483.17 171.795 484.4ZM107.047 483.794C107.636 484.385 107.736 485.486 107.273 486.24C106.229 487.933 101.515 486.28 101.515 484.221C101.515 482.499 105.452 482.195 107.047 483.794ZM58.0081 484.4C58.0081 485.323 57.2551 486.078 56.3348 486.078C55.4144 486.078 54.6614 485.323 54.6614 484.4C54.6614 483.477 55.4144 482.722 56.3348 482.722C57.2551 482.722 58.0081 483.477 58.0081 484.4ZM228.688 486.865C228.688 488.366 227.708 488.952 226.178 488.364C224.798 487.832 223.668 486.723 223.668 485.899C223.668 485.075 224.798 484.4 226.178 484.4C227.559 484.4 228.688 485.509 228.688 486.865ZM215.302 486.177C215.302 487.154 214.549 487.488 213.628 486.918C212.708 486.347 211.955 485.548 211.955 485.14C211.955 484.732 212.708 484.4 213.628 484.4C214.549 484.4 215.302 485.201 215.302 486.177ZM167.332 485.52C169.839 488.032 168.562 491.618 165.938 489.435C164.558 488.285 163.428 486.683 163.428 485.874C163.428 484.135 165.744 483.925 167.332 485.52ZM93.1482 486.078C93.1482 487.001 92.3952 487.757 91.4749 487.757C90.5545 487.757 89.8015 487.001 89.8015 486.078C89.8015 485.155 90.5545 484.4 91.4749 484.4C92.3952 484.4 93.1482 485.155 93.1482 486.078ZM32.0714 486.078C32.6403 487.001 31.9307 487.757 30.4967 487.757C29.0626 487.757 27.888 487.001 27.888 486.078C27.888 485.155 28.5959 484.4 29.4627 484.4C30.3295 484.4 31.5024 485.155 32.0714 486.078ZM24.5414 486.078C24.5414 487.001 23.7883 487.757 22.868 487.757C21.9477 487.757 21.1947 487.001 21.1947 486.078C21.1947 485.155 21.9477 484.4 22.868 484.4C23.7883 484.4 24.5414 485.155 24.5414 486.078ZM115.738 487.757C115.169 488.68 113.951 489.435 113.031 489.435C112.11 489.435 111.823 488.68 112.392 487.757C112.96 486.834 114.179 486.078 115.099 486.078C116.019 486.078 116.307 486.834 115.738 487.757ZM87.2129 488.589C91.0749 489.969 97.0371 494.453 101.538 499.363C117.479 516.752 139.048 522.476 156.735 514.011C166.529 509.324 176.524 508.275 179.827 511.588C183.351 515.122 181.982 516.462 177.715 513.657C173.145 510.653 167.325 511.831 154.332 518.387C139.009 526.117 119.056 520.306 100.533 502.723C87.2162 490.081 82.5944 488.341 66.6291 489.955C58.1252 490.814 57.4995 490.668 60.4195 488.495C64.5409 485.429 78.5048 485.478 87.2129 488.589ZM192.712 489.435C192.143 490.358 191.346 491.113 190.939 491.113C190.533 491.113 190.202 490.358 190.202 489.435C190.202 488.512 191 487.757 191.974 487.757C192.948 487.757 193.281 488.512 192.712 489.435ZM54.412 490.449C57.4608 493.907 55.498 495.549 52.2317 492.271C50.806 490.843 49.6414 489.244 49.6414 488.715C49.6414 486.953 52.1263 487.856 54.412 490.449ZM47.968 489.435C47.968 490.358 46.8386 491.113 45.458 491.113C44.0775 491.113 42.9481 490.358 42.9481 489.435C42.9481 488.512 44.0775 487.757 45.458 487.757C46.8386 487.757 47.968 488.512 47.968 489.435ZM17.7994 489.369C19.1531 490.229 19.7757 491.419 19.18 492.014C17.7175 493.481 11.1546 491.279 11.1546 489.323C11.1546 487.325 14.615 487.349 17.7994 489.369ZM104.025 491.113C104.594 492.036 103.841 492.791 102.352 492.791C100.862 492.791 100.109 492.036 100.678 491.113C101.247 490.19 102 489.435 102.352 489.435C102.703 489.435 103.456 490.19 104.025 491.113ZM208.608 492.791C208.608 493.714 207.81 494.47 206.836 494.47C205.862 494.47 205.529 493.714 206.098 492.791C206.667 491.868 207.464 491.113 207.87 491.113C208.277 491.113 208.608 491.868 208.608 492.791ZM137.227 493.545C137.85 495.171 137.354 495.668 135.733 495.044C133.086 494.025 132.396 491.113 134.802 491.113C135.624 491.113 136.715 492.207 137.227 493.545ZM130.798 492.791C130.229 493.714 129.011 494.47 128.091 494.47C127.17 494.47 126.883 493.714 127.452 492.791C128.021 491.868 129.239 491.113 130.159 491.113C131.079 491.113 131.367 491.868 130.798 492.791ZM124.105 492.791C124.674 493.714 124.386 494.47 123.466 494.47C122.545 494.47 121.327 493.714 120.758 492.791C120.189 491.868 120.477 491.113 121.397 491.113C122.318 491.113 123.536 491.868 124.105 492.791ZM2.78796 492.791C2.78796 493.714 1.98984 494.47 1.01596 494.47C0.0420837 494.47 -0.290985 493.714 0.277954 492.791C0.846893 491.868 1.64331 491.113 2.04996 491.113C2.45657 491.113 2.78796 491.868 2.78796 492.791ZM83.9448 494.47C83.3759 495.393 82.2029 496.148 81.3362 496.148C80.4694 496.148 79.7615 495.393 79.7615 494.47C79.7615 493.547 80.9361 492.791 82.3701 492.791C83.8042 492.791 84.5138 493.547 83.9448 494.47ZM42.9481 494.47C42.9481 495.393 41.8185 496.148 40.438 496.148C39.0575 496.148 37.928 495.393 37.928 494.47C37.928 493.547 39.0575 492.791 40.438 492.791C41.8185 492.791 42.9481 493.547 42.9481 494.47ZM32.8243 495.206C34.7436 497.527 33.2611 497.71 24.5414 496.239C23.4704 496.057 28.375 492.852 29.7756 492.817C30.3529 492.803 31.7249 493.879 32.8243 495.206ZM222.832 496.148C222.263 497.071 220.713 497.826 219.386 497.826C218.059 497.826 216.975 497.071 216.975 496.148C216.975 495.225 218.526 494.47 220.42 494.47C222.315 494.47 223.401 495.225 222.832 496.148ZM15.338 496.148C15.9069 497.071 15.1974 497.826 13.7633 497.826C12.3293 497.826 11.1546 497.071 11.1546 496.148C11.1546 495.225 11.8625 494.47 12.7293 494.47C13.5961 494.47 14.769 495.225 15.338 496.148ZM177.951 498.605C177.633 499.562 176.368 500.344 175.142 500.344C173.915 500.344 172.65 499.562 172.332 498.605C172.016 497.65 173.279 496.868 175.142 496.868C177.004 496.868 178.267 497.65 177.951 498.605ZM114.902 497.826C114.902 498.749 113.772 499.504 112.392 499.504C111.011 499.504 109.882 498.749 109.882 497.826C109.882 496.903 111.011 496.148 112.392 496.148C113.772 496.148 114.902 496.903 114.902 497.826ZM85.5295 497.684C86.0683 498.558 85.7955 499.714 84.9237 500.255C84.0518 500.795 82.899 500.521 82.3601 499.647C81.8213 498.773 82.0942 497.616 82.966 497.076C83.8378 496.536 84.9907 496.809 85.5295 497.684ZM74.1842 497.267C73.5701 497.882 72.5662 497.882 71.952 497.267C71.3396 496.651 71.8416 496.148 73.0681 496.148C74.2947 496.148 74.7967 496.651 74.1842 497.267ZM62.1914 497.826C61.6225 498.749 60.4496 499.504 59.5828 499.504C58.716 499.504 58.0081 498.749 58.0081 497.826C58.0081 496.903 59.1827 496.148 60.6168 496.148C62.0508 496.148 62.7604 496.903 62.1914 497.826ZM229.804 498.946C229.19 499.56 228.186 499.56 227.572 498.946C226.96 498.33 227.462 497.826 228.688 497.826C229.915 497.826 230.417 498.33 229.804 498.946ZM189.41 499.578C190.924 502.035 188.722 504.509 185.965 503.447C184.614 502.928 183.508 501.908 183.508 501.183C183.508 499.103 188.312 497.796 189.41 499.578ZM55.4814 499.531C54.9024 500.47 53.7294 500.803 52.8727 500.271C50.5518 498.833 50.9834 497.826 53.9234 497.826C55.3575 497.826 56.0587 498.593 55.4814 499.531ZM206.935 501.183C206.935 502.106 205.805 502.861 204.425 502.861C203.044 502.861 201.915 502.106 201.915 501.183C201.915 500.26 203.044 499.504 204.425 499.504C205.805 499.504 206.935 500.26 206.935 501.183ZM129.125 502.861C128.556 503.784 127.007 504.539 125.68 504.539C124.353 504.539 123.268 503.784 123.268 502.861C123.268 501.938 124.819 501.183 126.714 501.183C128.608 501.183 129.694 501.938 129.125 502.861ZM50.4781 502.861C51.047 503.784 50.3374 504.539 48.9034 504.539C47.4693 504.539 46.2947 503.784 46.2947 502.861C46.2947 501.938 47.0026 501.183 47.8694 501.183C48.7362 501.183 49.9091 501.938 50.4781 502.861ZM42.9481 502.861C42.9481 503.784 42.195 504.539 41.2747 504.539C40.3544 504.539 39.6014 503.784 39.6014 502.861C39.6014 501.938 40.3544 501.183 41.2747 501.183C42.195 501.183 42.9481 501.938 42.9481 502.861ZM94.8215 504.539C94.8215 505.462 93.692 506.217 92.3115 506.217C90.931 506.217 89.8015 505.462 89.8015 504.539C89.8015 503.616 90.931 502.861 92.3115 502.861C93.692 502.861 94.8215 503.616 94.8215 504.539ZM166.775 506.217C166.775 507.14 165.645 507.896 164.265 507.896C162.884 507.896 161.755 507.14 161.755 506.217C161.755 505.294 162.884 504.539 164.265 504.539C165.645 504.539 166.775 505.294 166.775 506.217ZM139.444 507.337C138.83 507.951 137.826 507.951 137.212 507.337C136.6 506.721 137.102 506.217 138.328 506.217C139.555 506.217 140.057 506.721 139.444 507.337ZM101.515 507.896C101.515 508.819 100.385 509.574 99.0049 509.574C97.6244 509.574 96.4949 508.819 96.4949 507.896C96.4949 506.973 97.6244 506.217 99.0049 506.217C100.385 506.217 101.515 506.973 101.515 507.896ZM74.7415 507.896C74.7415 508.819 73.9885 509.574 73.0681 509.574C72.1478 509.574 71.3948 508.819 71.3948 507.896C71.3948 506.973 72.1478 506.217 73.0681 506.217C73.9885 506.217 74.7415 506.973 74.7415 507.896ZM82.5509 509.015C81.9368 509.629 80.9328 509.629 80.3187 509.015C79.7063 508.399 80.2083 507.896 81.4348 507.896C82.6614 507.896 83.1634 508.399 82.5509 509.015ZM68.0481 510.413C68.0481 511.952 67.2383 512.939 66.2494 512.608C65.2604 512.278 64.4504 511.289 64.4504 510.413C64.4504 509.537 65.2604 508.549 66.2494 508.218C67.2383 507.887 68.0481 508.874 68.0481 510.413ZM146.695 511.252C146.695 512.175 145.565 512.93 144.185 512.93C142.804 512.93 141.675 512.175 141.675 511.252C141.675 510.329 142.804 509.574 144.185 509.574C145.565 509.574 146.695 510.329 146.695 511.252ZM84.7815 512.93C84.7815 513.854 84.0285 514.609 83.1082 514.609C82.1878 514.609 81.4348 513.854 81.4348 512.93C81.4348 512.007 82.1878 511.252 83.1082 511.252C84.0285 511.252 84.7815 512.007 84.7815 512.93ZM102.688 516.106C104.663 519.279 104.025 521.322 101.056 521.322C100.191 521.322 99.9169 520.189 100.447 518.804C100.976 517.42 100.68 516.287 99.7896 516.287C98.8978 516.287 98.1682 515.532 98.1682 514.609C98.1682 511.892 100.556 512.682 102.688 516.106ZM116.575 521.322C116.575 522.245 115.822 523 114.902 523C113.981 523 113.228 522.245 113.228 521.322C113.228 520.399 113.981 519.643 114.902 519.643C115.822 519.643 116.575 520.399 116.575 521.322ZM231.961 1.7726C233.802 2.03106 243.968 3.1672 254.551 4.30002C265.135 5.43285 275.677 7.12447 277.978 8.06094C280.279 8.9974 282.915 9.8416 283.835 9.93894C284.755 10.0363 287.881 11.4107 290.782 12.9916C295.973 15.8228 296.097 15.8027 298.769 11.7145C301.515 7.51047 307.504 5.7903 305.928 9.65868C302.181 18.8505 300.615 17.4776 319.812 21.8293C371.98 33.6509 412.391 68.1861 446.473 130.073C469.492 171.872 470.619 175.316 456.801 161.626C439.069 144.058 408.418 118.312 408.579 121.122C408.622 121.892 412.918 125.542 418.123 129.234C428.523 136.61 457.974 164.926 456.639 166.265C456.178 166.726 449.428 160.849 441.637 153.203C427.646 139.475 406.025 122.786 407.742 127.041C408.227 128.247 411.422 130.976 414.837 133.108C422.203 137.701 456.937 170.195 454.515 170.229C453.595 170.242 444.584 162.739 434.49 153.557C424.397 144.374 413.872 136.068 411.102 135.1C408.331 134.131 406.8 133.974 407.7 134.749C408.599 135.526 416.489 141.905 425.233 148.925C440.076 160.844 452.664 172.721 446.985 169.445C445.605 168.65 436.751 161.73 427.308 154.071C417.867 146.409 409.728 140.143 409.221 140.143C407.044 140.143 410.943 143.8 421.079 151.263C427.044 155.657 431.925 159.899 431.925 160.692C431.925 161.484 429.388 160.19 426.288 157.818C423.148 155.417 419.516 153.941 418.09 154.49C416.683 155.032 414.954 154.541 414.25 153.398C413.356 151.948 413.811 151.644 415.754 152.392C419.901 153.988 419.129 152.661 413.937 149.273C409.932 146.66 409.633 146.634 411.631 149.08C413.127 150.909 413.272 151.891 412.049 151.891C411.017 151.891 410.172 153.024 410.172 154.408C410.172 155.937 411.728 156.926 414.131 156.926C418.903 156.926 443.533 168.989 440.697 169.937C439.599 170.303 433.833 168.198 427.882 165.261C419.864 161.302 414.323 159.795 406.49 159.445C397.048 159.022 394.673 158.131 384.222 151.085C361.304 135.635 317.35 117.743 286.81 111.433C274.064 108.8 275.902 106.618 267.322 134.578L260.142 157.973L268.631 163.607C273.3 166.705 276.194 169.549 275.063 169.927C273.932 170.306 270.925 169.168 268.382 167.401C260.037 161.606 259.642 161.556 257.937 166.055C256.891 168.811 255.028 170.352 252.738 170.352C249.18 170.352 249.021 167.943 252.053 160.017C255.696 150.498 187.782 139.525 152.918 144C144.121 145.129 142.627 144.956 143.414 142.904C149.295 127.531 103.208 99.6081 67.6867 97.0236C55.2086 96.1157 48.4266 94.397 50.453 92.6567C50.8864 92.2858 56.8183 88.0902 63.6355 83.3357C74.0102 76.0991 75.322 74.691 71.6825 74.691C61.9955 74.691 66.189 69.2618 88.8912 52.4138C129.434 22.3227 199.331 -9.25189 199.331 2.5261C199.331 3.44914 196.995 4.20435 194.141 4.20435C179.767 4.20435 142.438 20.4868 142.438 26.7567C142.438 28.9754 141 37.0814 139.243 44.7695C133.201 71.2037 133.199 71.3345 138.797 71.3345C143.594 71.3345 170.839 75.6897 176.074 77.2941C178.236 77.957 179.318 75.4345 181.683 64.2355C183.296 56.6029 186.043 45.085 187.789 38.6422C189.536 32.1994 190.965 24.8368 190.965 22.2792C190.965 19.7232 191.718 17.6304 192.638 17.6304C195.188 17.6304 194.694 22.4236 190.101 42.2505C187.785 52.2461 184.91 64.7391 183.712 70.0105L181.535 79.5933L186.222 80.6254C188.799 81.1943 191.41 81.7901 192.024 81.9513C194.144 82.5068 197.795 68.7131 201.938 44.4825C206.694 16.6771 207.301 14.2739 209.582 14.2739C210.496 14.2739 210.83 14.9435 210.325 15.7608C209.821 16.5798 207.539 28.8647 205.255 43.0644C201.202 68.2483 198.69 78.6048 195.698 82.4665C194.45 84.0793 198.889 87.6288 200.191 86.0596C200.581 85.588 206.816 55.8812 213.23 23.9238C217.002 5.13075 219.736 -0.583707 217.646 14.6934C216.13 25.78 204.346 83.4113 203.223 85.2322C202.317 86.704 205.688 91.4736 207.636 91.4736C209.027 91.4736 211.886 78.9991 214.371 62.1041C213.053 96.0736 224.348 12.5805 226.245 9.23912C228.799 4.74643 228.042 10.9643 223.673 30.4119C221.416 40.458 218.714 55.7604 217.668 64.4169C216.622 73.0716 214.699 83.1848 213.396 86.8904C211.532 92.1903 211.458 94.147 213.053 96.0736C216.455 100.184 220.799 83.6378 223.707 55.4952C226.377 29.6366 228.024 19.9364 231.13 11.7448C234.117 3.86206 234.818 8.35962 232.084 17.8703C230.663 22.8144 228.722 35.8479 227.773 46.8304C225.477 73.4022 227.366 75.3858 230.333 49.5172C231.754 37.1166 237.821 10.4694 239.675 8.48398C241.829 6.17806 241.581 8.24053 237.806 24.0296C233.133 43.5795 233.867 46.7397 238.852 28.539C244.672 7.29234 244.376 7.99545 246.248 10.9643C247.493 12.9362 247.811 12.708 247.833 9.8281C247.861 5.65261 242.431 4.78334 217.32 4.94781C202.967 5.04179 198.953 3.91906 206.443 1.90515C210.119 0.918338 225.283 0.839495 231.961 1.7726ZM259.715 15.113L259.807 18.4695L261.245 15.113C263.395 10.095 263.395 5.90275 261.245 9.23912C260.353 10.6237 259.663 13.2669 259.715 15.113ZM254.577 15.1784C254.563 17.0597 253.104 21.445 251.337 24.924C249.302 28.9233 248.971 30.5413 250.435 29.3229C251.707 28.2639 253.236 25.8554 253.834 23.9708C254.602 21.5406 255.291 21.148 256.198 22.6232C257.11 24.1017 257.811 24.1656 258.624 22.8448C259.254 21.8228 258.905 20.9869 257.85 20.9869C256.538 20.9869 256.273 18.7313 257.013 13.8543C257.801 8.6618 257.62 7.40646 256.349 9.23912C255.388 10.6237 254.592 13.2954 254.577 15.1784ZM248.675 17.6304C247.4 26.9967 250.32 23.412 252.092 13.4348C252.933 8.69536 252.758 7.21514 251.493 8.39999C250.509 9.32303 249.24 13.4767 248.675 17.6304ZM271.394 11.624C269.775 13.5808 270.037 13.8476 272.844 13.1125C274.727 12.6174 275.855 11.545 275.351 10.726C274.124 8.7373 273.704 8.83133 271.394 11.624ZM267.938 10.0782C267.938 10.5398 268.315 10.9174 268.775 10.9174C269.235 10.9174 269.611 10.5398 269.611 10.0782C269.611 9.61672 269.235 9.23912 268.775 9.23912C268.315 9.23912 267.938 9.61672 267.938 10.0782ZM265.984 14.6633C267.225 15.9086 267.443 15.2524 266.715 12.4614C266.123 10.1924 265.364 9.4305 264.946 10.6875C264.545 11.8992 265.01 13.6866 265.984 14.6633ZM281.882 13.715C282.496 14.3292 283.5 14.3292 284.114 13.715C284.727 13.0991 284.225 12.5956 282.998 12.5956C281.772 12.5956 281.27 13.0991 281.882 13.715ZM241.265 29.3698C239.421 37.1183 238.248 43.7961 238.661 44.209C239.585 45.1354 240.276 42.8814 242.696 31.0564C243.735 25.9797 245.055 19.938 245.633 17.6304C246.208 15.3228 246.215 13.851 245.649 14.3595C245.084 14.868 243.111 21.6229 241.265 29.3698ZM182.421 38.669C179.852 52.085 176.808 65.6788 175.655 68.8776C173.361 75.2382 169.82 77.0137 171.589 70.915C172.707 67.0634 184.271 15.9555 184.271 14.8696C184.271 14.5424 184.905 14.2739 185.68 14.2739C186.455 14.2739 184.987 25.2514 182.421 38.669ZM266.501 19.9732L261.067 23.9927L271.614 25.1172C291.206 27.2033 302.166 29.6182 323.158 36.4755C349.386 45.0447 347.139 46.7767 320.384 38.6137C289.365 29.1483 258.675 25.2346 254.551 30.2173C252.743 32.4024 253.671 32.7347 261.584 32.7347C293.46 32.7347 357.667 52.0011 371.275 65.6487C374.838 69.2217 372.733 68.4915 361.284 62.1846C336.406 48.4767 297.831 38.4895 258.534 35.5811L249.965 34.9482L244.977 42.6516C234.876 58.2459 234.739 57.3731 247.483 58.6888C299.096 64.0173 389.67 92.724 383.984 101.951C383.479 102.77 381.787 102.28 380.226 100.862C366.258 88.1842 271.681 61.265 241.111 61.265C236.536 61.265 231.13 65.7175 231.115 69.4969C231.108 70.9687 230.024 74.2497 228.703 76.7889L226.304 81.4041L241.682 81.4377C300.781 81.5635 359.672 102.409 394.462 135.518L401.343 142.066L400.038 133.776C394.036 95.6945 369.871 50.5325 348.258 37.0041C340.506 32.1522 327.618 27.1125 329.097 29.5107C329.832 30.704 328.804 30.5984 326.289 29.2255C324.107 28.034 316.674 25.7582 309.772 24.1672C302.869 22.5762 293.457 20.1445 288.855 18.7633C276.924 15.1819 272.664 15.4134 266.501 19.9732ZM176.559 23.0847C172.79 48.4532 167.25 69.6563 164.39 69.6563C163.535 69.6563 164.584 63.2756 166.725 55.4767C168.863 47.6779 171.531 35.5945 172.652 28.6247C173.773 21.6549 175.349 15.9521 176.154 15.9521C176.959 15.9521 177.141 19.161 176.559 23.0847ZM163.626 18.8891C163.191 20.5052 160.697 30.323 158.084 40.7064C153.703 58.1065 150.995 63.9368 150.676 56.6498C150.605 55.0336 149.657 56.6734 148.569 60.2917C147.48 63.91 145.535 67.2229 144.247 67.6525C142.527 68.2281 142.247 67.5954 143.194 65.2693C143.904 63.5289 146.874 52.5112 149.796 40.7869C154.817 20.6361 157.498 13.4029 157.498 20.0085C157.498 21.6229 155.955 29.0039 154.071 36.4083C152.185 43.8128 150.888 50.6063 151.186 51.5042C151.484 52.4021 153.967 44.7694 156.702 34.5438C159.437 24.3182 162.292 15.9521 163.047 15.9521C163.8 15.9521 164.061 17.2729 163.626 18.8891ZM170.88 17.7144C170.819 26.6863 160.898 66.2998 158.711 66.2998C157.829 66.2998 157.597 64.5997 158.194 62.5237C158.793 60.4477 161.213 50.0627 163.572 39.4477C166.947 24.2679 170.915 12.4665 170.88 17.7144ZM150.805 23.417C150.805 24.7546 148.987 31.7395 146.765 38.9409C144.543 46.1423 142.227 54.4798 141.616 57.4705C141.006 60.4595 139.812 63.3359 138.962 63.8629C136.046 65.6704 137.468 57.0526 142.438 42.8042C145.174 34.9584 147.423 26.839 147.436 24.763C147.448 22.687 148.211 20.9869 149.131 20.9869C150.052 20.9869 150.805 22.0811 150.805 23.417ZM199.321 25.5031C199.226 38.5935 190.354 76.3693 187.374 76.3693C186.391 76.3693 186.062 75.1274 186.642 73.6085C189.313 66.6304 194.02 46.0047 195.109 36.5075C196.063 28.2018 199.365 19.5756 199.321 25.5031ZM134.46 27.3475C131.797 29.4034 129.167 35.4936 125.649 47.755C122.89 57.3663 120.268 65.5983 119.823 66.0464C116.051 69.8275 119.93 51.8283 126.916 33.1325C127.833 30.6772 127.595 30.5496 125.417 32.3252C123.993 33.4832 121.096 41.0353 118.981 49.1077C116.864 57.1784 114.517 65.021 113.765 66.5348C112.674 68.7282 113.436 69.4398 117.522 70.0406C123.531 70.925 123.762 70.4904 130.181 46.1607C133.703 32.8119 137.418 23.6033 137.418 28.2168C137.418 31.392 128.864 65.1938 127.336 68.0585C125.954 70.6464 126.126 71.3345 128.156 71.3345C129.568 71.3345 130.725 70.7673 130.726 70.0758C130.728 68.4865 135.104 47.4027 138.152 34.2955C140.647 23.5681 140.271 22.8616 134.46 27.3475ZM246.185 26.8608C246.185 27.3223 246.561 27.6999 247.021 27.6999C247.482 27.6999 247.858 27.3223 247.858 26.8608C247.858 26.3993 247.482 26.0217 247.021 26.0217C246.561 26.0217 246.185 26.3993 246.185 26.8608ZM244.511 35.2521C244.511 35.7136 244.888 36.0912 245.348 36.0912C245.808 36.0912 246.185 35.7136 246.185 35.2521C246.185 34.7905 245.808 34.4129 245.348 34.4129C244.888 34.4129 244.511 34.7905 244.511 35.2521ZM113.166 49.1313C107.638 66.6187 107.013 69.6563 108.939 69.6563C109.876 69.6563 110.645 68.2013 110.645 66.4206C110.645 64.6417 112.806 57.0593 115.449 49.5709C118.091 42.0825 119.518 36.2019 118.62 36.5024C117.721 36.8028 115.268 42.4854 113.166 49.1313ZM358.298 40.1879C358.298 40.5957 359.169 41.4666 360.231 42.1245C361.428 42.8679 361.709 42.5861 360.967 41.3861C359.776 39.4511 358.298 38.7882 358.298 40.1879ZM107.838 43.9068C109.309 45.382 101.272 66.9157 98.9612 67.6877C97.39 68.213 97.0739 67.5215 97.9005 65.365C99.0099 62.465 98.8994 62.4516 95.9426 65.1351C91.1418 69.4935 90.3571 68.5386 93.7958 62.5237C95.511 59.5247 97.4336 55.3223 98.0694 53.1876C100.169 46.1289 92.8554 52.627 90.4391 59.966C89.2644 63.5406 87.2095 67.0769 85.8759 67.8254C83.995 68.881 84.3414 69.4095 87.4254 70.1832C90.6181 70.9837 102.725 70.1396 103.243 69.079C108.625 58.0713 113.392 39.6508 110.451 41.23C108.56 42.2454 107.383 43.4503 107.838 43.9068ZM282.998 47.3557C313.381 52.716 388.946 79.1251 375.383 79.6437C374.197 79.689 370.405 78.2825 366.958 76.5186C340.931 63.2017 265.279 44.7308 252.903 48.6697C250.96 49.289 249.531 48.9836 249.531 47.9514C249.531 46.1842 273.9 45.7513 282.998 47.3557ZM233.364 51.615C233.827 52.7697 234.207 51.8248 234.207 49.5172C234.207 47.2096 233.827 46.2664 233.364 47.4194C232.898 48.574 232.898 50.4621 233.364 51.615ZM102.808 49.8327C103.342 51.1703 103.739 50.7726 103.819 48.8174C103.891 47.0485 103.496 46.0583 102.941 46.6155C102.385 47.1727 102.325 48.621 102.808 49.8327ZM371.685 51.7744C371.685 52.0933 373.38 53.7917 375.45 55.5505L379.215 58.7476L376.027 54.9716C373.032 51.4237 371.685 50.4318 371.685 51.7744ZM379.991 55.3174C381.103 56.6616 381.578 58.469 381.044 59.335C380.51 60.1993 381.819 61.3456 383.951 61.8827C388.664 63.0692 404.089 74.6374 402.751 75.9817C402.223 76.5103 400.1 75.3908 398.033 73.4961C395.967 71.5996 391.64 68.7365 388.418 67.1321L382.562 64.2155L387.476 69.4533C390.179 72.3331 393.095 74.691 393.957 74.691C394.819 74.691 400.513 78.1582 406.613 82.3958C417.071 89.6627 417.347 89.7583 411.452 84.0741C408.013 80.7595 405.722 78.0476 406.362 78.0476C406.999 78.0476 404.196 74.6491 400.132 70.4954C396.067 66.3417 391.725 62.9433 390.482 62.9433C389.238 62.9433 388.634 62.2737 389.138 61.4547C389.642 60.6374 388.79 58.9373 387.242 57.6786C385.308 56.1061 384.822 56.0456 385.686 57.4889C386.377 58.6436 386.144 59.5868 385.17 59.5868C384.197 59.5868 383.398 58.516 383.398 57.2087C383.398 55.2199 381.596 53.6457 378.593 53.0063C378.249 52.9341 378.879 53.9731 379.991 55.3174ZM101.162 55.6714C101.776 56.2856 102.278 55.7822 102.278 54.552C102.278 53.3218 101.776 52.8184 101.162 53.4326C100.549 54.0485 100.549 55.0555 101.162 55.6714ZM86.1018 60.7061C86.7159 61.3204 87.2179 60.8169 87.2179 59.5868C87.2179 58.3566 86.7159 57.8531 86.1018 58.4674C85.4893 59.0833 85.4893 60.0902 86.1018 60.7061ZM388.418 60.4259C388.418 60.8874 388.042 61.265 387.582 61.265C387.122 61.265 386.745 60.8874 386.745 60.4259C386.745 59.9644 387.122 59.5868 387.582 59.5868C388.042 59.5868 388.418 59.9644 388.418 60.4259ZM385.092 74.587C390.631 82.8356 396.471 90.0086 398.065 90.5255C401.146 91.5207 411.607 99.8313 428.84 114.969C437.43 122.515 438.639 123.189 435.461 118.66C433.324 115.612 423.748 107.058 414.179 99.6518C404.613 92.244 396.785 85.8631 396.785 85.4721C396.785 83.3021 401.082 85.7575 412.091 94.2176C429.805 107.83 430.095 107.989 422.722 100.048C415.029 91.7606 396.633 78.0476 393.207 78.0476C391.934 78.0476 387.588 73.8939 383.549 68.8172C373.069 55.6445 373.529 57.3664 385.092 74.587ZM76.1823 67.1389L71.6692 71.3345H75.9012C79.0872 71.3345 80.3321 70.2974 80.9345 67.1389C81.3746 64.8313 81.5 62.9433 81.2155 62.9433C80.9294 62.9433 78.6655 64.8313 76.1823 67.1389ZM100.981 75.1643C102.567 76.2887 108.513 79.8517 114.192 83.0823C128.397 91.1648 146.268 108.144 151.365 118.401L155.538 126.799L158.944 122.003C165.502 112.766 147.518 85.6283 128.215 75.6326C121.814 72.3181 96.3459 71.8799 100.981 75.1643ZM146.011 86.7879C152.488 93.4405 159.416 102.08 161.407 105.989L165.028 113.093L175.344 98.5072C186.388 82.8911 186.386 83.4381 175.418 80.7647L170.747 79.6269L173.326 84.628C174.745 87.3787 175.874 90.9885 175.838 92.6483C175.799 94.4021 174.372 92.8547 172.434 88.9595C168.328 80.7008 166.316 78.7658 160.384 77.3746L155.741 76.2837L162.225 85.9773C169.358 96.6409 171.577 101.543 169.271 101.543C168.442 101.543 167.29 100.046 166.711 98.2186C164.541 91.3629 152.453 77.2119 147.858 76.1478C133.661 72.8652 133.479 73.9157 146.011 86.7879ZM69.7616 82.3489C55.8461 92.1046 55.304 93.1451 64.1108 93.1803C91.6372 93.2928 132.195 112.63 142.368 130.495L147.036 138.693L150.508 134.266C158.678 123.849 135.882 97.2686 105.29 81.5366C87.8103 72.5479 83.6051 72.6436 69.7616 82.3489ZM405.152 77.2084C405.152 77.6699 404.775 78.0476 404.315 78.0476C403.855 78.0476 403.478 77.6699 403.478 77.2084C403.478 76.7469 403.855 76.3693 404.315 76.3693C404.775 76.3693 405.152 76.7469 405.152 77.2084ZM222.962 88.5366C222.199 90.6126 221.093 94.3149 220.502 96.7601L219.431 101.208L235.736 101.338C283.629 101.719 354.083 124.544 391.332 151.743C400.068 158.122 399.621 158.157 400.453 151.015C401.83 139.193 364.262 112.693 327.342 99.4402C290.547 86.234 226.274 79.5194 222.962 88.5366ZM172.053 108.676C163.36 121.83 155.473 134.101 154.528 135.947C152.846 139.228 153.376 139.307 178.162 139.475C205.752 139.661 224.876 142.919 243.902 150.672L253.977 154.779L260.042 136.132C268.877 108.971 268.857 107.756 259.571 106.306C248.998 104.656 224.132 104.237 219.739 105.635C216.849 106.554 215.748 105.96 214.567 102.844C212.81 98.2101 194.256 85.1399 188.992 84.8278C188.368 84.7908 180.746 95.5215 172.053 108.676ZM397.761 97.1076C398.341 98.6247 399.677 99.8699 400.729 99.8749C403.306 99.8867 423.535 116.112 436.942 128.917C442.921 134.63 446.61 137.416 445.141 135.108C440.757 128.227 398.969 92.0811 397.316 93.7392C396.981 94.0748 397.182 95.5904 397.761 97.1076ZM395.008 101.963C396.946 106.885 406.755 124.515 406.795 123.146C406.884 120.044 395.811 98.1866 394.151 98.1866C393.805 98.1866 394.19 99.8867 395.008 101.963ZM403.452 106.526C404.421 108.345 411.413 114.536 418.989 120.287C426.564 126.039 437.502 135.278 443.299 140.819C449.094 146.361 453.402 149.766 452.875 148.387C451.714 145.354 404.991 103.821 402.165 103.307C401.902 103.26 402.481 104.708 403.452 106.526ZM271.285 109.095C271.285 109.557 271.661 109.934 272.121 109.934C272.582 109.934 272.958 109.557 272.958 109.095C272.958 108.634 272.582 108.256 272.121 108.256C271.661 108.256 271.285 108.634 271.285 109.095ZM406.825 115.709C406.825 116.117 407.695 116.988 408.758 117.646C409.954 118.389 410.235 118.108 409.494 116.908C408.303 114.973 406.825 114.31 406.825 115.709ZM411.845 119.165C411.845 119.626 412.222 120.004 412.682 120.004C413.142 120.004 413.518 119.626 413.518 119.165C413.518 118.703 413.142 118.326 412.682 118.326C412.222 118.326 411.845 118.703 411.845 119.165ZM308.098 120.872C308.098 121.348 306.216 130.471 303.915 141.145C301.614 151.819 299.732 162.756 299.732 165.451C299.732 168.688 298.88 170.352 297.222 170.352C294.067 170.352 293.992 171.419 298.756 148.534C304.158 122.595 304.87 120.004 306.606 120.004C307.427 120.004 308.098 120.395 308.098 120.872ZM428.639 132.324C440.523 143.244 447.134 148.393 438.137 139.723C432.628 134.417 427.687 130.073 427.154 130.073C426.622 130.073 427.29 131.087 428.639 132.324ZM403.478 147.596C403.478 148.004 404.349 148.875 405.411 149.533C406.608 150.276 406.889 149.994 406.147 148.794C404.956 146.859 403.478 146.197 403.478 147.596ZM401.805 153.569C401.805 154.492 402.558 155.247 403.478 155.247C404.399 155.247 405.152 154.492 405.152 153.569C405.152 152.646 404.399 151.891 403.478 151.891C402.558 151.891 401.805 152.646 401.805 153.569ZM453.679 154.309C453.679 154.717 454.549 155.588 455.611 156.246C456.808 156.989 457.089 156.707 456.347 155.507C455.156 153.572 453.679 152.91 453.679 154.309ZM417.275 166.156C417.811 168.969 417.324 170.352 415.796 170.352C414.482 170.352 413.518 168.576 413.518 166.156C413.518 163.848 414.184 161.96 414.996 161.96C415.809 161.96 416.835 163.848 417.275 166.156Z" fill="#009FE3"/>
</svg>
