<svg width="254" height="288" viewBox="0 0 254 288" fill="none" xmlns="http://www.w3.org/2000/svg">
<path opacity="0.5" fill-rule="evenodd" clip-rule="evenodd" d="M199.569 287.554C211.969 288.492 217.095 272.138 206.336 265.968C195.564 259.79 184.16 272.014 190.884 282.529C192.506 285.066 196.392 287.314 199.569 287.554ZM193.547 282.529C189.712 278.485 190.302 271.521 194.751 268.304C203.285 262.134 214.015 271.612 208.774 280.689C205.469 286.414 198.078 287.307 193.547 282.529ZM200.576 284.33C205.212 284.784 209.331 280.828 208.584 276.639L208.389 275.547L208.134 276.803C207.453 280.139 201.191 284.629 198.99 283.358C198.767 283.229 198.414 283.215 198.207 283.326C197.614 283.645 198.827 284.159 200.576 284.33ZM11.6413 171.629C21.0918 174.6 30.9081 168.635 32.5248 158.94C35.3477 142.009 12.9863 133.074 3.23605 147.236C-2.8033 156.008 1.47813 168.434 11.6413 171.629ZM5.80369 164.11C-2.48032 152.464 10.8934 137.654 23.2513 144.789C33.2379 150.555 31.6149 165.447 20.6131 168.994C15.2458 170.725 9.05776 168.684 5.80369 164.11ZM13.2949 167.583C14.7641 167.851 16.8938 167.739 17.9837 167.337C18.5137 167.141 18.2182 167.009 16.5402 166.694C11.2176 165.692 6.67894 161.002 6.11241 155.918C5.88884 153.913 5.40131 154.181 5.10814 156.469C4.47291 161.426 8.34212 166.678 13.2949 167.583ZM157.274 241.811C172.102 246.171 186.261 232.482 182.292 217.623C177.701 200.439 154.6 197.203 145.79 212.511C139.261 223.853 144.87 238.162 157.274 241.811ZM149.35 231.896C142.886 222.212 147.792 209.393 159.003 206.678C174.72 202.871 186.075 221.636 175.314 233.633C168.19 241.576 155.233 240.709 149.35 231.896ZM159.301 237.171C162.8 237.909 167.441 236.839 169.841 234.74L171.182 233.567L168.273 234.272C161.799 235.84 154.967 233.412 151.418 228.282C150.143 226.44 149.863 226.177 149.844 226.803C149.724 230.586 154.879 236.238 159.301 237.171ZM195.894 246.977C208.709 249.128 215.012 232.347 203.816 225.883C193.488 219.92 182.139 232.035 188.616 242.109C189.818 243.978 193.767 246.62 195.894 246.977ZM191.152 242.031C186.28 236.893 189.131 228.099 196.157 226.598C204.539 224.806 210.779 234.118 205.866 241.086C202.304 246.138 195.463 246.577 191.152 242.031ZM197.167 243.949C198.141 243.985 199.352 243.81 199.858 243.559L200.778 243.103L199.168 243.009C195.52 242.798 192.449 240.653 191.07 237.352L190.272 235.443L190.225 236.581C190.061 240.507 193.161 243.798 197.167 243.949ZM126.487 198.866C138.874 202.092 150.468 190.408 147.128 178.062C143.508 164.676 126.125 161.095 117.5 171.957C110.052 181.338 114.897 195.847 126.487 198.866ZM119.405 190.449C109.741 176.621 128.808 160.61 140.666 172.595L142.457 174.405L140.935 173.85C134.433 171.477 130.163 180.158 136.133 183.611C138.982 185.259 142.289 184.158 143.727 181.083L144.493 179.444L144.683 180.585C147.03 194.617 127.612 202.194 119.405 190.449ZM236.615 258.02C246.52 261.657 256.423 251.913 253.118 241.783C251.081 235.542 244.58 231.84 238.141 233.255C225.576 236.016 224.494 253.569 236.615 258.02ZM126.754 193.953C130.746 194.78 130.851 194.22 127.109 192.06C122.107 189.172 120.061 185.724 120.017 180.106L119.999 177.87L119.39 179.409C116.898 185.7 120.411 192.638 126.754 193.953ZM231.678 251.092C229.617 247.728 229.834 242.838 232.183 239.688C237.844 232.096 249.297 234.562 251.258 243.796C253.742 255.494 237.972 261.37 231.678 251.092ZM240.86 255.354C245.079 255.547 248.886 252.591 249.346 248.766L249.487 247.587L248.548 249.079C246.519 252.302 241.641 254.399 238.193 253.529C235.848 252.938 235.59 253.222 237.493 254.301C238.599 254.927 239.81 255.307 240.86 255.354ZM46.8551 132.281C55.1048 133.797 60.1137 123.769 53.9335 118.11C50.036 114.541 44.1143 115.575 41.385 120.303C38.6312 125.072 41.4713 131.292 46.8551 132.281ZM134.487 180.077C133.382 176.424 137.482 173.045 140.738 174.925C143.228 176.363 143.903 178.823 142.482 181.285C140.633 184.487 135.59 183.726 134.487 180.077ZM42.7502 127.78C40.6936 124.803 42.0106 119.995 45.3484 118.294C52.7164 114.537 59.196 124.872 52.4545 129.628C49.133 131.971 45.1171 131.206 42.7502 127.78ZM139.593 182.701C140.393 182.487 141.151 182.121 141.278 181.888C141.451 181.572 141.34 181.532 140.844 181.729C139.511 182.261 137.97 182.152 136.725 181.439C135.786 180.902 135.529 180.862 135.748 181.289C136.356 182.474 138.077 183.106 139.593 182.701ZM108.975 162.507C120.108 164.468 129.835 154.648 127.411 143.894C123.282 125.571 97.2196 127.925 96.1961 146.713C95.8205 153.606 102.034 161.285 108.975 162.507ZM198.283 211.786C205.052 213.215 211.696 209.109 213.27 202.525C216.638 188.436 197.446 180.669 190.214 193.195C186.033 200.437 190.219 210.085 198.283 211.786ZM101.091 154.093C95.236 145.116 102.381 133.14 113.068 134.02C122.908 134.83 128.199 145.667 122.824 154C117.658 162.007 106.285 162.056 101.091 154.093ZM44.0018 121.6C44.9293 119.993 47.4827 119.108 50.3128 119.412L52.0953 119.604L50.8454 118.854C48.1544 117.24 42.1983 119.629 43.3919 121.844C43.5308 122.102 43.766 122.008 44.0018 121.6ZM193.18 206.221C189.302 201.793 190.235 194.367 195.094 190.969C202.862 185.539 213.367 192.657 211.168 201.86C209.196 210.11 198.792 212.632 193.18 206.221ZM103.161 151.578C101.633 146.762 102.856 141.702 106.291 138.622C108.232 136.883 108.051 136.58 105.782 137.766C99.6491 140.97 98.2502 148.994 103.059 153.381L104.008 154.247L103.161 151.578ZM179.696 196.631C189.199 197.562 193.36 184.733 185.102 179.966C178.252 176.011 170.185 181.797 171.737 189.552C172.444 193.084 176.028 196.272 179.696 196.631ZM193.96 202.615C192.896 198.65 193.957 194.892 196.846 192.401L198.013 191.394L196.476 191.943C191.512 193.716 190.074 200.878 193.934 204.606C194.618 205.267 194.621 205.075 193.96 202.615ZM173.886 190.884C170.787 184.199 177.891 177.706 184.287 181.378C189.76 184.521 189.01 192.583 183.056 194.596C179.4 195.833 175.436 194.229 173.886 190.884ZM175.094 186.196C176.191 183.68 178.587 182.06 181.407 181.929L182.743 181.867L181.615 181.455C178.308 180.247 174.448 182.816 174.286 186.331C174.212 187.95 174.338 187.929 175.094 186.196ZM148.73 158.047C152.58 158.974 156.544 156.286 156.711 152.634C156.765 151.463 156.793 151.443 159.423 150.741C172.072 147.359 170.473 128.524 157.454 127.558C148.249 126.876 141.266 137.371 145.918 144.896L146.649 146.079L145.233 148.498C142.788 152.677 144.371 156.998 148.73 158.047ZM145.65 153.968C144.79 151.601 145.201 149.574 146.878 147.898C147.896 146.881 147.929 147.458 146.941 148.985L146.001 150.438L147.268 149.384L148.537 148.33L150.648 149.531C151.809 150.191 153.416 150.852 154.219 151L155.679 151.267L155.51 152.59C154.85 157.737 147.396 158.778 145.65 153.968ZM210.282 186.265C222.183 190.098 235.147 182.403 237.601 170.049C241.581 150.015 217.906 136.446 202.403 149.876C189.978 160.64 194.42 181.158 210.282 186.265ZM205.023 179.262C197.526 172.861 196.916 160.772 203.737 153.771C217.394 139.753 240.085 154.269 233.027 172.508C228.75 183.562 214.174 187.077 205.023 179.262ZM150.704 146.64C151.563 146.598 154.724 148.423 154.49 148.826C154.387 149.006 153.393 148.61 152.181 147.907C150.692 147.043 150.249 146.663 150.704 146.64ZM147.73 143.737C142.372 133.487 157.228 124.121 164.147 133.387C168.667 139.442 162.291 152.489 156.457 149.121C155.342 148.478 155.461 148.007 156.798 147.77C158.707 147.432 158.787 147.034 156.964 146.938C153.606 146.761 149.822 143.529 148.75 139.92L148.269 138.3L148.179 139.719C148.065 141.529 148.417 143.136 149.197 144.357C149.535 144.887 149.649 145.407 149.45 145.514C148.908 145.806 148.7 145.59 147.73 143.737ZM190.437 159.362C195.332 160.3 197.363 153.828 192.971 151.292C189.186 149.107 184.727 154.615 187.749 157.743C188.944 158.981 189.177 159.121 190.437 159.362ZM202.416 164.635C204.725 156.953 212.122 151.839 220.191 152.344L222.83 152.51L220.792 151.528C212.717 147.636 202.329 153.602 201.94 162.354C201.818 165.113 202.004 166.005 202.416 164.635ZM190.272 158.261C191.088 158.402 192.472 158.093 192.686 157.721C192.786 157.548 192.419 157.503 191.87 157.62C191.249 157.753 190.402 157.564 189.634 157.121C188.21 156.299 188.074 156.328 188.831 157.294C189.277 157.861 189.269 157.931 188.789 157.676C187.745 157.121 187.339 154.596 188.085 153.304C190.062 149.879 195.249 151.952 194.611 155.912C194.309 157.783 191.554 159.365 190.165 158.464C189.755 158.198 189.769 158.173 190.272 158.261ZM136.585 122.275C152.054 126.488 166.006 112.921 162.138 97.4253C157.89 80.4049 135.268 76.5763 125.251 91.1823C117.622 102.305 123.614 118.742 136.585 122.275ZM66.6366 79.9977C72.8502 80.3985 77.5941 74.6505 75.9194 68.7505C73.1948 59.1535 59.3356 60.5546 58.5118 70.5104C58.1196 75.2557 61.9203 79.6936 66.6366 79.9977ZM61.822 75.8985C59.0916 73.0051 59.5909 67.8026 62.8364 65.3304C67.6913 61.6316 75.0917 65.3705 74.6618 71.3047C74.1701 78.0891 66.4839 80.8392 61.822 75.8985ZM129.87 114.017C121.245 104.719 125.429 89.9637 137.731 86.2975C152.166 81.9957 164.556 97.8734 156.99 110.978C151.25 120.921 137.686 122.44 129.87 114.017ZM67.5253 77.7545C69.724 77.8999 72.5198 75.9072 72.8526 73.9574C72.9925 73.1372 72.9078 73.1702 71.9943 74.2948C70.6782 75.9142 67.4557 76.8483 65.2314 76.2545C64.3828 76.0281 63.6506 75.9083 63.6044 75.9883C63.3962 76.3489 66.3432 77.6764 67.5253 77.7545ZM134.408 114.751C134.616 114.792 135.413 115.05 136.181 115.324L137.576 115.823L135.777 114.209C130.03 109.051 128.332 101.828 131.28 95.0836C132.619 92.0201 130.944 93.2019 128.823 96.8169C125.177 103.032 128.457 113.563 134.408 114.751ZM234.648 143.174C243.323 143.71 248.203 133.212 242.192 126.946C235.488 119.957 224.046 126.028 225.785 135.652C226.473 139.46 230.55 142.921 234.648 143.174ZM228.602 137.845C225.139 132.513 229.244 125.329 235.553 125.677C244.613 126.176 245.965 138.954 237.19 141.152C233.61 142.049 230.571 140.879 228.602 137.845ZM230.756 138.138C229.116 134.733 229.083 132.57 230.629 129.893C231.772 127.913 231.28 127.587 229.743 129.305C227.373 131.955 227.605 135.791 230.28 138.149C231.026 138.808 231.077 138.806 230.756 138.138ZM120.043 74.125C121.414 74.2844 122.014 73.9183 122.901 72.3821C124.118 70.2736 121.969 67.6786 119.543 68.3275C116.326 69.1873 116.719 73.7387 120.043 74.125ZM118.472 72.2455C118.398 71.7986 118.326 71.6617 118.311 71.942C118.271 72.6717 118.029 72.427 117.882 71.5089C117.814 71.0781 117.857 70.9047 117.979 71.1235C118.12 71.3765 118.414 71.1321 118.787 70.4518C119.11 69.8637 119.232 69.3862 119.058 69.3905C118.885 69.395 118.945 69.2353 119.192 69.0354C120.355 68.0946 122.776 69.5659 122.725 71.1824C122.646 73.6584 118.862 74.6046 118.472 72.2455ZM118.302 69.6605C118.484 69.612 118.524 69.7612 118.391 69.9922C118.257 70.2233 118.108 70.2632 118.059 70.081C118.01 69.8986 118.119 69.7095 118.302 69.6605ZM220.103 106.674C233.028 110.041 245.22 98.0547 241.891 85.2514C238.167 70.9294 220.223 66.9895 210.753 78.4144C202.783 88.0301 207.9 103.495 220.103 106.674ZM213.206 98.6839C207.792 92.1176 209.382 82.0881 216.6 77.2794C226.568 70.6375 240.149 78.4661 239.336 90.3847C238.426 103.71 221.725 109.015 213.206 98.6839ZM216.246 97.4594C212.763 92.2352 213.454 84.9436 217.905 79.9606L218.772 78.9903L217.473 79.477C210.385 82.1326 209.356 94.3569 215.902 98.1347L217.193 98.8794L216.246 97.4594ZM113.989 25.4073C128.779 30.9327 138.626 10.052 124.961 2.14114C111.206 -5.8219 98.1426 12.9048 110.249 23.2313C111.163 24.0105 112.001 24.6778 112.111 24.7141C112.221 24.7506 113.066 25.0625 113.989 25.4073ZM109.571 19.1618C105.505 12.854 108.613 4.86697 115.89 2.92147C126.651 0.0442428 133.91 13.3479 125.812 21.1067C121.335 25.3963 112.942 24.3912 109.571 19.1618ZM109.955 13.6435C110.707 9.00658 114.36 5.44902 118.995 4.83912C121.082 4.5648 120.855 4.29009 118.181 3.85685C114.142 3.20233 109.719 6.9379 109.405 11.2683C109.27 13.1298 109.722 15.0802 109.955 13.6435ZM202.211 54.1489C207.622 53.9908 209.562 47.4154 204.979 44.7642C202.305 43.2173 199.487 43.9369 197.974 46.5522C196.013 49.9421 198.421 54.26 202.211 54.1489ZM198.255 49.9214C197.73 47.2695 199.614 45.001 202.397 44.9361C207.031 44.8273 208.111 51.3419 203.744 53.0537C201.56 53.9095 198.724 52.2906 198.255 49.9214ZM203.314 52.6586C204.37 52.3764 204.927 51.9783 205.347 51.2056L205.925 50.1413L205.135 50.8859C204.111 51.8507 202.761 52.2832 201.278 52.1217L200.09 51.9929L200.975 52.5201C201.547 52.8608 202.374 52.9099 203.314 52.6586Z" fill="white"/>
</svg>
