<svg width="112" height="87" viewBox="0 0 112 87" fill="none" xmlns="http://www.w3.org/2000/svg">
<path opacity="0.5" fill-rule="evenodd" clip-rule="evenodd" d="M27.7615 1.0328C16.5544 6.42079 20.2917 23.1467 32.6946 23.1107C45.1117 23.075 48.8764 6.78654 37.7952 1.04189C35.1225 -0.34359 30.6328 -0.347957 27.7615 1.0328ZM35.4897 2.37388C40.8326 3.9588 43.8038 10.2843 41.5588 15.2952C37.2535 24.9048 23.222 22.0625 23.222 11.5806C23.222 4.9698 29.1762 0.501095 35.4897 2.37388ZM28.5015 4.32819C24.2596 6.25302 22.6704 11.7385 25.4116 14.9932L26.1261 15.8411L25.7198 14.626C24.641 11.3965 27.8195 4.37732 30.3607 4.37732C30.619 4.37732 30.9312 4.21355 31.0551 4.01339C31.4092 3.44093 30.102 3.60178 28.5015 4.32819ZM87.2615 19.5005C72.2398 23.138 66.8222 42.0729 77.6895 52.9563C90.2574 65.5432 111.881 56.7946 111.858 39.1327C111.84 26.045 99.8284 16.4576 87.2615 19.5005ZM99.0815 24.1249C109.522 29.2793 111.682 42.8339 103.331 50.7909C91.6226 61.9464 72.4067 51.3732 75.7275 35.6022C77.9259 25.1614 89.5798 19.4342 99.0815 24.1249ZM87.8266 24.5318C84.4267 25.6422 80.9429 28.8892 79.9137 31.9072L79.3384 33.5933L81.5058 31.5284C86.3281 26.9338 93.4592 25.6203 99.0972 28.2883C101.123 29.2465 101.496 29.3342 101.2 28.7825C99.4127 25.4456 92.1224 23.1285 87.8266 24.5318ZM51.2325 34.3365C39.0587 38.8809 41.9912 56.5654 54.9188 56.5654C66.8444 56.5654 70.6156 40.3988 59.9695 34.9129C57.9945 33.8954 53.2531 33.5824 51.2325 34.3365ZM57.8119 36.2486C64.6005 38.2626 66.5282 47.3037 61.1947 52.1167C54.8317 57.8591 44.7711 52.9148 45.542 44.4239C46.1009 38.2676 51.8056 34.4668 57.8119 36.2486ZM51.6445 37.5951C50.7825 38.0504 49.8214 38.8077 49.5088 39.2783L48.9401 40.1335L50.381 39.4093C53.6465 37.7683 57.3784 38.0908 60.2231 40.2598L61.868 41.5139L61.3405 40.5051C59.5196 37.0226 55.1887 35.723 51.6445 37.5951ZM10.4456 45.1336C0.0494328 46.9361 -3.65509 60.3266 4.27276 67.4465C9.15698 71.833 16.6378 71.7882 21.5067 67.3432C31.0081 58.6692 23.1681 42.9278 10.4456 45.1336ZM18.1855 48.6644C21.6521 50.5478 23.9095 54.8906 23.4501 58.7934C22.3436 68.1988 11.1921 71.7889 4.87682 64.7727C-3.12316 55.8844 7.59582 42.9107 18.1855 48.6644ZM8.10224 49.5641C4.35218 51.5071 2.53308 55.9707 4.0476 59.5128L4.51467 60.6046L4.58208 58.8428C4.72781 55.0365 7.90405 50.7821 11.3247 49.8115C13.651 49.1514 13.7322 48.7754 11.5452 48.7929C10.2737 48.8034 9.03566 49.0804 8.10224 49.5641ZM90.433 69.8379C81.7386 73.7833 84.5491 86.9736 94.0844 86.9736C101.994 86.9736 106.087 77.9292 100.866 71.9891C98.4877 69.2837 93.7896 68.3149 90.433 69.8379ZM98.339 71.9098C104.365 76.1496 101.459 85.325 94.0844 85.3428C87.7731 85.3581 84.3913 78.0005 88.5407 73.2803C91.0892 70.3809 95.3242 69.7884 98.339 71.9098ZM99.6368 76.5743C99.9443 79.3019 98.6789 81.9022 96.3028 83.426L95.1774 84.1477L96.36 83.9406C99.8277 83.3325 101.886 79.1786 100.269 76.0535C99.5231 74.6138 99.4244 74.6949 99.6368 76.5743Z" fill="white"/>
</svg>
