<svg width="214" height="268" viewBox="0 0 214 268" fill="none" xmlns="http://www.w3.org/2000/svg">
<g clip-path="url(#clip0_320_1002)">
<path opacity="0.5" fill-rule="evenodd" clip-rule="evenodd" d="M33.3373 12.3609C31.2405 13.8685 32.4414 16.6386 35.6036 17.5917C36.2484 17.785 30.7155 25.6734 23.3084 35.12C7.16733 55.7065 8.40653 53.8227 9.76343 55.6931C10.6199 56.8745 11.118 56.8781 11.9449 55.7099C12.6095 54.7689 14.5234 54.072 16.9877 53.8725C24.4249 53.2696 38.6244 48.8632 40.7254 46.5052C41.7979 45.3036 44.0274 43.9569 45.6813 43.5134L48.6893 42.7067L46.8004 45.9856C44.9946 49.1201 45.0316 49.5888 47.6541 56.6656C50.3245 63.8732 50.3369 64.0643 48.11 63.9625C46.1951 63.8742 45.9364 64.2774 46.5169 66.4457C47.0297 68.361 46.6876 69.1734 45.1976 69.5729C42.6483 70.2566 43.4098 73.8014 46.2858 74.6442C47.9239 75.1243 47.7227 75.2669 45.2798 75.3613C42.4428 75.4695 42.3258 75.6328 43.6357 77.6778C46.0742 81.486 46.1272 82.8158 43.8785 83.7764C41.5774 84.7587 41.3484 86.2149 43.3961 86.8315C44.0694 87.0345 45.1917 86.3975 45.8907 85.416C47.0427 83.7987 47.2221 84.1103 47.8116 88.7406C48.1691 91.55 50.3477 100.891 52.6524 109.5C54.9572 118.109 56.571 124.995 56.2393 124.803C55.1663 124.182 45.9996 90.4463 46.4738 88.8628C47.3521 85.9327 45.5991 86.5822 44.6247 89.5477C43.901 91.7503 44.0427 92.9601 45.1648 94.1588C46.1178 95.177 46.7487 97.3362 46.8536 99.9312C46.9447 102.212 47.3751 104.412 47.8084 104.822C48.2423 105.231 49.949 110.317 51.6031 116.125C55.0218 128.133 56.1906 129.289 63.0548 127.448C67.928 126.141 68.3734 127.498 67.4795 140.914C64.9473 178.932 72.5988 194.973 98.8636 206.707C110.746 212.016 118.703 228.216 116.366 242.342L115.603 246.952L107.59 250.365C95.238 255.627 90.8462 262.119 97.3714 265.472C107.872 270.868 158.644 256.854 163.585 247.195C166.197 242.089 157.32 239.302 143.49 240.886L134.73 241.889L131.075 233.331C124.364 217.621 124.352 210.301 131.022 202.06C149.167 179.643 150.23 165.055 135.822 136.131C126.977 118.374 124.672 111.004 124.731 100.644C124.758 95.8831 124.444 89.3779 124.033 86.1875C123.236 80.0019 125.661 56.809 127.627 51.8012C129.137 47.954 136.75 43.1641 149.304 38.1617L158.9 34.3372L157.415 31.0317C155.376 26.494 155.683 26.5026 145.613 30.7265C119.057 41.865 116.679 44.7986 115.005 68.488C114.528 75.2585 114.044 81.6352 113.932 82.6601C113.682 84.9485 99.1915 90.0358 98.6569 88.0227C97.8184 84.867 81.0661 42.6816 80.1483 41.4162C78.6164 39.3032 77.9216 39.8492 76.8325 44.0254C75.7827 48.0505 73.8703 47.6051 72.6155 43.043C72.2733 41.7972 71.5404 40.9004 70.9871 41.0487C70.4338 41.1971 70.4539 43.0846 71.0317 45.2428C71.684 47.6792 71.6022 49.5163 70.8171 50.0877C68.8226 51.5387 68.2052 50.5375 68.7209 46.6923C69.2712 42.5937 66.1396 37.4577 62.8797 37.1143C60.1367 36.8246 62.5083 34.716 66.9327 33.509C69.416 32.8322 71.4834 31.2752 73.4709 28.5857C75.0706 26.4215 78.5778 22.9605 81.265 20.8947C86.0784 17.1935 87.2786 15.0717 84.0734 15.9312C76.6388 17.925 39.7059 16.5347 39.6693 14.2595C39.6197 11.1904 36.3337 10.2057 33.3373 12.3609ZM36.9827 14.7844C37.4605 16.6215 37.3102 16.8174 36.1941 15.8062C34.4103 14.1896 34.1239 13.1201 35.3845 12.7821C35.9378 12.6337 36.6566 13.5343 36.9827 14.7844ZM38.263 21.4637C38.1353 22.5373 38.0347 25.8466 38.0394 28.8164C38.0571 39.4386 37.8014 40.2353 34.5602 39.6676C32.9776 39.3908 31.7333 38.9077 31.7949 38.5941C32.1379 36.8383 37.8614 19.7865 38.1504 19.6615C38.3395 19.5784 38.3907 20.3901 38.263 21.4637ZM61.9962 18.5381L77.8612 18.3869L72.4827 22.1641L67.1042 25.9412L56.8277 23.0995C51.1755 21.5371 45.4676 19.8352 44.1429 19.3175L41.7344 18.3763L43.9327 18.5322C45.1419 18.6185 53.2705 18.6211 61.9962 18.5381ZM52.5652 32.6524C52.6346 32.9115 50.5458 33.3657 47.9232 33.6628C43.8763 34.1214 42.8913 34.6308 41.4082 37.0295L39.6608 39.8544L39.7901 30.0994L39.919 20.3433L46.1793 26.263C49.6225 29.5186 52.4959 32.3933 52.5652 32.6524ZM32.2682 31.7146C26.78 46.6493 27.4654 45.6974 20.9413 47.447C17.723 48.31 15.1902 48.838 15.3113 48.6218C15.7443 47.8467 34.6118 23.964 34.9238 23.7961C35.099 23.7016 33.9042 27.2654 32.2682 31.7146ZM53.1373 23.8546C63.9498 26.9383 65.7348 27.7335 62.0085 27.8069C60.5103 27.837 58.1894 28.6528 56.8506 29.6211C54.5423 31.2892 54.1211 31.1256 48.7274 26.4569C45.5989 23.7489 43.2654 21.4727 43.543 21.3983C43.8207 21.3238 48.1386 22.4293 53.1373 23.8546ZM72.4596 26.5643C70.5299 29.3809 68.699 30.7827 65.9473 31.5519C63.8428 32.1411 61.301 33.3922 60.3006 34.3314C57.7907 36.6888 50.9705 38.7781 50.5775 37.3104C50.1705 35.7903 59.8033 30.1301 65.11 28.7708C67.3843 28.1879 70.3682 26.6465 71.7406 25.345C75.3436 21.9274 75.4796 22.1577 72.4596 26.5643ZM48.1455 36.2815C48.2818 36.7906 48.8601 37.851 49.4309 38.6379C50.2739 39.8012 49.6868 40.2784 46.2864 41.1903C43.9866 41.8071 40.9719 43.3459 39.5874 44.6106C35.8883 47.9871 22.3905 52.2237 18.704 51.1649C15.9357 50.3699 16.0885 50.276 21.6424 49.3571C26.8424 48.4974 27.7604 48.0157 29.8145 45.0674C32.2402 41.5862 34.6274 40.3335 36.132 41.7526C37.6381 43.1735 41.5523 41.4983 42.9043 38.8561C44.2075 36.309 47.6943 34.5961 48.1455 36.2815ZM53.5305 45.3963C53.1151 47.8921 52.8715 48.126 52.1788 46.6987C51.7142 45.7407 51.841 44.4059 52.4606 43.732C54.0655 41.9857 54.0917 42.0272 53.5305 45.3963ZM57.9501 42.0243C57.6796 42.4923 57.076 42.6541 56.608 42.3842C56.1408 42.113 56.3616 41.7297 57.099 41.5319C57.8365 41.3341 58.2192 41.5556 57.9501 42.0243ZM62.4661 43.9302C63.0493 44.7354 62.9885 45.1849 62.3247 44.9848C61.6867 44.7929 61.0507 44.2093 60.9109 43.6872C60.5228 42.2376 61.3297 42.3637 62.4661 43.9302ZM49.1768 49.0099C48.7918 50.2745 48.2292 51.1655 47.9271 50.9915C47.3807 50.6746 48.7497 47.0122 49.4892 46.8139C49.7025 46.7567 49.5627 47.7449 49.1768 49.0099ZM57.6755 45.6989C58.166 46.1616 58.3408 46.6009 58.0641 46.6751C57.7875 46.7493 57.16 46.4314 56.6695 45.9687C56.179 45.506 56.0043 45.0667 56.2809 44.9925C56.5576 44.9183 57.185 45.2362 57.6755 45.6989ZM55.2954 46.8774C55.3696 47.1546 55.204 47.4421 54.9273 47.5163C54.6507 47.5905 54.3636 47.4244 54.2894 47.1472C54.2151 46.87 54.3808 46.5825 54.6574 46.5083C54.9341 46.4341 55.2212 46.6002 55.2954 46.8774ZM51.7909 51.2389C51.5205 51.7068 51.1377 51.4853 50.9399 50.7465C50.7421 50.0076 50.9629 49.6242 51.4309 49.8942C51.8982 50.1654 52.0601 50.7702 51.7909 51.2389ZM56.8412 48.6237C56.9154 48.9009 56.7498 49.1884 56.4731 49.2626C56.1964 49.3368 55.9094 49.1707 55.8351 48.8935C55.7609 48.6163 55.9266 48.3288 56.2032 48.2546C56.4799 48.1804 56.767 48.3465 56.8412 48.6237ZM63.5114 47.9153C63.4152 48.8325 63.1587 49.6305 62.9414 49.6888C62.7241 49.7471 62.3639 49.1144 62.1412 48.2828C61.9186 47.4512 62.175 46.6531 62.7113 46.5093C63.2465 46.3658 63.6067 46.9985 63.5114 47.9153ZM56.6448 51.9176C56.719 52.1948 56.5534 52.4823 56.2767 52.5565C56 52.6307 55.713 52.4646 55.6387 52.1874C55.5645 51.9102 55.7302 51.6227 56.0068 51.5485C56.2835 51.4743 56.5706 51.6404 56.6448 51.9176ZM60.6689 50.8384C60.7431 51.1156 60.5775 51.4032 60.3008 51.4773C60.0242 51.5515 59.7371 51.3854 59.6629 51.1082C59.5887 50.831 59.7543 50.5435 60.031 50.4693C60.3076 50.3951 60.5947 50.5612 60.6689 50.8384ZM79.9185 46.2165C80.0669 46.7709 79.7085 47.3532 79.123 47.5102C78.5375 47.6672 78.2158 47.2673 78.4094 46.6211C78.6031 45.975 78.9605 45.393 79.205 45.3274C79.4494 45.2618 79.7701 45.662 79.9185 46.2165ZM74.2871 49.3472C74.3613 49.6244 74.1957 49.912 73.919 49.9861C73.6424 50.0603 73.3553 49.8942 73.2811 49.617C73.2069 49.3398 73.3725 49.0523 73.6492 48.9781C73.9258 48.9039 74.2129 49.07 74.2871 49.3472ZM61.4785 53.8625C61.5528 54.1397 61.3871 54.4273 61.1105 54.5014C60.8338 54.5756 60.5467 54.4095 60.4725 54.1323C60.3983 53.8551 60.5639 53.5676 60.8406 53.4934C61.1172 53.4192 61.4043 53.5853 61.4785 53.8625ZM68.7618 52.8742C68.8201 53.0919 68.238 53.7288 67.4673 54.2898C66.664 54.8737 66.2152 54.8126 66.4146 54.1476C66.7485 53.0306 68.5432 52.0577 68.7618 52.8742ZM83.331 53.9446C87.7548 63.7017 94.6439 83.2312 95.0223 87.0894C95.2501 89.4182 96.0201 91.6459 96.7878 92.2017C97.7267 92.8812 97.8857 93.7612 97.3016 95.035C96.432 96.9299 92.8391 98.4963 92.4708 97.1408C92.3584 96.7247 90.6928 95.8479 88.7712 95.191C86.8486 94.5343 84.7843 93.1432 84.1836 92.0996C83.5839 91.0558 81.803 88.1171 80.2278 85.5684L77.3644 80.9343L83.9373 84.8967C87.5527 87.0754 90.6633 88.5933 90.8513 88.2684C91.4785 87.1797 86.54 83.4943 81.2273 81.0857C77.9938 79.6202 75.4323 77.6245 74.5859 75.9089C73.8277 74.3738 72.5457 71.901 71.7381 70.4149C70.5431 68.2191 71.6905 68.7271 77.8517 73.1208C86.2442 79.1072 88.7647 81.5861 91.1019 86.1517C93.6049 91.0381 95.4138 90.6783 93.2549 85.7235C88.0213 73.7148 78.5075 55.0663 78.8487 57.4846C79.0632 59.011 80.8611 63.4912 82.843 67.4423C87.8128 77.3501 88.0235 78.5198 84.3305 75.7007C82.6688 74.4317 78.2513 71.2547 74.5135 68.6388C63.6867 61.0633 63.1464 59.2063 70.3069 54.1831C78.0911 48.7226 80.94 48.6706 83.331 53.9446ZM155.695 31.2196C156.129 32.8406 155.283 33.5256 150.6 35.3475C147.512 36.5493 141.98 38.9955 138.308 40.7852C132.356 43.6844 131.449 43.9006 129.955 42.7724C127.708 41.076 127.359 41.3392 139.219 35.8056C153.163 29.3004 155.041 28.7772 155.695 31.2196ZM52.2078 60.8507C51.9373 61.3187 51.5546 61.0973 51.3568 60.3584C51.1589 59.6195 51.3798 59.2361 51.8478 59.5061C52.315 59.7773 52.4769 60.382 52.2078 60.8507ZM55.7107 62.3596C55.5049 63.049 54.8538 63.7422 54.2662 63.8998C53.5982 64.0789 53.5198 63.4798 54.0572 62.3093C54.9913 60.2728 56.3233 60.3143 55.7107 62.3596ZM59.5199 59.9702C59.2495 60.4382 58.6458 60.6001 58.1778 60.3301C57.7106 60.0589 57.9315 59.6756 58.6689 59.4779C59.4063 59.2801 59.7891 59.5016 59.5199 59.9702ZM128.895 43.8865C129.784 44.8364 130.239 45.6867 129.906 45.776C128.568 46.1349 124.835 44.8326 124.591 43.9223C124.118 42.1532 127.249 42.1272 128.895 43.8865ZM64.1386 61.5591C64.6021 62.1986 66.7298 65.9616 68.868 69.9205L72.7549 77.1205L66.5976 74.6262C60.141 72.0123 54.3079 71.3812 54.836 73.3539C55.0004 73.9678 55.9902 74.2415 57.0365 73.9609C61.0324 72.8893 73.3719 78.8815 75.7924 83.0693C77.0311 85.2113 78.7809 88.0416 79.6817 89.3601C80.9183 91.172 79.7425 90.7354 74.8724 87.575C71.3266 85.2739 68.238 83.7177 68.0091 84.1151C67.7802 84.5125 70.9912 87.0417 75.1452 89.734C81.6451 93.9472 87.5596 99.2682 86.1602 99.6434C85.3262 99.8671 73.365 96.347 67.6032 94.1821C64.4177 92.9846 61.3992 92.2783 60.8946 92.6124C60.3899 92.9466 64.4201 94.8099 69.8508 96.7535C80.6558 100.623 80.5676 100.845 67.8438 101.791C57.2387 102.579 57.5789 101.948 62.2118 112.233C65.5375 119.612 65.8552 120.803 64.6734 121.447C55.8757 126.247 49.6964 67.8381 58.4544 62.6599C62.0551 60.5307 63.2278 60.3037 64.1386 61.5591ZM49.533 66.9701C49.2626 67.438 48.8798 67.2166 48.682 66.4777C48.4842 65.7388 48.705 65.3555 49.173 65.6254C49.6403 65.8966 49.8022 66.5014 49.533 66.9701ZM125.913 46.8468C128.926 48.7971 127.37 49.2145 123.398 47.5213C121.183 46.5769 120.79 46.1009 121.954 45.7716C122.833 45.5229 124.616 46.0064 125.913 46.8468ZM52.3108 72.7098C51.3667 76.3846 50.9774 81.1369 51.429 83.4802C51.8727 85.7857 52.773 92.3908 53.4294 98.157L54.6232 108.641L52.6458 98.9073C51.5587 93.5537 50.2932 87.8968 49.8335 86.3368C48.9553 83.3506 49.9908 75.1881 51.9506 69.6527C53.9039 64.1373 54.0949 65.7608 52.3108 72.7098ZM123.92 49.4989C126.747 50.6747 126.834 50.8383 125.242 51.9967C124.078 52.8437 122.947 52.7601 121.674 51.7338C117.92 48.7063 119.127 47.5052 123.92 49.4989ZM48.0193 72.0574C48.1678 72.6119 47.8637 73.1796 47.3425 73.3193C46.8214 73.4591 45.9947 73.1946 45.5043 72.7319C45.0138 72.2692 45.3189 71.7012 46.1811 71.47C47.0432 71.2388 47.8709 71.503 48.0193 72.0574ZM122.033 53.7184C124.28 55.5425 124.313 55.9894 122.913 65.6025C122.112 71.0972 121.417 77.7908 121.369 80.4778C121.258 86.5566 121.52 86.0673 118.361 86.1161L115.686 86.1581L116.472 77.1171C116.905 72.1436 117.505 64.4847 117.805 60.0953C118.409 51.313 118.64 50.9637 122.033 53.7184ZM47.4916 78.1412C47.5658 78.4184 47.4002 78.7059 47.1235 78.7801C46.8469 78.8543 46.5598 78.6882 46.4856 78.411C46.4113 78.1338 46.577 77.8463 46.8536 77.7721C47.1303 77.6979 47.4174 77.864 47.4916 78.1412ZM50.2518 84.4236C50.4497 85.1625 50.8324 85.384 51.1029 84.916C51.372 84.4473 51.2101 83.8425 50.7429 83.5713C50.2749 83.3014 50.054 83.6847 50.2518 84.4236ZM118.096 88.9821C115.22 91.8873 100.863 96.2538 100.36 94.3748C99.9764 92.9434 101.272 92.3539 109.732 90.1134C116.756 88.2535 119.136 87.9318 118.096 88.9821ZM63.8579 104.116C63.6135 104.54 62.755 104.809 61.9517 104.713C61.0628 104.606 61.2372 104.303 62.3963 103.941C63.4451 103.613 64.1023 103.692 63.8579 104.116ZM89.8913 97.5625C90.3818 98.0252 90.3302 98.5252 89.7769 98.6736C89.2235 98.8219 88.3697 98.5647 87.8792 98.102C87.3887 97.6393 87.4403 97.1393 87.9937 96.9909C88.547 96.8426 89.4008 97.0998 89.8913 97.5625ZM67.1005 104.395C66.8301 104.863 66.2265 105.025 65.7585 104.755C65.2912 104.484 65.5121 104.1 66.2495 103.903C66.9869 103.705 67.3697 103.926 67.1005 104.395ZM96.798 101.08C107.128 98.3312 114.168 95.9345 117.549 94.0155C123.207 90.804 123.445 90.7704 123.188 93.2303C122.401 100.754 65.4024 114.673 62.2241 108.118C61.555 106.739 62.4319 106.526 71.3237 105.916C78.1815 105.445 85.903 103.979 96.798 101.08ZM72.6905 103.796C72.7647 104.073 72.5991 104.361 72.3224 104.435C72.0458 104.509 71.7587 104.343 71.6845 104.066C71.6103 103.788 71.7759 103.501 72.0526 103.427C72.3292 103.353 72.6163 103.519 72.6905 103.796ZM82.7762 102.284C82.5318 102.708 81.6733 102.977 80.8699 102.88C79.981 102.774 80.1555 102.471 81.3146 102.109C82.3633 101.781 83.0206 101.86 82.7762 102.284ZM95.363 99.8765C95.4372 100.154 95.2716 100.441 94.9949 100.515C94.7183 100.59 94.4312 100.424 94.357 100.146C94.2828 99.8691 94.4484 99.5816 94.7251 99.5074C95.0017 99.4332 95.2888 99.5993 95.363 99.8765ZM58.5613 118.119C59.7097 120.902 60.0766 122.844 59.4821 123.004C58.9388 123.15 57.8677 120.925 57.1007 118.06C55.428 111.812 55.9662 111.833 58.5613 118.119ZM74.2742 111.725C82.6801 111.007 114.893 102.419 119.242 99.7372C123.6 97.0504 123.61 98.5915 119.297 107.825C117.615 111.425 116.569 114.56 116.972 114.793C117.374 115.026 117.188 117.677 116.557 120.686C115.374 126.335 114.053 137.463 114.41 138.795C114.885 140.579 116.234 138.854 117.081 135.378C119.464 125.602 121.426 124.302 119.537 133.75C117.466 144.117 117.931 146.058 121.195 140.663C122.35 138.754 123.573 137.355 123.914 137.552C124.255 137.749 125.089 134.735 125.768 130.857C126.559 126.337 127.309 124.407 127.856 125.481C128.807 127.349 125.887 138.458 124.576 137.96C123.504 137.551 120.843 147.7 121.866 148.292C122.291 148.538 123.171 147.382 123.823 145.722C126.602 138.646 127.138 138.003 126.146 142.941C125.578 145.767 125.396 149.462 125.741 151.152C126.088 152.842 126.37 155.563 126.369 157.196C126.366 161.95 128.026 160.245 131.002 152.443C132.517 148.471 133.88 145.188 134.032 145.148C134.62 144.99 133.244 152.685 131.417 159.776C128.359 171.642 130.927 170.598 134.861 158.377C138.731 146.362 138.954 150.099 135.161 163.401C133.285 169.984 131.906 175.959 132.099 176.678C132.792 179.269 134.222 177.393 136.932 170.336C140.67 160.608 141.324 161.743 137.944 172.09C133.575 185.465 134.451 188.961 139.082 176.627C142.288 168.086 143.149 167.184 141.387 174.211C139.721 180.857 134.089 190.502 128.728 195.891C126.577 198.052 123.822 201.228 122.605 202.944C121.389 204.662 119.069 206.422 117.452 206.856C115.834 207.289 114.632 208.098 114.781 208.652C115.786 212.407 106.46 208.946 90.0178 199.463C72.8122 189.54 67.4993 174.694 69.7863 142.929C70.6312 131.183 69.0654 121.029 65.3875 114.408C64.1412 112.166 64.2183 111.842 65.9466 112.038C67.0485 112.163 70.7956 112.022 74.2742 111.725ZM114.982 111.738C110.975 123.546 110.495 128.863 114.166 120.77C115.377 118.099 116.154 115.578 115.89 115.169C115.626 114.76 116.567 111.476 117.98 107.871C119.393 104.267 120.483 101.071 120.403 100.771C119.875 98.7992 118.272 102.041 114.982 111.738ZM122.816 108.45C123.212 113.774 121.143 121.486 117.115 129.697C116.068 131.831 118.123 120.033 120.125 112.413C122.328 104.031 122.473 103.817 122.816 108.45ZM65.0128 124.455C63.5525 125.094 61.0636 125.762 59.4796 125.939C57.8957 126.116 59.0907 125.594 62.134 124.778C65.1772 123.962 66.4732 123.816 65.0128 124.455ZM123.784 130.037C120.914 138.726 119.884 139.74 121.612 132.176C122.25 129.384 123.034 124.598 123.354 121.541C123.932 116.023 123.945 116.007 125.127 119.172C126.032 121.591 125.707 124.214 123.784 130.037ZM130.815 131.695C131.062 132.668 130.675 134.839 129.956 136.517L128.646 139.569L129.257 134.825C129.935 129.556 130.157 129.109 130.815 131.695ZM136.208 142.403C137.421 144.98 137.467 146.475 136.407 148.832C135.228 151.454 135.097 151.539 135.51 149.414C137.182 140.812 133.523 140.304 130.692 148.744C129.488 152.335 128.306 155.326 128.067 155.391C127.336 155.586 129.115 145.134 130.714 139.837C132.366 134.366 132.44 134.4 136.208 142.403ZM139.036 160.816C134.728 170.786 134.265 170.827 137.592 160.939C138.471 158.327 139.32 155.182 139.477 153.951C139.736 151.951 139.861 151.887 140.657 153.358C141.161 154.29 140.457 157.525 139.036 160.816ZM143.191 164.557C143.307 166.153 142.954 167.324 142.407 167.16C141.86 166.995 141.622 165.604 141.878 164.068C142.456 160.601 142.918 160.772 143.191 164.557ZM142.914 176.799C142.988 177.076 142.822 177.363 142.546 177.438C142.269 177.512 141.982 177.346 141.908 177.068C141.834 176.791 141.999 176.504 142.276 176.43C142.552 176.355 142.84 176.521 142.914 176.799ZM141.11 182.144C140.373 184.124 139.544 185.805 139.268 185.879C138.991 185.954 139.367 184.394 140.104 182.414C140.841 180.434 141.67 178.753 141.946 178.679C142.223 178.604 141.847 180.164 141.11 182.144ZM136.974 190.92C131.69 198.012 130.58 199.173 130.764 197.411C130.864 196.456 131.492 195.528 132.159 195.349C132.826 195.17 134.306 193.32 135.447 191.237C136.587 189.154 137.842 187.636 138.233 187.863C138.625 188.089 138.058 189.465 136.974 190.92ZM129.027 199.424C128.834 200.067 127.814 201.346 126.759 202.266C125.107 203.707 125.112 203.56 126.804 201.203C129.003 198.139 129.541 197.708 129.027 199.424ZM120.215 212.507C119.373 213.971 118.783 215.75 118.905 216.46C119.649 220.774 119.995 223.975 119.859 225.283C119.772 226.106 120.167 226.655 120.735 226.503C121.305 226.35 121.596 226.803 121.385 227.509C120.791 229.491 122.865 239.06 123.695 238.176C124.1 237.745 124.437 238.365 124.445 239.552C124.452 240.759 124.953 241.578 125.581 241.409C126.2 241.243 126.877 241.751 127.087 242.536C127.298 243.322 128.097 244.041 128.863 244.136C130.877 244.382 125.594 245.845 121.806 246.089L118.595 246.295L119.197 242.197C119.634 239.224 118.88 234.574 116.45 225.271L113.1 212.443L117.045 211.066C122.042 209.321 122.049 209.324 120.215 212.507ZM122.908 214.77C121.732 219.563 121.645 219.256 122.331 212.763C122.578 210.427 123.053 208.929 123.385 209.434C123.719 209.938 123.504 212.341 122.908 214.77ZM122.178 220.173C122.253 220.451 122.087 220.738 121.81 220.812C121.534 220.887 121.247 220.72 121.172 220.443C121.098 220.166 121.264 219.879 121.541 219.804C121.817 219.73 122.104 219.896 122.178 220.173ZM124.257 224.358C124.114 226.305 123.774 227.77 123.501 227.612C123.228 227.454 123.122 225.731 123.265 223.784C123.408 221.836 123.748 220.372 124.021 220.53C124.294 220.688 124.4 222.411 124.257 224.358ZM126.531 231.665C126.003 232.582 125.55 232.767 125.381 232.136C125.021 230.79 125.892 229.279 126.743 229.772C127.105 229.982 127.01 230.834 126.531 231.665ZM128.597 234.705C128.499 235.649 128.144 236.262 127.81 236.069C127.476 235.875 127.371 235.153 127.578 234.464C128.139 232.589 128.802 232.746 128.597 234.705ZM129.65 239.526C128.921 240.781 128.775 240.696 128.935 239.113C129.048 238.018 129.46 237.307 129.853 237.535C130.246 237.761 130.155 238.657 129.65 239.526ZM129.122 242.081C129.196 242.358 129.03 242.645 128.754 242.719C128.477 242.794 128.19 242.628 128.116 242.35C128.042 242.073 128.207 241.786 128.484 241.711C128.761 241.637 129.048 241.803 129.122 242.081ZM132.39 243.545C132.119 244.013 131.737 243.792 131.539 243.053C131.341 242.314 131.562 241.931 132.03 242.201C132.497 242.472 132.659 243.077 132.39 243.545ZM114.385 251.342C116.263 252.787 116.227 252.84 113.758 252.266C112.317 251.931 111.299 251.119 111.496 250.462C111.693 249.806 111.975 249.39 112.123 249.538C112.271 249.687 113.289 250.498 114.385 251.342ZM127.087 247.389C133.874 246.343 133.948 246.361 130.38 248.172C126.441 250.17 118.447 250.54 117.967 248.746C117.816 248.181 118.244 247.886 118.918 248.088C119.592 248.291 123.269 247.976 127.087 247.389ZM109.201 252.25C109.345 252.786 110.888 253.568 112.631 253.988C116.764 254.981 115.642 255.316 110.507 254.621C106.396 254.065 104.675 252.418 107.431 251.679C108.261 251.456 109.057 251.714 109.201 252.25ZM153.543 242.636C163.621 243.02 162.134 245.976 148.619 252.424C141.805 255.674 142.161 255.574 142.597 254.119C142.831 253.335 140.485 253.786 135.735 255.437C131.766 256.817 129.103 257.415 129.819 256.768C134.244 252.763 136.397 248.627 132.846 250.955C131.962 251.533 132.458 250.663 133.945 249.021C135.433 247.379 136.511 245.517 136.342 244.883C135.933 243.357 144.186 242.279 153.543 242.636ZM107.465 255.451C109.874 256.291 111.216 257.144 110.447 257.348C108.938 257.748 101.529 255.814 101.3 254.96C100.995 253.818 103.305 254.002 107.465 255.451ZM105.661 259.512C104.17 260.627 97.5626 258.458 98.7157 257.231C99.4215 256.48 101.033 256.585 103.096 257.516C104.892 258.326 106.046 259.224 105.661 259.512ZM105.456 261.28C108.342 261.459 111.489 261.433 112.45 261.222C113.536 260.984 113.767 261.162 113.061 261.694C111.194 263.1 100.234 262.16 97.6746 260.375C95.3418 258.745 95.3424 258.736 97.7531 259.834C99.1039 260.449 102.57 261.1 105.456 261.28ZM104.451 263.974L108.682 264.408L105.062 264.772C100.919 265.191 96.1399 263.877 95.6903 262.198C95.5203 261.563 96.4577 261.609 97.8028 262.299C99.1321 262.983 102.124 263.736 104.451 263.974ZM115.48 256.655C115.235 257.08 114.377 257.349 113.573 257.252C112.684 257.146 112.859 256.843 114.018 256.48C115.067 256.152 115.724 256.231 115.48 256.655ZM109.668 259.362C109.397 259.83 108.794 259.992 108.326 259.722C107.859 259.451 108.079 259.068 108.817 258.87C109.554 258.672 109.937 258.894 109.668 259.362ZM120.78 256.315C120.535 256.739 119.677 257.008 118.873 256.911C117.984 256.805 118.159 256.502 119.318 256.139C120.367 255.812 121.024 255.89 120.78 256.315ZM113.962 259.291C113.691 259.759 113.088 259.921 112.62 259.651C112.153 259.38 112.373 258.997 113.111 258.799C113.848 258.601 114.231 258.823 113.962 259.291ZM135.87 259.231C139.669 258.799 137.229 259.551 128.69 261.447C121.576 263.025 114.175 264.382 112.245 264.461C107.725 264.646 128.285 260.094 135.87 259.231ZM147.504 255.698C147.234 256.166 146.63 256.328 146.162 256.058C145.695 255.787 145.916 255.404 146.653 255.206C147.391 255.008 147.773 255.23 147.504 255.698Z" fill="white"/>
</g>
<defs>
<clipPath id="clip0_320_1002">
<rect width="214" height="268" fill="white"/>
</clipPath>
</defs>
</svg>
